<?xml version="1.0" encoding="UTF-8"?>
<svg id="Layer_2" data-name="Layer 2" xmlns="http://www.w3.org/2000/svg" viewBox="0 0 1921.1 192.26">
  <defs>
    <style>
      .cls-1 {
        fill: none;
        stroke: #faf5c3;
        stroke-miterlimit: 10;
        stroke-width: 2px;
      }

      .cls-2 {
        fill: #faf5c3;
        stroke-width: 0px;
      }
    </style>
  </defs>
  <g id="Layer_1-2" data-name="Layer 1">
    <g>
      <path class="cls-1" d="m1920.67,135.97c-17.29,8.2-43.76,17.59-74.99,14.88-30.21-2.62-42.04-14.57-64.32-22.77-81.44-29.96-135.47,51.65-216.95,23.92-37.98-12.93-35.64-29.48-69.57-36.96-43.68-9.62-65.31,13.34-113.04,17.39-62.81,5.33-58.45-33.18-122.78-32.79-35.67.21-114.25,11.48-133.93,1.24-.4-.21-16.72-8.73-16.72-8.73-2.46.73-5.92,1.82-10.01,3.29-12.24,4.03-30.45,14.06-30.45,14.06-13.16,7.25-22.18,13.09-39.16,24.1-12.55,8.14-28.49,18.78-28.49,18.78,0,0-5.75-2.01-10.05-2.75-9.09-2.37-19.77.22-25.21,1.53-27.56,6.61-54.61,12.16-54.62,12.17-.02,0-95.06,24-126.34,27.44-2.98.33-5.67.5-8.91-.3-3.34-.83-8.59-3.01-24.39-18.82h0c-10.51-11.71-19.78-28.87-19.78-28.87-16.8,2.13-43.32,4.17-75.25.52-81.41-9.31-117.51-48.42-163.04-28.26-27.35,12.11-22.06,27.24-47.83,36.96-52.81,19.92-81.67-41.11-165.22-45.65-61.83-3.36-84.92,27.95-128.26,6.52-27.71-13.7-31.38-32.98-56.52-39.13C61.4,65.55,26.37,89.5.67,112.86"/>
      <g>
        <path class="cls-2" d="m970.26,148.18c-36.77,8.1-73.53,16.21-110.3,24.31-18.36,4.05-36.73,8.1-55.09,12.14-4.57,1.01-9.15,2.02-13.72,3.03s-9.03,2.03-13.64,1.63c-8.12-.7-14.39-6.63-19.78-12.21-12.73-13.19-23.04-28.61-30.49-45.35l-.9,2.2c18.14-4.07,36.28-8.14,54.42-12.21,1.03-.23,1.54-1.81.66-2.51-7.5-5.97-15-11.93-22.5-17.9l-.66,2.51c36.25-7.43,73.33-10.67,110.32-9.6,9.78.28,19.55.87,29.3,1.74.77.07,1.55-.74,1.5-1.5-1.63-24.81-13.35-48.59-31.72-65.3-5.22-4.75-10.96-8.91-17.11-12.37l-.76,2.8c16.47,1.36,32.92,3.02,49.33,5,8.23.99,16.45,2.05,24.65,3.2,7.42,1.04,15.54,1.53,22.43,4.72,6.52,3.02,11.1,8.75,15.28,14.4s8.13,11.62,11.67,17.75c7.01,12.12,12.63,25.12,15.83,38.77,3.54,15.07,3.89,30.81-.24,45.8l2.89.8c3.4-16.75,12.48-31.5,21.68-45.65,9.12-14.02,18.96-28.01,24.37-43.99,1.29-3.82,2.31-7.75,2.94-11.74.64-4.01,1.26-8.44.72-12.49-.65-4.87-5.13-5.87-9.29-6.34-5.34-.6-10.62-1.56-15.85-2.79-20.96-4.91-40.65-13.85-60.97-20.73-5-1.69-10.05-3.3-15.16-4.62-4.3-1.11-8.84-1.94-13.3-1.59s-8.38,1.78-11.41,4.87c-3.13,3.2-4.63,7.58-5.42,11.9-.39,2.16-.64,4.34-.86,6.52-.2,1.92,2.8,1.9,3,0,.44-4.28.93-8.81,2.9-12.71s5.27-6.37,9.49-7.26,8.78-.25,12.97.71c4.84,1.11,9.61,2.63,14.32,4.18,19.44,6.38,38.18,14.84,57.96,20.19,4.94,1.34,9.94,2.47,15,3.32,2.44.41,4.88.74,7.34,1.02,1.81.2,4.36.34,5.62,1.87s.82,4.58.74,6.51-.26,3.89-.54,5.81c-.56,3.86-1.48,7.66-2.67,11.37-4.91,15.27-14.16,28.72-22.86,42.03-8.83,13.5-17.76,27.4-22.19,43.07-.54,1.9-1,3.82-1.39,5.75s2.38,2.68,2.89.8c7.69-27.95.11-57.27-13.29-82.21-3.45-6.42-7.31-12.61-11.5-18.56-4.05-5.76-8.27-11.79-13.91-16.12-6.1-4.69-13.52-6.09-20.96-7.18-8.36-1.22-16.74-2.35-25.12-3.41-18.98-2.39-38.01-4.37-57.07-5.95-1.52-.13-2,2.1-.76,2.8,20.99,11.82,36.81,32.04,43.71,55.08,1.95,6.51,3.18,13.22,3.62,20l1.5-1.5c-37.46-3.35-75.25-2.31-112.47,3.08-9.36,1.36-18.68,2.99-27.95,4.89-1.04.21-1.53,1.81-.66,2.51,7.5,5.97,15,11.93,22.5,17.9l.66-2.51c-18.14,4.07-36.28,8.14-54.42,12.21-1.03.23-1.27,1.37-.9,2.2,6.74,15.16,15.84,29.22,26.9,41.59,5.17,5.78,10.85,12.08,18.03,15.36,8.4,3.82,17.14,1.51,25.71-.38,37.55-8.28,75.1-16.55,112.65-24.83,21.04-4.64,42.08-9.28,63.11-13.91,1.88-.42,1.09-3.31-.8-2.89h0Z"/>
        <path class="cls-2" d="m969.93,150.99c8.93,2.67,17.42,6.65,25.17,11.85,3.81,2.55,7.27,5.54,10.95,8.26s7.39,4.8,11.78,5.39c3.75.5,8.26-.13,11.07-2.91,1.8-1.78.33-3.71-.9-5.3s-2.57-2.97-4.07-4.25c-6.45-5.5-14.65-8.74-22.4-11.96-9.96-4.13-20.9-7.53-31.68-4.7-1.87.49-1.07,3.38.8,2.89,8.75-2.3,17.71-.05,25.95,3.06,4.01,1.51,7.96,3.24,11.86,5.01,3.43,1.55,6.82,3.23,9.97,5.3,1.6,1.05,3.11,2.22,4.51,3.53.64.61,1.26,1.24,1.85,1.91.25.29.5.58.73.87.25.32.68,1.21,1.01,1.4-.04-.02.43.29.37,0,.01.06-.57.48-.54.46-.3.22-.62.42-.94.6-.86.48-1.78.8-2.74,1.01-1.76.39-3.65.33-5.41-.03-3.99-.81-7.43-3.1-10.6-5.54-3.34-2.57-6.56-5.25-10.06-7.6-7.95-5.33-16.72-9.42-25.89-12.15-1.85-.55-2.65,2.34-.8,2.89h0Z"/>
        <path class="cls-2" d="m1026.7,175.07c20.13-5.58,40.67-9.74,61.41-12.33,24.1-3.02,48.45-3.99,72.71-2.9,11.56.52,23.1,1.51,34.58,2.95.92.12,1.76-1.06,1.45-1.9-2.65-6.99-8.44-11.94-15.22-14.79-7.29-3.06-15.56-3.56-23.38-3.12s-15.74,2.47-23.46,4.55c-6.59,1.78-13.2,3.51-19.81,5.21-9.86,2.53-19.74,4.98-29.63,7.36-1.88.45-1.08,3.34.8,2.89,15.39-3.7,30.74-7.56,46.03-11.65,6.9-1.84,13.76-3.93,20.86-4.87,3.95-.53,7.95-.69,11.93-.54s7.68.48,11.4,1.51c7.46,2.06,14.75,6.76,17.6,14.25l1.45-1.9c-21.81-2.74-43.82-3.83-65.79-3.22-23.96.66-47.87,3.34-71.39,7.95-10.87,2.13-21.65,4.69-32.32,7.65-1.86.52-1.07,3.41.8,2.89h0Z"/>
        <path class="cls-2" d="m1174.35,143.77c.32-2.83-.05-5.81-1.99-8.03-1.19-1.36-2.9-2.2-4.63-2.65-4.39-1.13-9.23-.31-13.57.65-7.74,1.73-15.11,4.78-22.61,7.32-18.99,6.43-38.31,11.89-57.65,17.18-15.3,4.19-30.65,8.21-46.01,12.14-1.87.48-1.08,3.37.8,2.89,24.48-6.27,48.92-12.71,73.17-19.81,8.61-2.52,17.2-5.13,25.72-7.92,6.88-2.25,13.63-4.9,20.54-7.05,4.86-1.51,9.97-2.92,15.1-2.91,1.98,0,4.15.2,5.86,1.29,2.37,1.5,2.55,4.37,2.27,6.91-.22,1.91,2.78,1.9,3,0h0Z"/>
        <path class="cls-2" d="m1168.82,133.42c-.17-4.23-3.59-7.53-7.57-8.53-5.11-1.29-10.66.47-15.57,1.86-10.39,2.93-20.4,7.06-30.81,9.94-20.38,5.65-41.74,7.45-61.67,14.78-10.19,3.75-19.89,8.89-28,16.18-1.44,1.29.69,3.41,2.12,2.12,14.07-12.65,32.71-18.22,50.83-22.09,10.17-2.17,20.43-3.9,30.55-6.31,10.04-2.39,19.67-5.89,29.44-9.14,5.38-1.79,10.91-3.65,16.52-4.54,4.13-.65,10.93.27,11.15,5.72.08,1.92,3.08,1.93,3,0h0Z"/>
        <path class="cls-2" d="m1160.51,124.6c-9.2-8.81-19.46-16.92-30.73-22.94-3.38-1.81-6.79-3.58-10.19-5.36-1.86-.97-3.72-1.94-5.57-2.91-1.06-.55-2.11-1.1-3.17-1.65-1.2-.63-2.09-1.31-3.45-.86-3.8,1.28-7.57,2.65-11.3,4.12-13.32,5.24-25.99,11.77-38.28,19.07-11.93,7.09-23.65,14.52-35.33,22.02-7.49,4.81-14.95,9.66-22.38,14.56-.21.14-.41.27-.62.41-1.6,1.06-.1,3.66,1.51,2.59,9.81-6.49,19.68-12.88,29.6-19.19,14.7-9.37,29.45-18.95,44.98-26.9,10.7-5.48,21.77-10.17,33.17-13.98l-1.16-.15c11.59,6.03,23.42,11.65,34.06,19.29,5.91,4.24,11.46,8.96,16.71,13.99,1.39,1.34,3.52-.78,2.12-2.12h0Z"/>
        <path class="cls-2" d="m1084.08,103.41c15.6-6.63,30.79-14.22,45.45-22.73,4.01-2.33,7.99-4.73,11.92-7.2.8-.5,1.02-1.67.3-2.36-8.99-8.66-20.31-13.85-32.27-17.04-.94-.25-1.92-.58-2.89-.71-1.3-.18-2.28,1.08-3.19,1.87-1.03.88-2.07,1.76-3.11,2.64-4.97,4.22-9.97,8.41-14.98,12.57-18.96,15.74-38.45,30.82-57.46,46.49-12.33,10.17-24.47,20.56-36.43,31.14-1.45,1.28.68,3.4,2.12,2.12,15.05-13.3,30.37-26.31,45.98-38.94,14.41-11.66,29-23.08,43.29-34.87,8.2-6.77,16.35-13.61,24.44-20.51l-1.46.39c12.44,2.67,24.61,8.1,33.84,16.98l.3-2.36c-14.42,9.04-29.4,17.18-44.84,24.35-4.15,1.93-8.33,3.78-12.53,5.57-.75.32-.9,1.41-.54,2.05.44.78,1.31.85,2.05.54h0Z"/>
        <path class="cls-2" d="m1113.12,47.27c-17.9,14.65-35.81,29.31-53.71,43.96-5.07,4.15-10.14,8.3-15.21,12.45-1.49,1.22.64,3.34,2.12,2.12,17.9-14.65,35.81-29.31,53.71-43.96,5.07-4.15,10.14-8.3,15.21-12.45,1.49-1.22-.64-3.34-2.12-2.12h0Z"/>
        <path class="cls-2" d="m1114.58,46.88c-19.4-4.51-39.13-7.61-58.98-9.25-5.2-.43-10.4-.76-15.61-.99-1.93-.09-1.93,2.91,0,3,19.27.86,38.46,3.07,57.41,6.67,5.49,1.04,10.95,2.2,16.39,3.46,1.88.44,2.68-2.46.8-2.89h0Z"/>
        <path class="cls-2" d="m897.88,95.97c11.04.5,21.99,2.46,32.5,5.86,15.99,5.18,30.77,13.86,42.95,25.46,5.94,5.66,11.25,11.96,15.85,18.76,1.08,1.59,3.68.09,2.59-1.51-9.2-13.59-21.13-25.23-35.11-33.86-12.88-7.95-27.33-13.27-42.22-15.88-5.47-.96-11-1.57-16.55-1.82-1.93-.09-1.93,2.91,0,3h0Z"/>
        <path class="cls-2" d="m779.61,121.58c13.38,6.27,26.74,12.66,39.67,19.81,4.88,2.7,9.78,5.48,14.24,8.85,3.89,2.94,7.76,5.9,11.65,8.84.51.38,1.4.21,1.82-.23,11.89-12.75,26.79-22.33,43.17-28.24,10.15-3.66,20.82-5.91,31.61-6.26,12.96-.42,25.93,1.93,37.9,6.92,10.93,4.56,20.9,11.28,29.49,19.41,1.4,1.33,3.53-.79,2.12-2.12-17.5-16.56-40.38-26.78-64.61-27.25-19.76-.38-39.45,5.47-56.51,15.29-9.38,5.4-17.92,12.21-25.3,20.12l1.82-.23c-4.99-3.79-9.87-7.83-15.11-11.28-7.74-5.11-16.07-9.37-24.33-13.56s-17.35-8.56-26.11-12.67c-1.74-.82-3.26,1.77-1.51,2.59h0Z"/>
        <path class="cls-2" d="m849.8,154.89c2.69.77,5.38,1.54,8.07,2.31,1.27.36,2.53.72,3.8,1.09s2.69,1,4,1.11c1.16.1,2.24-1.17,3.11-1.82,1.08-.8,2.18-1.59,3.28-2.36,2.08-1.44,4.2-2.82,6.36-4.13,6.5-3.93,13.37-7.24,20.54-9.75,6.61-2.32,13.55-4.14,20.56-4.63,7.46-.52,14.83.45,22.1,2.07,9.74,2.18,19.08,5.85,27.79,10.72,1.69.94,3.2-1.65,1.51-2.59-13.24-7.39-28.44-12.49-43.68-13.26-13.07-.66-25.99,3-37.84,8.3-8.79,3.94-16.99,9.03-24.6,14.92l1.46-.39c-5.22-1.49-10.45-2.99-15.67-4.48-1.86-.53-2.65,2.36-.8,2.89h0Z"/>
      </g>
    </g>
  </g>
</svg>