<?xml version="1.0" encoding="UTF-8"?>
<svg id="Layer_2" data-name="Layer 2" xmlns="http://www.w3.org/2000/svg" viewBox="0 0 90.54 46.99">
  <defs>
    <style>
      .cls-1 {
        stroke-width: 1.5px;
      }

      .cls-1, .cls-2, .cls-3 {
        fill: none;
        stroke: #f9c9de;
        stroke-miterlimit: 10;
      }

      .cls-2 {
        stroke-width: 2px;
      }
    </style>
  </defs>
  <g id="Layer_1-2" data-name="Layer 1">
    <path class="cls-2" d="m89.12,43.39c-.43-1.35-.1-2.14.12-4.87.35-4.34.53-6.52-.24-7.56-1.18-1.61-3.74-1.1-7.19-.77-3.47.33-7.58.13-15.82-.26-4.07-.19-7.23-.64-13.54-1.54-8.49-1.21-12.82-2.26-14.26,0-.33.52-.02.45-.24,4.49-.08,1.5-.29,4.59-.24,8.46.02,1.35.05,1.77.36,2.18,1.01,1.36,3.53.68,6.35.26,2.89-.43,5.84-.17,8.75-.38,3.21-.23,2.46.05,16.41.51,4.73.16,12.35.38,14.86.64,1.21.13,2.48-.11,3.65.27.31.1.87.31,1.12.04.3-.32.01-1.11-.1-1.46Z"/>
    <path class="cls-2" d="m21.33,36.93c-.14.34-.52,1.23-.41,2.36.14,1.54,1.1,2.61,1.71,3.27,2.23,2.42,5.09,2.82,6.54,3.02,1.68.23,2.65.37,3.47-.28,1.13-.9,1-2.53,1.31-4.86.23-1.74.35-1.21,2.25-7.6.56-1.89,1.54-5.18,2.49-9.01,1.83-7.32,1.11-6.69,2.43-11.22,1.48-5.09,2.81-7.35,1.75-8.67-.63-.79-1.25-.18-4.41-.88-2.37-.53-3.21-1.14-6.31-1.75-2.28-.45-2.68-.3-2.95-.1-1.12.8-.78,2.72-1.08,6.13-.04.48-.37,2.28-1.03,5.89-.29,1.58-1.05,5.6-2.26,10.28-2.27,8.81-3.41,13.22-3.5,13.44Z"/>
    <path class="cls-2" d="m81.58,29.02c2.09-1.94,1.97-7.07-.33-9.52-1.66-1.76-3.91-1.5-8.57-1.31,0,0-3.98.2-18.97.35-6.99.07-11.97-2.86-13.19-.71-.27.48-.07.66-.28,3.95-.22,3.57-.5,4.04-.14,4.71.88,1.62,3.82,1.2,7.29,1.02.42-.02,4.72.17,13.31.56,6.78.31,10.17.46,12.09.72,5.5.74,7.33,1.6,8.79.24Z"/>
    <path class="cls-2" d="m1.04,39.08c-.27-1.21.85-2,2.83-4.82,1.74-2.49,1.1-2.21,4.18-7.41,2.71-4.58,2.83-4.16,4.12-6.74.97-1.94,1.08-2.53,3-6.68,1.91-4.13,2.54-5.13,3.51-5.26.8-.11,1.08.46,3.46,2.24,3.29,2.45,4.31,2.52,4.61,3.72.29,1.17-.46,2.01-2.01,4.57-.47.78-1.73,3.22-4.25,8.09-2.18,4.22-1.65,3.75-3.54,7.31-2.63,4.95-2.79,4.2-4.36,7.56-1.3,2.77-1.61,4.17-2.63,4.33-1.15.18-1.57-1.46-4.15-3.5-2.81-2.23-4.48-2-4.79-3.4Z"/>
    <path class="cls-1" d="m43.19,17.21c.03-.22.06-.58,0-1.03-.02-.2-.08-.52-.25-1.22-.22-.92-.29-1.01,0-1.1.79-.25,2.33.09,5.71.19,1.25.04,1.38,0,4.97-.04.81,0,2.9-.02,7.08-.04,9.09-.04,8.42-.02,9.06-.04,2.27-.05,4.61.13,6.83-.04.29-.02,1.05-.08,1.49.04.52.14.16.42,0,.99-.13.45.08.34,0,1.22-.07.73-.2.68-.12,1.03.09.42.31.56,0,.68-.54.22-1.98.12-3.48.04-2.17-.11-4.39-.12-6.58-.19-3.33-.1-2.99.03-7.45-.04-4.61-.07-4.25-.2-7.32-.19-2.5.01-3.74.1-6.21,0-1.59-.07-2.87-.18-3.72-.27"/>
    <path class="cls-3" d="m28.45,6.55c1.18.36,2.41.7,3.67,1.02,3.5.9,6.84,1.51,9.97,1.92"/>
    <path class="cls-3" d="m20.9,37.5c1.16.43,2.37.84,3.61,1.24,3.45,1.1,6.75,1.91,9.85,2.51"/>
    <path class="cls-3" d="m21.04,35.4c1.18.36,2.41.7,3.67,1.02,3.5.9,6.84,1.51,9.97,1.92"/>
    <path class="cls-3" d="m27.85,4.38c1.34.39,2.72.76,4.14,1.11,3.96.97,7.72,1.63,11.25,2.07"/>
    <path class="cls-1" d="m84.32,29.64c-.12,1.32-.21,2.68-.27,4.08-.17,3.88-.11,7.52.12,10.89"/>
    <path class="cls-1" d="m43.61,27.92c-.17,1.43-.31,2.91-.42,4.42-.3,4.2-.31,8.14-.11,11.78"/>
    <path class="cls-3" d="m16.3,10.37c.84.71,1.71,1.41,2.61,2.09,2.52,1.89,4.99,3.4,7.36,4.59"/>
    <path class="cls-3" d="m15.32,12.54c.84.71,1.71,1.41,2.61,2.09,2.52,1.89,4.99,3.4,7.36,4.59"/>
    <path class="cls-3" d="m2.52,36.03c.84.71,1.71,1.41,2.61,2.09,2.52,1.89,4.99,3.4,7.36,4.59"/>
    <path class="cls-3" d="m3.41,34.16c.84.71,1.71,1.41,2.61,2.09,2.52,1.89,4.99,3.4,7.36,4.59"/>
  </g>
</svg>