<svg width="151" height="93" viewBox="0 0 151 93" fill="none" xmlns="http://www.w3.org/2000/svg">
<path d="M149.297 86.5803C148.579 83.8538 149.13 82.2583 149.498 76.7447C150.083 67.9795 150.384 63.5767 149.097 61.4762C147.124 58.2246 142.845 59.2546 137.078 59.9211C131.278 60.5876 124.408 60.1837 110.634 59.396C103.831 59.0123 98.5489 58.1034 88.0014 56.2858C73.8098 53.842 66.572 51.7214 64.1649 56.2858C63.6133 57.336 64.1315 57.1946 63.7637 65.3539C63.63 68.3834 63.279 74.6241 63.3626 82.4401C63.396 85.1666 63.4461 86.0148 63.9643 86.8429C65.6526 89.5896 69.8649 88.2162 74.5787 87.368C79.4095 86.4995 84.3406 87.0246 89.2049 86.6005C94.5706 86.136 93.3169 86.7015 116.635 87.6305C124.542 87.9537 137.279 88.398 141.475 88.9231C143.497 89.1856 145.62 88.7009 147.576 89.4684C148.094 89.6704 149.03 90.0945 149.448 89.5492C149.949 88.9029 149.465 87.3074 149.281 86.6005L149.297 86.5803Z" stroke="#F9C9DE" stroke-width="2" stroke-miterlimit="10"/>
<path d="M35.9827 73.5335C35.7487 74.2201 35.1135 76.0176 35.2973 78.2998C35.5314 81.41 37.1361 83.5711 38.1557 84.904C41.8833 89.7915 46.664 90.5994 49.0877 91.0033C51.8959 91.4678 53.5174 91.7506 54.888 90.4378C56.7769 88.6201 56.5596 85.3281 57.0778 80.6224C57.4622 77.1082 57.6628 78.1786 60.8388 65.2731C61.7749 61.456 63.413 54.8114 65.001 47.0762C68.0599 32.2925 66.8564 33.5648 69.0629 24.4159C71.5368 14.1359 73.7599 9.57155 71.9881 6.90563C70.935 5.31012 69.8986 6.5421 64.6165 5.12835C60.6549 4.05795 59.2508 2.82597 54.069 1.59399C50.2578 0.685152 49.5892 0.988098 49.1379 1.39203C47.2657 3.00773 47.8341 6.88544 47.3326 13.7724C47.2657 14.7418 46.7141 18.3772 45.6109 25.6681C45.1261 28.8591 43.8557 36.978 41.8331 46.4299C38.0387 64.2229 36.1331 73.1295 35.9827 73.5739V73.5335Z" stroke="#F9C9DE" stroke-width="2" stroke-miterlimit="10"/>
<path d="M136.694 57.5581C140.187 53.64 139.987 43.2793 136.142 38.3312C133.367 34.7766 129.606 35.3017 121.817 35.6855C121.817 35.6855 115.164 36.0894 90.1074 36.3923C78.4232 36.5337 70.0988 30.6162 68.0595 34.9584C67.6082 35.9278 67.9425 36.2914 67.5915 42.936C67.2238 50.1461 66.7557 51.0953 67.3575 52.4484C68.8285 55.7203 73.7428 54.872 79.5432 54.5085C80.2452 54.4681 87.4329 54.8518 101.792 55.6395C113.125 56.2656 118.791 56.5685 122.001 57.0936C131.194 58.5881 134.253 60.325 136.694 57.5783V57.5581Z" stroke="#F9C9DE" stroke-width="2" stroke-miterlimit="10"/>
<path d="M2.06659 77.8757C1.61526 75.4319 3.48741 73.8364 6.7971 68.141C9.70561 63.1121 8.63582 63.6776 13.7842 53.1755C18.3141 43.9256 18.5147 44.7738 20.671 39.5632C22.2925 35.6451 22.4763 34.4535 25.6857 26.072C28.8784 17.7309 29.9315 15.7113 31.5529 15.4487C32.8902 15.2265 33.3582 16.3777 37.3365 19.9727C42.8359 24.9208 44.5409 25.0622 45.0424 27.4857C45.5271 29.8487 44.2735 31.5452 41.6826 36.7155C40.8969 38.2908 38.7908 43.2187 34.5784 53.0543C30.9344 61.5772 31.8204 60.628 28.6611 67.8179C24.2649 77.8151 23.9975 76.3004 21.3731 83.0863C19.2001 88.6807 18.6819 91.5082 16.9769 91.8314C15.0546 92.1949 14.3526 88.8827 10.0399 84.7626C5.34284 80.2589 2.55134 80.7234 2.03315 77.8959L2.06659 77.8757Z" stroke="#F9C9DE" stroke-width="2" stroke-miterlimit="10"/>
<path d="M72.5228 33.7062C72.5729 33.2619 72.6231 32.5348 72.5228 31.626C72.4893 31.2221 72.389 30.5758 72.1049 29.162C71.7371 27.304 71.6201 27.1222 72.1049 26.9404C73.4254 26.4355 75.9996 27.1222 81.6495 27.3242C83.7389 27.4049 83.9562 27.3242 89.9571 27.2434C91.3111 27.2434 94.8047 27.203 101.792 27.1626C116.986 27.0818 115.866 27.1222 116.936 27.0818C120.731 26.9808 124.642 27.3444 128.353 27.001C128.838 26.9606 130.108 26.8395 130.843 27.0818C131.713 27.3646 131.111 27.9301 130.843 29.0812C130.626 29.9901 130.977 29.7679 130.843 31.5452C130.726 33.0195 130.509 32.9186 130.643 33.6254C130.793 34.4737 131.161 34.7564 130.643 34.9988C129.74 35.4431 127.333 35.2411 124.826 35.0796C121.199 34.8574 117.488 34.8372 113.827 34.6958C108.261 34.4939 108.829 34.7564 101.374 34.6151C93.668 34.4737 94.2698 34.2111 89.1381 34.2313C84.9592 34.2515 82.8864 34.4333 78.7577 34.2313C76.0999 34.0899 73.9603 33.8678 72.5395 33.686" stroke="#F9C9DE" stroke-width="1.5" stroke-miterlimit="10"/>
<path d="M47.8843 12.1769C49.8567 12.904 51.9127 13.5906 54.0189 14.2369C59.8694 16.0546 65.4524 17.2866 70.6844 18.1146" stroke="#F9C9DE" stroke-miterlimit="10"/>
<path d="M35.2639 74.6847C37.2029 75.5531 39.2255 76.3812 41.2982 77.189C47.0651 79.4106 52.5813 81.0465 57.7631 82.2583" stroke="#F9C9DE" stroke-miterlimit="10"/>
<path d="M35.498 70.4434C37.4705 71.1705 39.5265 71.8572 41.6327 72.5034C47.4831 74.3211 53.0661 75.5531 58.2981 76.3812" stroke="#F9C9DE" stroke-miterlimit="10"/>
<path d="M46.8813 7.79427C49.1212 8.58193 51.428 9.3292 53.8016 10.0361C60.421 11.9951 66.7061 13.3281 72.6067 14.2167" stroke="#F9C9DE" stroke-miterlimit="10"/>
<path d="M141.274 58.8103C141.074 61.4762 140.923 64.2229 140.823 67.0504C140.539 74.8866 140.639 82.2381 141.023 89.0443" stroke="#F9C9DE" stroke-width="1.5" stroke-miterlimit="10"/>
<path d="M73.225 55.3365C72.9408 58.2246 72.7068 61.2137 72.5229 64.2633C72.0215 72.7458 72.0048 80.7032 72.3391 88.0546" stroke="#F9C9DE" stroke-width="1.5" stroke-miterlimit="10"/>
<path d="M27.5747 19.8919C28.9788 21.3258 30.4331 22.7396 31.9375 24.1129C36.1498 27.9301 40.2786 30.9797 44.2402 33.3831" stroke="#F9C9DE" stroke-miterlimit="10"/>
<path d="M25.9365 24.2745C27.3406 25.7085 28.7949 27.1222 30.2993 28.4956C34.5116 32.3127 38.6404 35.3623 42.602 37.7657" stroke="#F9C9DE" stroke-miterlimit="10"/>
<path d="M4.54028 71.7158C5.94439 73.1497 7.39865 74.5635 8.90305 75.9368C13.1154 79.7539 17.2441 82.8036 21.2057 85.207" stroke="#F9C9DE" stroke-miterlimit="10"/>
<path d="M6.02808 67.9391C7.43219 69.373 8.88644 70.7868 10.3908 72.1601C14.6032 75.9772 18.7319 79.0269 22.6935 81.4302" stroke="#F9C9DE" stroke-miterlimit="10"/>
</svg>
