<?xml version="1.0" encoding="UTF-8"?>
<svg id="Layer_2" data-name="Layer 2" xmlns="http://www.w3.org/2000/svg" viewBox="0 0 32 27">
  <defs>
    <style>
      .cls-1 {
        fill: #12233f;
      }

      .cls-1, .cls-2 {
        stroke: #e8dcb0;
        stroke-miterlimit: 10;
      }

      .cls-2 {
        fill: none;
      }
    </style>
  </defs>
  <g id="Layer_1-2" data-name="Layer 1">
    <path class="cls-1" d="m2.01,20h28.54c.14.24.32.6.49,1.09.16.48.67,1.95.37,3.38-.22,1.04-.85,2.02-.85,2.02,0,0-5.08-.03-9.68-.06-9.1-.07-8.99-.09-10.96-.07-3.24.03-7.91.13-7.91.13-.91-.52-1.52-1.83-1.51-3.27,0-1.43.61-2.72,1.51-3.23h0Z"/>
    <path class="cls-1" d="m2.01,10.25h28.54c.14.24.32.61.49,1.09.16.48.67,1.95.37,3.38-.22,1.04-.85,2.02-.85,2.02,0,0-5.08-.03-9.68-.06-9.1-.07-8.99-.09-10.96-.07-3.24.03-7.91.13-7.91.13-.91-.52-1.52-1.83-1.51-3.27,0-1.43.61-2.72,1.51-3.23h0Z"/>
    <path class="cls-1" d="m29.99.5H1.45c-.14.24-.32.61-.49,1.09-.16.48-.67,1.95-.37,3.39.22,1.04.85,2.02.85,2.02,0,0,5.07-.03,9.68-.06,9.1-.07,8.99-.09,10.96-.07,3.24.03,7.91.13,7.91.13.91-.52,1.52-1.83,1.51-3.27,0-1.43-.61-2.72-1.51-3.23h0Z"/>
    <path class="cls-2" d="m26.75,20.13c.13.51.29,1.29.36,2.29.09,1.29-.03,2.31-.09,2.75-.07.5-.15.9-.23,1.19"/>
    <path class="cls-2" d="m28.07,20.13c.13.51.29,1.29.36,2.29.09,1.29-.03,2.31-.09,2.75-.07.5-.15.9-.23,1.19"/>
    <path class="cls-2" d="m26.75,10.38c.13.51.29,1.29.36,2.29.09,1.29-.03,2.31-.09,2.75-.07.5-.15.9-.23,1.19"/>
    <path class="cls-2" d="m28.07,10.38c.13.51.29,1.29.36,2.29.09,1.29-.03,2.31-.09,2.75-.07.5-.15.9-.23,1.19"/>
    <path class="cls-2" d="m26.75.76c.13.51.29,1.29.36,2.29.09,1.29-.03,2.31-.09,2.75-.07.5-.15.9-.23,1.19"/>
    <path class="cls-2" d="m28.07.76c.13.51.29,1.29.36,2.29.09,1.29-.03,2.31-.09,2.75-.07.5-.15.9-.23,1.19"/>
    <path class="cls-2" d="m3.47.76c-.18.51-.4,1.29-.49,2.29-.12,1.29.04,2.31.12,2.75.09.5.21.9.3,1.19"/>
    <path class="cls-2" d="m3.47,10.38c-.18.51-.4,1.29-.49,2.29-.12,1.29.04,2.31.12,2.75.09.5.21.9.3,1.19"/>
    <path class="cls-2" d="m3.47,20.26c-.18.51-.4,1.29-.49,2.29-.12,1.29.04,2.31.12,2.75.09.5.21.9.3,1.19"/>
  </g>
</svg>