<?xml version="1.0" encoding="UTF-8"?>
<svg id="Layer_2" data-name="Layer 2" xmlns="http://www.w3.org/2000/svg" viewBox="0 0 24.08 79.88">
  <defs>
    <style>
      .cls-1 {
        fill: #f9cadf;
      }

      .cls-1, .cls-2 {
        stroke-width: 2px;
      }

      .cls-1, .cls-2, .cls-3 {
        stroke: #f9c9de;
        stroke-miterlimit: 10;
      }

      .cls-2, .cls-3 {
        fill: none;
      }
    </style>
  </defs>
  <g id="Layer_1-2" data-name="Layer 1">
    <g>
      <path class="cls-2" d="m22.64,52.26c.09,2.51-.14,3.68-.39,6.56-.27,3.22-.76,11.07-.96,14.65-.1,1.65-.18,3.25-1.35,4.24-1.07.91-2.21.6-5.01.58-6.09-.04-7.4,1.35-9.83,0-1.62-.9-2.43-2.29-2.89-3.08-1.38-2.37-1.23-4.47-1.16-9.45.09-6.56-.15-4.92,0-8.68.16-3.9.47-6.96.96-11.76.76-7.43,1-7.37.77-9.06-.24-1.74-.71-3.35,0-5.4.66-1.89,1.98-3.16,2.31-3.47,1.69-1.56,2.6-1.17,3.86-2.51,1.06-1.13,1.31-2.38,1.74-4.43.53-2.59.46-4.79.39-6.56-.1-2.49-.4-3.83.19-5.98.4-1.47.86-2,1.35-2.31,1.22-.77,3.18-.45,3.86.58.47.71.09,1.41-.19,3.47-.15,1.13-.02.82-.19,4.05-.23,4.39-.51,5.71-.39,8.68.04.91.11,1.99.58,3.28.3.82.66,1.82,1.54,2.7,1.36,1.35,2.47.93,3.66,2.12.83.83,1.06,1.8,1.35,3.08.46,2.07.19,3.23-.19,7.33-.28,2.97-.42,4.46-.39,6.17.04,2.41.3,2.9.39,5.21Z"/>
      <path class="cls-2" d="m10.8,9.69c1.83.05,3.65.1,5.48.16"/>
      <path class="cls-1" d="m15.88,5.93c.05-.52.12-1.17.2-1.99.17-1.74.27-1.82.14-2.09-.47-.98-2.31-1.18-3.02-.23-.21.28-.14.42-.32,2.21-.09.87-.17,1.52-.21,2.15,1.07-.05,2.14-.05,3.21-.04Z"/>
      <path class="cls-3" d="m7.22,36.02c.24,1.3-.16,2.65,0,3.97.18,1.47.08,3.76-.1,8.35-.24,5.89-.68,8.74-1.04,10.54q-.46,2.31-1.25,5.53c-.04.16.29.42,1.67,1.36,1.66,1.12,2.44,1.74,3.13,1.88.93.18,1.04-.18,3.86-.84,2.25-.52,3.05-.21,3.03-.84-.06-1.74.08-2.25,0-4.7-.04-1.1.17-3.62.73-8.66.26-2.35.3-2.4.63-5.32.3-2.66.45-4.02.52-5.32.25-4.26.77-5.64,0-6.16-.31-.21-.47-.06-2.48.07-.62.04-1.86.12-3.12.11-2.04-.02-3.07-.02-3.82-.28-.63-.21-1.37-.57-1.66-.27-.17.17-.1.48-.08.58Z"/>
      <path class="cls-3" d="m10.18,38.87c.2.47.48,1.21.74,2.13.66,2.37.59,3.98.91,4.01.26.02.47-.97.96-2.26.62-1.64,1.37-2.91,1.96-3.79"/>
      <path class="cls-3" d="m11.75,47.57c0,.29,0,.73,0,1.26-.01.87-.05,1.45-.13,2.83-.03.47-.07,1.26-.13,2.26"/>
      <path class="cls-3" d="m14.54,47.49c-.69.04-1.22.07-1.52.09-1.38.08-1.94.12-2.74,0-.28-.04-.51-.09-.65-.13"/>
      <path class="cls-3" d="m14.08,53.5c-.69.04-1.22.07-1.52.09-1.38.08-1.94.12-2.74,0-.28-.04-.51-.09-.65-.13"/>
      <path class="cls-3" d="m8.05,62.59c.23-.61.54-1.54.74-2.7.33-1.91.15-3.29.35-3.31.16-.02.37.89.91,2.79.92,3.16,1.12,3.31,1.26,3.31.58,0,1.09-2.58,1.26-3.74.15-1.01.18-1.86.17-2.44"/>
    </g>
  </g>
</svg>