<?xml version="1.0" encoding="UTF-8"?>
<svg id="Layer_2" data-name="Layer 2" xmlns="http://www.w3.org/2000/svg" viewBox="0 0 247.01 286.21">
  <defs>
    <style>
      .cls-1, .cls-2, .cls-3, .cls-4, .cls-5 {
        stroke: #f2cbdd;
        stroke-miterlimit: 10;
      }

      .cls-1, .cls-2, .cls-6 {
        fill: #12233f;
      }

      .cls-1, .cls-5 {
        stroke-width: .5px;
      }

      .cls-3 {
        stroke-width: 2px;
      }

      .cls-3, .cls-4, .cls-5 {
        fill: none;
      }

      .cls-6 {
        stroke-width: 0px;
      }
    </style>
  </defs>
  <g id="Layer_1-2" data-name="Layer 1">
    <path class="cls-3" d="m68,122c26.11-6.98,47.06-6.41,47.06-6.41,37.56.98,54.83.31,79.32,6.41,8.2,2.05,17.29,4.89,17.48,8.99.02.74-.34,1.44-.59,1.96-1.78,3.64-6.28,5.02-8.11,5.54-32.95,9.51-47.2,10.32-47.2,10.32-8.48.41-19.99.15-43.02-.37-6.58-.15-18.23-.48-31.51-3.4-8.64-1.92-2.31-1.46-20.26-8.23-1.74-.65-5.16-1.92-5.55-4.3-.09-.57-.16-2.01,2.51-4.67,4.23-4.25,9.44-5.72,9.89-5.83l-.02-.02Z"/>
    <path class="cls-3" d="m55.48,133.65c-.18.31-.41.79-.64,1.38-.48,1.33-.53,2.31-.62,3.4-.3,3.58-.75,3.47-.57,4.84,0,0,.23,1.75,1.53,3.62,5.89,8.6,31.16,11.43,31.16,11.43,10.44,1.18,20.4,2.09,29.88,2.86,4.93.39,7.4.59,10.78.79,10.94.63,22.21,1.27,36.12,0,12.06-1.11,20.49-3.14,27.76-4.91,16.24-3.93,8.13-4.06,19.19-7.07,1.26-.35,3.61-.96,4.75-2.9.64-1.07.5-2.46-1.71-9.08-.62-1.85-1.16-3.38-1.55-4.47"/>
    <path class="cls-3" d="m63.59,154c.23,3.6.62,9.25,1.17,16.17.8,9.99,1.33,14.36,2.49,26.97,1.42,15.29,1.07,13.33,2.06,23.37,2.28,23.39,2.92,21.36,2.99,28.78.11,13.92-2.17,17.85.96,23.35,2.65,4.67,7.29,7.09,15.7,9.4,15.47,4.25,25.61,3.23,50.03,2.55,22.37-.61,30.07-.2,34.91-6.83,1.74-2.36,2.95-6.3,5.39-14.2,2.42-7.81,3.31-12.9,5.03-20.79,1.1-5.04,2.6-11.08,5.64-23.17,5.23-20.84,6.42-22.84,9.3-35.02,1.76-7.46,4.02-18.2,5.9-31.53"/>
    <path class="cls-6" d="m118.63,139.06c1.83-4.82,4.87-14.97,2.1-27.1-.98-4.3-4.71-20.68-16.82-25.09-11.58-4.21-24.22,4.91-25.22,3.01-.73-1.37,5.37-7.03,13.23-8.86,10.72-2.49,19.35,3.45,20.33,4.12,6.37,4.52,8.66,10.89,10.37,15.69,2.95,8.2,2.15,13.92,3.45,14.05,1.62.13,4.2-8.4,5.19-16.52,1.6-13.18-1.3-23.24-2.17-26.03-2.72-8.81-5.05-16.32-12.11-20.66-4.2-2.57-5.78-1.37-16.43-4.12-11.22-2.9-20.56-7.09-20.33-7.85.23-.7,8.18,2.73,21.2,3.29,7.7.35,10.26-.61,15.15,1.24,5.8,2.2,9.21,6.22,11.24,8.68,1.28,1.55,5.64,7.09,8.23,19.42,2.72,13.09.89,21.73,2.17,21.88.64.09,1.78-2.05,7.36-22.3,3.72-13.53,3.38-13.2,4.75-17.35,3.54-10.71,6.12-18.59,12.54-26.03,8.34-9.67,19.6-14.51,20.33-13.64.57.68-5.41,4.43-12.11,12.81-9.16,11.43-13.09,23.26-15.58,30.98-3.2,9.93-1.85,10.3-5.19,18.59-3.93,9.75-8,14.73-6.06,16.93,1.6,1.81,5.57-.07,12.98-1.66,8.27-1.77,21.48-4.58,32.88.41,7.97,3.49,12.32,9.62,14.28,12.39,5.99,8.46,7.38,17.85,6.49,18.17-.78.28-2.79-6.44-9.94-14.46-3.68-4.12-7.33-8.2-13.41-10.73-6.35-2.66-11.81-2.16-22.05-1.24-7.95.72-12.89,1.22-18.16,4.54-4.5,2.84-6.92,6.24-8.66,8.68-2.24,3.16-6.58,9.45-6.49,18.17.05,4.87,1.46,8.75,2.6,11.15"/>
    <path class="cls-4" d="m118.63,139.06c1.83-4.82,4.87-14.97,2.1-27.1-.98-4.3-4.71-20.68-16.82-25.09-11.58-4.21-24.22,4.91-25.22,3.01-.73-1.37,5.37-7.03,13.23-8.86,10.72-2.49,19.35,3.45,20.33,4.12,6.37,4.52,8.66,10.89,10.37,15.69,2.95,8.2,2.15,13.92,3.45,14.05,1.62.13,4.2-8.4,5.19-16.52,1.6-13.18-1.3-23.24-2.17-26.03-2.72-8.81-5.05-16.32-12.11-20.66-4.2-2.57-5.78-1.37-16.43-4.12-11.22-2.9-20.56-7.09-20.33-7.85.23-.7,8.18,2.73,21.2,3.29,7.7.35,10.26-.61,15.15,1.24,5.8,2.2,9.21,6.22,11.24,8.68,1.28,1.55,5.64,7.09,8.23,19.42,2.72,13.09.89,21.73,2.17,21.88.64.09,1.78-2.05,7.36-22.3,3.72-13.53,3.38-13.2,4.75-17.35,3.54-10.71,6.12-18.59,12.54-26.03,8.34-9.67,19.6-14.51,20.33-13.64.57.68-5.41,4.43-12.11,12.81-9.16,11.43-13.09,23.26-15.58,30.98-3.2,9.93-1.85,10.3-5.19,18.59-3.93,9.75-8,14.73-6.06,16.93,1.6,1.81,5.57-.07,12.98-1.66,8.27-1.77,21.48-4.58,32.88.41,7.97,3.49,12.32,9.62,14.28,12.39,5.99,8.46,7.38,17.85,6.49,18.17-.78.28-2.79-6.44-9.94-14.46-3.68-4.12-7.33-8.2-13.41-10.73-6.35-2.66-11.81-2.16-22.05-1.24-7.95.72-12.89,1.22-18.16,4.54-4.5,2.84-6.92,6.24-8.66,8.68-2.24,3.16-6.58,9.45-6.49,18.17.05,4.87,1.46,8.75,2.6,11.15"/>
    <path class="cls-1" d="m147.39,5.31c-6.58,2.03-9.89,3.03-12.77,5.43-3.82,3.16-6.58,9.05-11.93,20.71-7.88,17.17-8.27,18.09-7.65,19.22,3.45,6.44,26.68-3.25,40.85-15.77,5.05-4.47,7.95-8.42,7.65-12.81-.23-3.56-2.54-7.4-5.53-8.38-4.43-1.46-9.41,3.64-9.78,2.97-.3-.52,3.27-2.73,3.86-6.87.07-.41.43-2.97-.8-4.21-1.07-1.09-2.88-.59-3.91-.26v-.02Z"/>
    <path class="cls-6" d="m142.96,8.78c.53.83,1.21,2.16,1.65,3.97.57,2.47.32,4.56.11,5.65"/>
    <path class="cls-5" d="m142.96,8.78c.53.83,1.21,2.16,1.65,3.97.57,2.47.32,4.56.11,5.65"/>
    <path class="cls-6" d="m139.21,10.81c.69.92,1.67,2.38,2.44,4.28,1.05,2.6,1.19,4.71,1.19,5.83"/>
    <path class="cls-5" d="m139.21,10.81c.69.92,1.67,2.38,2.44,4.28,1.05,2.6,1.19,4.71,1.19,5.83"/>
    <path class="cls-6" d="m135.85,13.52c.75.85,1.8,2.23,2.7,4.06,1.21,2.51,1.49,4.6,1.55,5.72"/>
    <path class="cls-5" d="m135.85,13.52c.75.85,1.8,2.23,2.7,4.06,1.21,2.51,1.49,4.6,1.55,5.72"/>
    <path class="cls-6" d="m131.83,18.4c.85.74,2.06,1.94,3.13,3.62,1.49,2.31,1.99,4.34,2.19,5.43"/>
    <path class="cls-5" d="m131.83,18.4c.85.74,2.06,1.94,3.13,3.62,1.49,2.31,1.99,4.34,2.19,5.43"/>
    <path class="cls-6" d="m129.68,22.35c.75.65,1.87,1.75,2.88,3.27,1.37,2.07,1.87,3.86,2.06,4.84"/>
    <path class="cls-5" d="m129.68,22.35c.75.65,1.87,1.75,2.88,3.27,1.37,2.07,1.87,3.86,2.06,4.84"/>
    <path class="cls-6" d="m127.19,25.36c.75.65,1.87,1.75,2.88,3.27,1.37,2.07,1.87,3.86,2.06,4.84"/>
    <path class="cls-5" d="m127.19,25.36c.75.65,1.87,1.75,2.88,3.27,1.37,2.07,1.87,3.86,2.06,4.84"/>
    <path class="cls-6" d="m124.64,30.34c.59.52,1.46,1.35,2.26,2.53,1.1,1.59,1.49,2.97,1.64,3.71"/>
    <path class="cls-5" d="m124.64,30.34c.59.52,1.46,1.35,2.26,2.53,1.1,1.59,1.49,2.97,1.64,3.71"/>
    <path class="cls-6" d="m122.92,34.42c.46.41,1.12,1.11,1.69,2.12.78,1.37.98,2.64,1.05,3.32"/>
    <path class="cls-5" d="m122.92,34.42c.46.41,1.12,1.11,1.69,2.12.78,1.37.98,2.64,1.05,3.32"/>
    <path class="cls-6" d="m120.36,39.96c.27.41.66,1.11.87,2.12.3,1.35.11,2.57,0,3.23"/>
    <path class="cls-5" d="m120.36,39.96c.27.41.66,1.11.87,2.12.3,1.35.11,2.57,0,3.23"/>
    <path class="cls-6" d="m146.84,21.98c.98-.46,2.42-.96,4.2-1.05,3.31-.13,5.8,1.33,6.9,2.09"/>
    <path class="cls-5" d="m146.84,21.98c.98-.46,2.42-.96,4.2-1.05,3.31-.13,5.8,1.33,6.9,2.09"/>
    <path class="cls-6" d="m142.84,26.41c.98-.46,2.42-.96,4.2-1.05,3.31-.13,5.8,1.33,6.9,2.09"/>
    <path class="cls-5" d="m142.84,26.41c.98-.46,2.42-.96,4.2-1.05,3.31-.13,5.8,1.33,6.9,2.09"/>
    <path class="cls-6" d="m137.98,31.28c.98-.46,2.42-.96,4.2-1.05,3.31-.13,5.8,1.33,6.9,2.09"/>
    <path class="cls-5" d="m137.98,31.28c.98-.46,2.42-.96,4.2-1.05,3.31-.13,5.8,1.33,6.9,2.09"/>
    <path class="cls-6" d="m133.66,35.46c.98-.46,2.42-.96,4.2-1.05,3.31-.13,5.8,1.33,6.9,2.09"/>
    <path class="cls-5" d="m133.66,35.46c.98-.46,2.42-.96,4.2-1.05,3.31-.13,5.8,1.33,6.9,2.09"/>
    <path class="cls-6" d="m129.3,39.92c.8-.13,1.97-.24,3.34-.04,2.58.37,4.39,1.61,5.19,2.23"/>
    <path class="cls-5" d="m129.3,39.92c.8-.13,1.97-.24,3.34-.04,2.58.37,4.39,1.61,5.19,2.23"/>
    <path class="cls-6" d="m125.02,42.8c.8-.13,1.97-.24,3.34-.04,2.58.37,4.39,1.61,5.19,2.23"/>
    <path class="cls-5" d="m125.02,42.8c.8-.13,1.97-.24,3.34-.04,2.58.37,4.39,1.61,5.19,2.23"/>
    <path class="cls-6" d="m122.19,46.94c.53-.04,1.3-.07,2.22.07,1.71.26,2.95.96,3.49,1.29"/>
    <path class="cls-5" d="m122.19,46.94c.53-.04,1.3-.07,2.22.07,1.71.26,2.95.96,3.49,1.29"/>
    <path class="cls-6" d="m90.87,97.32c-2.51-2.92-6.92-7.27-13.53-10.41-2.1-1-16.08-7.4-31.73-1.22-11.08,4.36-16.95,12.65-20.56,17.76-8.7,12.28-10.67,24.89-11.74,32.47-.41,2.92-.3,14.64,0,37.96.18,15.64.3,21.73-3.52,28.78-4.32,7.99-10.49,11.35-9.41,13.46,1.3,2.55,11.58.37,19.99-3.67,15.97-7.7,24.47-21.91,25.27-23.28,6.67-11.43,5.53-18.48,14.69-27.56,2.24-2.23,4.43-3.73,8.82-6.74,20.4-14.01,28.47-12.7,33.49-21.43,4.04-7.03,4.04-16.95,0-23.89-7.36-12.57-25.41-10.67-27.62-10.41-11.79,1.42-19.33,9.01-21.75,11.63"/>
    <path class="cls-5" d="m90.87,97.32c-2.51-2.92-6.92-7.27-13.53-10.41-2.1-1-16.08-7.4-31.73-1.22-11.08,4.36-16.95,12.65-20.56,17.76-8.7,12.28-10.67,24.89-11.74,32.47-.41,2.92-.3,14.64,0,37.96.18,15.64.3,21.73-3.52,28.78-4.32,7.99-10.49,11.35-9.41,13.46,1.3,2.55,11.58.37,19.99-3.67,15.97-7.7,24.47-21.91,25.27-23.28,6.67-11.43,5.53-18.48,14.69-27.56,2.24-2.23,4.43-3.73,8.82-6.74,20.4-14.01,28.47-12.7,33.49-21.43,4.04-7.03,4.04-16.95,0-23.89-7.36-12.57-25.41-10.67-27.62-10.41-11.79,1.42-19.33,9.01-21.75,11.63"/>
    <path class="cls-6" d="m88.68,103.23c.41,1.2.91,2.92,1.26,5.04.73,4.45.32,7.96,0,10.65-.21,1.66-.71,5.13-2.15,9.34-.82,2.44-1.74,4.45-2.51,5.98"/>
    <path class="cls-5" d="m88.68,103.23c.41,1.2.91,2.92,1.26,5.04.73,4.45.32,7.96,0,10.65-.21,1.66-.71,5.13-2.15,9.34-.82,2.44-1.74,4.45-2.51,5.98"/>
    <path class="cls-6" d="m78.65,104.37c-.14,1.51-.39,4.01-.89,7.09-.8,4.84-1.35,6-1.96,10.45-.46,3.21-.59,5.72-.71,8.03-.21,3.47-.21,6.46-.18,8.77"/>
    <path class="cls-5" d="m78.65,104.37c-.14,1.51-.39,4.01-.89,7.09-.8,4.84-1.35,6-1.96,10.45-.46,3.21-.59,5.72-.71,8.03-.21,3.47-.21,6.46-.18,8.77"/>
    <path class="cls-6" d="m63.04,111.26c-.71,1.75-1.67,4.36-2.33,7.66-.82,4.06-.78,7.24-.71,13.64.05,4.87.32,8.79.55,11.96.18,2.66.39,4.91.55,6.54"/>
    <path class="cls-5" d="m63.04,111.26c-.71,1.75-1.67,4.36-2.33,7.66-.82,4.06-.78,7.24-.71,13.64.05,4.87.32,8.79.55,11.96.18,2.66.39,4.91.55,6.54"/>
    <path class="cls-6" d="m50.54,120.66c-1.64,5.56-2.26,10.28-2.51,13.64-.14,1.7-.09,4.76,0,10.82.07,5.43.23,8.88.89,13.07.21,1.26.39,2.29.55,2.99"/>
    <path class="cls-5" d="m50.54,120.66c-1.64,5.56-2.26,10.28-2.51,13.64-.14,1.7-.09,4.76,0,10.82.07,5.43.23,8.88.89,13.07.21,1.26.39,2.29.55,2.99"/>
    <path class="cls-6" d="m78.1,94.29c-.32-1.24-.87-2.81-1.78-4.47-.66-1.18-1.37-2.16-2.01-2.92"/>
    <path class="cls-5" d="m78.1,94.29c-.32-1.24-.87-2.81-1.78-4.47-.66-1.18-1.37-2.16-2.01-2.92"/>
    <path class="cls-6" d="m70.79,95.03c-.78-1.85-2.03-4.3-4.11-6.72-1.33-1.57-2.22-2.47-3.2-3.12-1.07-.74-2.08-1.18-2.81-1.42"/>
    <path class="cls-5" d="m70.79,95.03c-.78-1.85-2.03-4.3-4.11-6.72-1.33-1.57-2.22-2.47-3.2-3.12-1.07-.74-2.08-1.18-2.81-1.42"/>
    <path class="cls-6" d="m63.57,98.61c-1.37-2.14-3.63-4.93-7.29-7.7-2.38-1.79-3.95-2.81-5.67-3.58-1.92-.85-3.7-1.33-4.98-1.64"/>
    <path class="cls-5" d="m63.57,98.61c-1.37-2.14-3.63-4.93-7.29-7.7-2.38-1.79-3.95-2.81-5.67-3.58-1.92-.85-3.7-1.33-4.98-1.64"/>
    <path class="cls-6" d="m56.99,101.92c-1.94-2.05-4.93-4.65-9.44-6.87-2.9-1.44-4.8-2.2-6.76-2.66-2.22-.48-4.2-.61-5.6-.65"/>
    <path class="cls-5" d="m56.99,101.92c-1.94-2.05-4.93-4.65-9.44-6.87-2.9-1.44-4.8-2.2-6.76-2.66-2.22-.48-4.2-.61-5.6-.65"/>
    <path class="cls-6" d="m51.64,105.96c-2.4-1.66-5.99-3.6-11.06-4.86-3.27-.81-5.37-1.18-7.49-1.18-2.38,0-4.46.31-5.89.59"/>
    <path class="cls-5" d="m51.64,105.96c-2.4-1.66-5.99-3.6-11.06-4.86-3.27-.81-5.37-1.18-7.49-1.18-2.38,0-4.46.31-5.89.59"/>
    <path class="cls-6" d="m48.1,109.58c-3.34-.2-7.52-.13-12.27.72-4.55.81-7.97,2.01-9.53,2.6-2.17.83-3.98,1.68-5.35,2.38"/>
    <path class="cls-5" d="m48.1,109.58c-3.34-.2-7.52-.13-12.27.72-4.55.81-7.97,2.01-9.53,2.6-2.17.83-3.98,1.68-5.35,2.38"/>
    <path class="cls-6" d="m45.04,114.23c-4.43,3.73-8.54,6.17-11.58,7.75-4.14,2.14-7.33,3.16-8.11,3.4-3.06.96-5.78,1.48-7.88,1.77"/>
    <path class="cls-5" d="m45.04,114.23c-4.43,3.73-8.54,6.17-11.58,7.75-4.14,2.14-7.33,3.16-8.11,3.4-3.06.96-5.78,1.48-7.88,1.77"/>
    <path class="cls-6" d="m40.2,148.94c-.11,1.35-.16,3.21,0,5.39.27,3.64,1.05,6.33,1.69,8.44.78,2.64,2.06,6.15,4.16,10.08"/>
    <path class="cls-5" d="m40.2,148.94c-.11,1.35-.16,3.21,0,5.39.27,3.64,1.05,6.33,1.69,8.44.78,2.64,2.06,6.15,4.16,10.08"/>
    <path class="cls-6" d="m32.88,161.7c-.25,1.72-.48,4.28,0,7.27.46,2.86,1.3,4.76,3.04,8.68.96,2.16,2.54,5.76,4.62,10.56"/>
    <path class="cls-5" d="m32.88,161.7c-.25,1.72-.48,4.28,0,7.27.46,2.86,1.3,4.76,3.04,8.68.96,2.16,2.54,5.76,4.62,10.56"/>
    <path class="cls-6" d="m27.47,180.49c.21,2.05.66,4.69,1.69,7.61,1.23,3.54,2.86,6.24,4.16,8.1"/>
    <path class="cls-5" d="m27.47,180.49c.21,2.05.66,4.69,1.69,7.61,1.23,3.54,2.86,6.24,4.16,8.1"/>
    <path class="cls-6" d="m22.08,192.45c-.18,1.88-.11,3.43,0,4.58.25,2.44.8,3.49,1.01,5.87.16,1.79.05,3.34-.11,4.45"/>
    <path class="cls-5" d="m22.08,192.45c-.18,1.88-.11,3.43,0,4.58.25,2.44.8,3.49,1.01,5.87.16,1.79.05,3.34-.11,4.45"/>
    <path class="cls-6" d="m39.97,128.52c-1.37,1.2-3.13,2.6-5.3,3.99-3.04,1.94-5.53,3.01-6.19,3.29-4,1.68-7.33,2.27-9.23,2.57-1.01.17-1.87.28-2.47.35"/>
    <path class="cls-5" d="m39.97,128.52c-1.37,1.2-3.13,2.6-5.3,3.99-3.04,1.94-5.53,3.01-6.19,3.29-4,1.68-7.33,2.27-9.23,2.57-1.01.17-1.87.28-2.47.35"/>
    <path class="cls-6" d="m33.11,144.36c-1.78,1.2-4.07,2.53-6.85,3.64-4.04,1.59-7.68,2.16-10.35,2.36"/>
    <path class="cls-5" d="m33.11,144.36c-1.78,1.2-4.07,2.53-6.85,3.64-4.04,1.59-7.68,2.16-10.35,2.36"/>
    <path class="cls-6" d="m29.62,154.68c-1.05.85-1.96,1.48-2.58,1.88-3.56,2.25-6.95,3.16-9.23,3.75-.62.15-1.14.28-1.46.35"/>
    <path class="cls-5" d="m29.62,154.68c-1.05.85-1.96,1.48-2.58,1.88-3.56,2.25-6.95,3.16-9.23,3.75-.62.15-1.14.28-1.46.35"/>
    <path class="cls-6" d="m27.47,168.18c-.89.92-1.67,1.57-2.22,2.01-3.04,2.4-5.96,3.38-7.9,4.01-.53.17-.98.31-1.26.37"/>
    <path class="cls-5" d="m27.47,168.18c-.89.92-1.67,1.57-2.22,2.01-3.04,2.4-5.96,3.38-7.9,4.01-.53.17-.98.31-1.26.37"/>
    <path class="cls-6" d="m24.07,181.84c-.73,1.02-1.37,1.77-1.8,2.25-2.49,2.68-4.84,3.77-6.44,4.49-.43.2-.8.33-1.03.42"/>
    <path class="cls-5" d="m24.07,181.84c-.73,1.02-1.37,1.77-1.8,2.25-2.49,2.68-4.84,3.77-6.44,4.49-.43.2-.8.33-1.03.42"/>
    <path class="cls-6" d="m169.41,102.66c2.15-2.12,5.89-5.28,11.49-7.55,1.78-.72,13.69-5.37,27.01-.89,9.44,3.16,14.44,9.19,17.5,12.89,7.4,8.92,9.07,18.07,10.01,23.54.37,2.12.25,10.63,0,27.56-.16,11.35-.25,15.77,2.99,20.88,3.68,5.8,8.91,8.22,8,9.77-1.1,1.86-9.87.28-17-2.66-13.59-5.59-20.84-15.88-21.5-16.89-5.67-8.29-4.71-13.4-12.5-20.01-1.92-1.61-3.77-2.71-7.49-4.89-17.36-10.17-24.24-9.21-28.51-15.56-3.43-5.1-3.45-12.3,0-17.32,6.26-9.12,21.61-7.74,23.51-7.55,10.03,1.03,16.45,6.52,18.51,8.44"/>
    <path class="cls-4" d="m169.41,102.66c2.15-2.12,5.89-5.28,11.49-7.55,1.78-.72,13.69-5.37,27.01-.89,9.44,3.16,14.44,9.19,17.5,12.89,7.4,8.92,9.07,18.07,10.01,23.54.37,2.12.25,10.63,0,27.56-.16,11.35-.25,15.77,2.99,20.88,3.68,5.8,8.91,8.22,8,9.77-1.1,1.86-9.87.28-17-2.66-13.59-5.59-20.84-15.88-21.5-16.89-5.67-8.29-4.71-13.4-12.5-20.01-1.92-1.61-3.77-2.71-7.49-4.89-17.36-10.17-24.24-9.21-28.51-15.56-3.43-5.1-3.45-12.3,0-17.32,6.26-9.12,21.61-7.74,23.51-7.55,10.03,1.03,16.45,6.52,18.51,8.44"/>
    <path class="cls-6" d="m171.29,106.96c-.34.87-.78,2.12-1.07,3.66-.62,3.23-.27,5.78,0,7.72.18,1.2.62,3.73,1.83,6.78.71,1.77,1.49,3.23,2.12,4.34"/>
    <path class="cls-5" d="m171.29,106.96c-.34.87-.78,2.12-1.07,3.66-.62,3.23-.27,5.78,0,7.72.18,1.2.62,3.73,1.83,6.78.71,1.77,1.49,3.23,2.12,4.34"/>
    <path class="cls-6" d="m179.83,107.79c.11,1.09.34,2.92.75,5.15.66,3.51,1.14,4.36,1.67,7.59.39,2.33.5,4.14.62,5.82.16,2.51.18,4.69.16,6.37"/>
    <path class="cls-5" d="m179.83,107.79c.11,1.09.34,2.92.75,5.15.66,3.51,1.14,4.36,1.67,7.59.39,2.33.5,4.14.62,5.82.16,2.51.18,4.69.16,6.37"/>
    <path class="cls-6" d="m193.11,112.79c.62,1.27,1.42,3.16,1.99,5.56.68,2.94.66,5.26.62,9.88-.05,3.54-.27,6.37-.46,8.68-.16,1.94-.32,3.56-.46,4.74"/>
    <path class="cls-5" d="m193.11,112.79c.62,1.27,1.42,3.16,1.99,5.56.68,2.94.66,5.26.62,9.88-.05,3.54-.27,6.37-.46,8.68-.16,1.94-.32,3.56-.46,4.74"/>
    <path class="cls-6" d="m203.75,119.62c1.39,4.04,1.92,7.46,2.12,9.88.11,1.24.07,3.45,0,7.85-.07,3.95-.21,6.44-.75,9.49-.16.92-.34,1.66-.46,2.16"/>
    <path class="cls-5" d="m203.75,119.62c1.39,4.04,1.92,7.46,2.12,9.88.11,1.24.07,3.45,0,7.85-.07,3.95-.21,6.44-.75,9.49-.16.92-.34,1.66-.46,2.16"/>
    <path class="cls-6" d="m180.29,100.46c.27-.89.73-2.03,1.53-3.25.57-.87,1.17-1.57,1.71-2.12"/>
    <path class="cls-5" d="m180.29,100.46c.27-.89.73-2.03,1.53-3.25.57-.87,1.17-1.57,1.71-2.12"/>
    <path class="cls-6" d="m186.5,101.01c.66-1.35,1.74-3.12,3.49-4.87,1.14-1.13,1.9-1.79,2.72-2.27.91-.55,1.78-.85,2.38-1.03"/>
    <path class="cls-5" d="m186.5,101.01c.66-1.35,1.74-3.12,3.49-4.87,1.14-1.13,1.9-1.79,2.72-2.27.91-.55,1.78-.85,2.38-1.03"/>
    <path class="cls-6" d="m192.65,103.6c1.17-1.55,3.08-3.58,6.21-5.59,2.01-1.31,3.36-2.05,4.82-2.6,1.65-.61,3.15-.98,4.23-1.18"/>
    <path class="cls-5" d="m192.65,103.6c1.17-1.55,3.08-3.58,6.21-5.59,2.01-1.31,3.36-2.05,4.82-2.6,1.65-.61,3.15-.98,4.23-1.18"/>
    <path class="cls-6" d="m198.25,106c1.65-1.48,4.2-3.36,8.02-5,2.47-1.05,4.07-1.61,5.76-1.92,1.87-.35,3.56-.46,4.75-.48"/>
    <path class="cls-5" d="m198.25,106c1.65-1.48,4.2-3.36,8.02-5,2.47-1.05,4.07-1.61,5.76-1.92,1.87-.35,3.56-.46,4.75-.48"/>
    <path class="cls-6" d="m202.79,108.95c2.03-1.2,5.1-2.62,9.41-3.53,2.79-.59,4.57-.85,6.37-.85,2.01,0,3.79.22,5.03.44"/>
    <path class="cls-5" d="m202.79,108.95c2.03-1.2,5.1-2.62,9.41-3.53,2.79-.59,4.57-.85,6.37-.85,2.01,0,3.79.22,5.03.44"/>
    <path class="cls-6" d="m205.83,111.57c2.83-.13,6.4-.09,10.44.52,3.86.59,6.79,1.46,8.11,1.9,1.85.59,3.38,1.22,4.55,1.72"/>
    <path class="cls-5" d="m205.83,111.57c2.83-.13,6.4-.09,10.44.52,3.86.59,6.79,1.46,8.11,1.9,1.85.59,3.38,1.22,4.55,1.72"/>
    <path class="cls-6" d="m208.44,114.93c3.77,2.71,7.26,4.47,9.87,5.61,3.52,1.55,6.24,2.29,6.9,2.46,2.6.7,4.91,1.07,6.69,1.29"/>
    <path class="cls-5" d="m208.44,114.93c3.77,2.71,7.26,4.47,9.87,5.61,3.52,1.55,6.24,2.29,6.9,2.46,2.6.7,4.91,1.07,6.69,1.29"/>
    <path class="cls-6" d="m212.55,140.13c.09.98.14,2.33,0,3.91-.23,2.66-.89,4.58-1.44,6.13-.66,1.92-1.76,4.47-3.54,7.31"/>
    <path class="cls-5" d="m212.55,140.13c.09.98.14,2.33,0,3.91-.23,2.66-.89,4.58-1.44,6.13-.66,1.92-1.76,4.47-3.54,7.31"/>
    <path class="cls-6" d="m218.76,149.4c.23,1.24.39,3.1,0,5.28-.39,2.07-1.1,3.45-2.58,6.31-.8,1.57-2.15,4.17-3.93,7.66"/>
    <path class="cls-5" d="m218.76,149.4c.23,1.24.39,3.1,0,5.28-.39,2.07-1.1,3.45-2.58,6.31-.8,1.57-2.15,4.17-3.93,7.66"/>
    <path class="cls-6" d="m223.38,163.01c-.18,1.48-.57,3.4-1.44,5.54-1.05,2.55-2.42,4.52-3.54,5.87"/>
    <path class="cls-5" d="m223.38,163.01c-.18,1.48-.57,3.4-1.44,5.54-1.05,2.55-2.42,4.52-3.54,5.87"/>
    <path class="cls-6" d="m227.97,171.7c.16,1.35.11,2.49,0,3.32-.23,1.79-.68,2.53-.87,4.25-.14,1.31-.05,2.42.09,3.23"/>
    <path class="cls-5" d="m227.97,171.7c.16,1.35.11,2.49,0,3.32-.23,1.79-.68,2.53-.87,4.25-.14,1.31-.05,2.42.09,3.23"/>
    <path class="cls-6" d="m212.73,125.31c1.17.87,2.65,1.88,4.5,2.9,2.58,1.42,4.71,2.18,5.28,2.38,3.4,1.22,6.24,1.64,7.86,1.88.87.13,1.58.2,2.1.26"/>
    <path class="cls-5" d="m212.73,125.31c1.17.87,2.65,1.88,4.5,2.9,2.58,1.42,4.71,2.18,5.28,2.38,3.4,1.22,6.24,1.64,7.86,1.88.87.13,1.58.2,2.1.26"/>
    <path class="cls-6" d="m218.58,136.81c1.51.87,3.47,1.83,5.85,2.64,3.43,1.16,6.53,1.57,8.82,1.7"/>
    <path class="cls-5" d="m218.58,136.81c1.51.87,3.47,1.83,5.85,2.64,3.43,1.16,6.53,1.57,8.82,1.7"/>
    <path class="cls-6" d="m221.55,144.29c.89.63,1.67,1.07,2.19,1.35,3.01,1.64,5.92,2.29,7.86,2.73.52.11.96.2,1.26.26"/>
    <path class="cls-5" d="m221.55,144.29c.89.63,1.67,1.07,2.19,1.35,3.01,1.64,5.92,2.29,7.86,2.73.52.11.96.2,1.26.26"/>
    <path class="cls-6" d="m223.38,154.09c.75.65,1.42,1.13,1.9,1.46,2.6,1.74,5.07,2.44,6.74,2.9.46.13.82.22,1.07.26"/>
    <path class="cls-5" d="m223.38,154.09c.75.65,1.42,1.13,1.9,1.46,2.6,1.74,5.07,2.44,6.74,2.9.46.13.82.22,1.07.26"/>
    <path class="cls-6" d="m226.28,164.02c.62.74,1.16,1.29,1.53,1.64,2.1,1.96,4.14,2.75,5.48,3.25.37.13.69.24.87.31"/>
    <path class="cls-5" d="m226.28,164.02c.62.74,1.16,1.29,1.53,1.64,2.1,1.96,4.14,2.75,5.48,3.25.37.13.69.24.87.31"/>
    <path class="cls-1" d="m107.04,48.36c-5.19,3.62-7.77,5.45-9.57,8.51-2.4,4.06-3.02,10.54-4.16,23.3-1.69,18.83-1.74,19.81-.87,20.77,5,5.45,22.5-9.86,31.14-25.7,3.08-5.65,4.43-10.25,2.83-14.49-1.3-3.43-4.5-6.61-7.43-6.83-4.34-.33-7.17,5.93-7.72,5.35-.43-.46,2.03-3.49,1.3-7.7-.07-.41-.53-3.03-1.99-3.93-1.28-.81-2.69.15-3.52.72h-.02Z"/>
    <path class="cls-6" d="m104.21,52.88c.71.68,1.74,1.81,2.65,3.49,1.26,2.27,1.67,4.39,1.83,5.52"/>
    <path class="cls-5" d="m104.21,52.88c.71.68,1.74,1.81,2.65,3.49,1.26,2.27,1.67,4.39,1.83,5.52"/>
    <path class="cls-6" d="m101.51,55.8c.89.72,2.19,1.92,3.45,3.6,1.71,2.29,2.49,4.32,2.83,5.41"/>
    <path class="cls-5" d="m101.51,55.8c.89.72,2.19,1.92,3.45,3.6,1.71,2.29,2.49,4.32,2.83,5.41"/>
    <path class="cls-6" d="m99.39,59.29c.91.65,2.26,1.72,3.61,3.32,1.83,2.16,2.72,4.15,3.11,5.21"/>
    <path class="cls-5" d="m99.39,59.29c.91.65,2.26,1.72,3.61,3.32,1.83,2.16,2.72,4.15,3.11,5.21"/>
    <path class="cls-6" d="m97.36,65.09c.96.5,2.4,1.37,3.86,2.77,2.01,1.88,3.08,3.75,3.59,4.78"/>
    <path class="cls-5" d="m97.36,65.09c.96.5,2.4,1.37,3.86,2.77,2.01,1.88,3.08,3.75,3.59,4.78"/>
    <path class="cls-6" d="m96.67,69.52c.87.46,2.19,1.24,3.54,2.49,1.85,1.68,2.83,3.34,3.29,4.23"/>
    <path class="cls-5" d="m96.67,69.52c.87.46,2.19,1.24,3.54,2.49,1.85,1.68,2.83,3.34,3.29,4.23"/>
    <path class="cls-6" d="m95.39,73.08c.87.46,2.19,1.24,3.54,2.49,1.85,1.68,2.83,3.34,3.29,4.23"/>
    <path class="cls-5" d="m95.39,73.08c.87.46,2.19,1.24,3.54,2.49,1.85,1.68,2.83,3.34,3.29,4.23"/>
    <path class="cls-6" d="m94.68,78.6c.69.35,1.71.96,2.76,1.9,1.44,1.29,2.22,2.55,2.58,3.23"/>
    <path class="cls-5" d="m94.68,78.6c.69.35,1.71.96,2.76,1.9,1.44,1.29,2.22,2.55,2.58,3.23"/>
    <path class="cls-6" d="m94.39,83.03c.53.31,1.33.81,2.12,1.66,1.1,1.16,1.67,2.33,1.94,2.99"/>
    <path class="cls-5" d="m94.39,83.03c.53.31,1.33.81,2.12,1.66,1.1,1.16,1.67,2.33,1.94,2.99"/>
    <path class="cls-6" d="m93.84,89.14c.39.35.94.94,1.42,1.85.66,1.27.89,2.51.98,3.16"/>
    <path class="cls-5" d="m93.84,89.14c.39.35.94.94,1.42,1.85.66,1.27.89,2.51.98,3.16"/>
    <path class="cls-6" d="m111.66,64.85c.73-.7,1.85-1.55,3.38-2.07,2.88-.96,5.51-.15,6.72.33"/>
    <path class="cls-5" d="m111.66,64.85c.73-.7,1.85-1.55,3.38-2.07,2.88-.96,5.51-.15,6.72.33"/>
    <path class="cls-6" d="m109.51,70.2c.73-.7,1.85-1.55,3.38-2.07,2.88-.96,5.51-.15,6.72.33"/>
    <path class="cls-5" d="m109.51,70.2c.73-.7,1.85-1.55,3.38-2.07,2.88-.96,5.51-.15,6.72.33"/>
    <path class="cls-6" d="m106.7,76.2c.73-.7,1.85-1.55,3.38-2.07,2.88-.96,5.51-.15,6.72.33"/>
    <path class="cls-5" d="m106.7,76.2c.73-.7,1.85-1.55,3.38-2.07,2.88-.96,5.51-.15,6.72.33"/>
    <path class="cls-6" d="m104.17,81.37c.73-.7,1.85-1.55,3.38-2.07,2.88-.96,5.51-.15,6.72.33"/>
    <path class="cls-5" d="m104.17,81.37c.73-.7,1.85-1.55,3.38-2.07,2.88-.96,5.51-.15,6.72.33"/>
    <path class="cls-6" d="m101.7,86.85c.66-.35,1.64-.74,2.92-.87,2.38-.28,4.36.48,5.26.87"/>
    <path class="cls-5" d="m101.7,86.85c.66-.35,1.64-.74,2.92-.87,2.38-.28,4.36.48,5.26.87"/>
    <path class="cls-6" d="m98.82,90.73c.66-.35,1.64-.74,2.92-.87,2.38-.28,4.36.48,5.25.87"/>
    <path class="cls-5" d="m98.82,90.73c.66-.35,1.64-.74,2.92-.87,2.38-.28,4.36.48,5.25.87"/>
    <path class="cls-6" d="m97.59,95.53c.46-.17,1.12-.39,1.96-.48,1.6-.17,2.88.2,3.47.39"/>
    <path class="cls-5" d="m97.59,95.53c.46-.17,1.12-.39,1.96-.48,1.6-.17,2.88.2,3.47.39"/>
    <path class="cls-2" d="m76.66,30.95s-2.01-5.78-5.55-9.64c-1.37-1.48-6.31-6.33-12.09-4.06-6.1,2.38-8.89,10.95-9.8,13.72-3.79,11.59-1.42,23.61-.66,27.43,1.35,6.76,2.24,5.48,7.52,21.34,3.13,9.38,4.68,14.07,5.55,19.81,1.69,11.04.39,18.04,1.96,18.79,1.74.83,3.61-7.51,9.14-14.73,3.95-5.15,8.13-7.2,11.77-9.14,7.08-3.82,8.18-1.81,12.84-5.41,2.03-1.57,6.97-5.52,10.05-14.23.78-2.2,4.66-13.2,1.55-24.07-1.94-6.79-5.64-10.08-7.61-11.83-1.42-1.27-6.24-5.41-12.25-4.41-5.25.87-8.02,5.13-10.3,2.6-1.1-1.18-.85-2.55-2.1-6.17h-.02Z"/>
    <path class="cls-6" d="m76.2,45.13c-.57-2.36-1.64-5.87-3.61-9.43-1.12-2.01-3.95-6.98-8.89-9.23-3.43-1.55-6.44-1.11-8.25-.61"/>
    <path class="cls-5" d="m76.2,45.13c-.57-2.36-1.64-5.87-3.61-9.43-1.12-2.01-3.95-6.98-8.89-9.23-3.43-1.55-6.44-1.11-8.25-.61"/>
    <path class="cls-6" d="m106.91,55.52c-1.14-2.25-3.06-5.5-6.01-8.31-1.67-1.59-5.87-5.5-11.86-5.32-4.16.11-7.4,2.16-9.32,3.67"/>
    <path class="cls-5" d="m106.91,55.52c-1.14-2.25-3.06-5.5-6.01-8.31-1.67-1.59-5.87-5.5-11.86-5.32-4.16.11-7.4,2.16-9.32,3.67"/>
    <path class="cls-6" d="m106.11,63.17c-1.1-1.92-3.02-4.71-6.03-7.05-1.69-1.31-6.03-4.54-12.47-4.06-4.48.33-8.09,2.33-10.24,3.77"/>
    <path class="cls-5" d="m106.11,63.17c-1.1-1.92-3.02-4.71-6.03-7.05-1.69-1.31-6.03-4.54-12.47-4.06-4.48.33-8.09,2.33-10.24,3.77"/>
    <path class="cls-6" d="m98.02,74.43c-1.01-2.09-2.67-5.15-5.16-7.83-1.39-1.51-4.96-5.24-9.82-5.28-3.38-.02-5.96,1.75-7.47,3.08"/>
    <path class="cls-5" d="m98.02,74.43c-1.01-2.09-2.67-5.15-5.16-7.83-1.39-1.51-4.96-5.24-9.82-5.28-3.38-.02-5.96,1.75-7.47,3.08"/>
    <path class="cls-6" d="m92.45,86.43c-.64-1.57-1.76-3.91-3.68-6.11-1.07-1.24-3.82-4.3-8.2-5.04-3.06-.52-5.62.31-7.15,1"/>
    <path class="cls-5" d="m92.45,86.43c-.64-1.57-1.76-3.91-3.68-6.11-1.07-1.24-3.82-4.3-8.2-5.04-3.06-.52-5.62.31-7.15,1"/>
    <path class="cls-6" d="m74.69,55.52c-.78-2.27-2.12-5.67-4.43-8.9-1.3-1.83-4.64-6.39-10.01-7.81-3.72-.98-6.85-.02-8.73.81"/>
    <path class="cls-5" d="m74.69,55.52c-.78-2.27-2.12-5.67-4.43-8.9-1.3-1.83-4.64-6.39-10.01-7.81-3.72-.98-6.85-.02-8.73.81"/>
    <path class="cls-6" d="m71.81,62.98c-.64-1.48-1.8-3.69-3.82-5.76-1.12-1.18-4.02-4.08-8.75-4.82-3.29-.52-6.08.24-7.77.85"/>
    <path class="cls-5" d="m71.81,62.98c-.64-1.48-1.8-3.69-3.82-5.76-1.12-1.18-4.02-4.08-8.75-4.82-3.29-.52-6.08.24-7.77.85"/>
    <path class="cls-6" d="m70.4,75.17c-.5-1.46-1.39-3.64-2.92-5.76-.87-1.2-3.11-4.17-6.79-5.17-2.56-.7-4.73-.15-6.03.33"/>
    <path class="cls-5" d="m70.4,75.17c-.5-1.46-1.39-3.64-2.92-5.76-.87-1.2-3.11-4.17-6.79-5.17-2.56-.7-4.73-.15-6.03.33"/>
    <path class="cls-6" d="m67.93,83.79c-.32-1.09-.94-2.71-1.99-4.3-.59-.89-2.15-3.12-4.73-3.99-1.8-.59-3.34-.28-4.25.04"/>
    <path class="cls-5" d="m67.93,83.79c-.32-1.09-.94-2.71-1.99-4.3-.59-.89-2.15-3.12-4.73-3.99-1.8-.59-3.34-.28-4.25.04"/>
    <path class="cls-6" d="m71.81,86.02c.89-.35,2.03-.65,3.36-.61,3.11.11,5.44,2.07,6.58,3.21"/>
    <path class="cls-5" d="m71.81,86.02c.89-.35,2.03-.65,3.36-.61,3.11.11,5.44,2.07,6.58,3.21"/>
    <path class="cls-6" d="m67.82,93.44c-.34-.79-1.23-2.53-2.83-3.6-1.44-.98-2.74-.89-3.36-.81"/>
    <path class="cls-5" d="m67.82,93.44c-.34-.79-1.23-2.53-2.83-3.6-1.44-.98-2.74-.89-3.36-.81"/>
    <path class="cls-6" d="m66.33,101.62c-.16-.74-.59-2.49-1.71-3.99-1.01-1.37-2.08-1.85-2.58-2.03"/>
    <path class="cls-5" d="m66.33,101.62c-.16-.74-.59-2.49-1.71-3.99-1.01-1.37-2.08-1.85-2.58-2.03"/>
    <path class="cls-6" d="m71.88,101.9c-.5-.2-1.67-.55-3.08.13-1.28.61-2.1,1.77-2.47,2.33"/>
    <path class="cls-5" d="m71.88,101.9c-.5-.2-1.67-.55-3.08.13-1.28.61-2.1,1.77-2.47,2.33"/>
    <path class="cls-6" d="m76.77,94.57c-.53-.5-1.78-1.55-3.52-1.57-1.58,0-2.74.87-3.29,1.33"/>
    <path class="cls-5" d="m76.77,94.57c-.53-.5-1.78-1.55-3.52-1.57-1.58,0-2.74.87-3.29,1.33"/>
    <path class="cls-1" d="m158.59,109.08s1.92-6.18,5.3-10.3c1.3-1.59,6.03-6.74,11.56-4.34,5.83,2.53,8.5,11.69,9.37,14.64,3.63,12.37,1.35,25.2.62,29.28-1.28,7.2-2.15,5.85-7.17,22.78-2.99,10.01-4.48,15.03-5.3,21.14-1.6,11.78-.37,19.24-1.87,20.07-1.67.89-3.45-8.01-8.75-15.73-3.77-5.5-7.77-7.68-11.24-9.75-6.79-4.08-7.81-1.92-12.27-5.76-1.94-1.68-6.67-5.89-9.62-15.18-.73-2.34-4.46-14.1-1.49-25.68,1.87-7.24,5.39-10.76,7.27-12.63,1.35-1.35,5.96-5.78,11.7-4.71,5.03.94,7.65,5.46,9.85,2.79,1.05-1.27.82-2.73,2.01-6.59l.05-.02Z"/>
    <path class="cls-6" d="m159.04,124.22c.55-2.51,1.58-6.28,3.45-10.06,1.05-2.14,3.79-7.46,8.5-9.84,3.29-1.66,6.15-1.2,7.88-.63"/>
    <path class="cls-5" d="m159.04,124.22c.55-2.51,1.58-6.28,3.45-10.06,1.05-2.14,3.79-7.46,8.5-9.84,3.29-1.66,6.15-1.2,7.88-.63"/>
    <path class="cls-6" d="m129.66,135.3c1.07-2.4,2.93-5.87,5.74-8.88,1.58-1.68,5.62-5.87,11.33-5.69,3.98.13,7.08,2.31,8.91,3.93"/>
    <path class="cls-5" d="m129.66,135.3c1.07-2.4,2.93-5.87,5.74-8.88,1.58-1.68,5.62-5.87,11.33-5.69,3.98.13,7.08,2.31,8.91,3.93"/>
    <path class="cls-6" d="m130.44,143.49c1.05-2.05,2.88-5.04,5.76-7.51,1.62-1.4,5.78-4.84,11.93-4.34,4.3.37,7.74,2.49,9.78,4.04"/>
    <path class="cls-5" d="m130.44,143.49c1.05-2.05,2.88-5.04,5.76-7.51,1.62-1.4,5.78-4.84,11.93-4.34,4.3.37,7.74,2.49,9.78,4.04"/>
    <path class="cls-6" d="m138.18,155.51c.96-2.22,2.56-5.5,4.93-8.36,1.35-1.62,4.75-5.59,9.39-5.63,3.22-.02,5.69,1.85,7.13,3.27"/>
    <path class="cls-5" d="m138.18,155.51c.96-2.22,2.56-5.5,4.93-8.36,1.35-1.62,4.75-5.59,9.39-5.63,3.22-.02,5.69,1.85,7.13,3.27"/>
    <path class="cls-6" d="m143.51,168.34c.62-1.68,1.69-4.19,3.5-6.52,1.03-1.31,3.65-4.6,7.86-5.39,2.93-.54,5.37.33,6.83,1.07"/>
    <path class="cls-5" d="m143.51,168.34c.62-1.68,1.69-4.19,3.5-6.52,1.03-1.31,3.65-4.6,7.86-5.39,2.93-.54,5.37.33,6.83,1.07"/>
    <path class="cls-6" d="m160.46,135.3c.73-2.42,2.03-6.04,4.25-9.51,1.26-1.96,4.43-6.83,9.55-8.33,3.56-1.05,6.56-.02,8.34.85"/>
    <path class="cls-5" d="m160.46,135.3c.73-2.42,2.03-6.04,4.25-9.51,1.26-1.96,4.43-6.83,9.55-8.33,3.56-1.05,6.56-.02,8.34.85"/>
    <path class="cls-6" d="m163.22,143.29c.62-1.59,1.71-3.93,3.63-6.15,1.07-1.24,3.84-4.36,8.36-5.15,3.15-.54,5.82.24,7.42.92"/>
    <path class="cls-5" d="m163.22,143.29c.62-1.59,1.71-3.93,3.63-6.15,1.07-1.24,3.84-4.36,8.36-5.15,3.15-.54,5.82.24,7.42.92"/>
    <path class="cls-6" d="m164.57,156.32c.48-1.57,1.32-3.9,2.81-6.15.85-1.27,2.97-4.45,6.49-5.52,2.44-.74,4.52-.18,5.76.35"/>
    <path class="cls-5" d="m164.57,156.32c.48-1.57,1.32-3.9,2.81-6.15.85-1.27,2.97-4.45,6.49-5.52,2.44-.74,4.52-.18,5.76.35"/>
    <path class="cls-6" d="m166.92,165.5c.32-1.16.89-2.88,1.92-4.58.57-.96,2.06-3.34,4.5-4.26,1.71-.63,3.18-.28,4.07.04"/>
    <path class="cls-5" d="m166.92,165.5c.32-1.16.89-2.88,1.92-4.58.57-.96,2.06-3.34,4.5-4.26,1.71-.63,3.18-.28,4.07.04"/>
    <path class="cls-6" d="m163.22,167.88c-.85-.37-1.94-.7-3.2-.63-2.97.13-5.19,2.2-6.28,3.43"/>
    <path class="cls-5" d="m163.22,167.88c-.85-.37-1.94-.7-3.2-.63-2.97.13-5.19,2.2-6.28,3.43"/>
    <path class="cls-6" d="m167.04,175.8c.34-.83,1.19-2.7,2.72-3.86,1.39-1.05,2.63-.96,3.2-.85"/>
    <path class="cls-5" d="m167.04,175.8c.34-.83,1.19-2.7,2.72-3.86,1.39-1.05,2.63-.96,3.2-.85"/>
    <path class="cls-6" d="m168.48,184.53c.14-.81.55-2.66,1.62-4.28.96-1.46,1.99-1.96,2.47-2.16"/>
    <path class="cls-5" d="m168.48,184.53c.14-.81.55-2.66,1.62-4.28.96-1.46,1.99-1.96,2.47-2.16"/>
    <path class="cls-6" d="m163.16,184.83c.48-.22,1.6-.59,2.95.13,1.23.65,2.01,1.88,2.38,2.49"/>
    <path class="cls-5" d="m163.16,184.83c.48-.22,1.6-.59,2.95.13,1.23.65,2.01,1.88,2.38,2.49"/>
    <path class="cls-6" d="m158.47,177c.5-.52,1.71-1.66,3.36-1.66,1.51,0,2.63.94,3.13,1.42"/>
    <path class="cls-5" d="m158.47,177c.5-.52,1.71-1.66,3.36-1.66,1.51,0,2.63.94,3.13,1.42"/>
    <path class="cls-1" d="m159.43,52.24s.89-1.72,2.44-2.88c.59-.44,2.79-1.9,5.32-1.22,2.7.72,3.93,3.27,4.32,4.1,1.67,3.47.62,7.07.3,8.2-.59,2.03-.98,1.64-3.31,6.37-1.37,2.81-2.06,4.21-2.44,5.91-.73,3.29-.16,5.39-.87,5.63-.78.24-1.6-2.25-4.02-4.41-1.74-1.55-3.59-2.16-5.19-2.73-3.13-1.13-3.61-.55-5.67-1.61-.89-.46-3.09-1.66-4.43-4.25-.34-.65-2.06-3.95-.69-7.2.87-2.03,2.49-3.01,3.36-3.53.62-.37,2.74-1.61,5.39-1.31,2.31.26,3.54,1.53,4.55.79.48-.35.36-.76.94-1.85Z"/>
    <path class="cls-6" d="m159.64,56.48c.25-.7.73-1.77,1.6-2.81.48-.59,1.74-2.09,3.93-2.75,1.51-.46,2.83-.33,3.63-.17"/>
    <path class="cls-5" d="m159.64,56.48c.25-.7.73-1.77,1.6-2.81.48-.59,1.74-2.09,3.93-2.75,1.51-.46,2.83-.33,3.63-.17"/>
    <path class="cls-6" d="m146.09,59.6c.5-.68,1.35-1.64,2.65-2.49.73-.48,2.58-1.64,5.23-1.59,1.83.04,3.27.65,4.11,1.09"/>
    <path class="cls-5" d="m146.09,59.6c.5-.68,1.35-1.64,2.65-2.49.73-.48,2.58-1.64,5.23-1.59,1.83.04,3.27.65,4.11,1.09"/>
    <path class="cls-6" d="m146.43,61.89c.48-.57,1.32-1.42,2.65-2.09.75-.39,2.65-1.35,5.51-1.22,1.99.11,3.56.7,4.5,1.13"/>
    <path class="cls-5" d="m146.43,61.89c.48-.57,1.32-1.42,2.65-2.09.75-.39,2.65-1.35,5.51-1.22,1.99.11,3.56.7,4.5,1.13"/>
    <path class="cls-6" d="m150.02,65.25c.43-.63,1.19-1.55,2.28-2.33.62-.46,2.19-1.57,4.34-1.57,1.49,0,2.63.52,3.29.92"/>
    <path class="cls-5" d="m150.02,65.25c.43-.63,1.19-1.55,2.28-2.33.62-.46,2.19-1.57,4.34-1.57,1.49,0,2.63.52,3.29.92"/>
    <path class="cls-6" d="m152.46,68.82c.27-.48.78-1.18,1.62-1.83.48-.37,1.69-1.29,3.61-1.51,1.35-.15,2.47.09,3.15.31"/>
    <path class="cls-5" d="m152.46,68.82c.27-.48.78-1.18,1.62-1.83.48-.37,1.69-1.29,3.61-1.51,1.35-.15,2.47.09,3.15.31"/>
    <path class="cls-6" d="m160.3,59.6c.34-.68.94-1.7,1.96-2.66.57-.55,2.06-1.92,4.41-2.33,1.65-.28,3.02,0,3.86.24"/>
    <path class="cls-5" d="m160.3,59.6c.34-.68.94-1.7,1.96-2.66.57-.55,2.06-1.92,4.41-2.33,1.65-.28,3.02,0,3.86.24"/>
    <path class="cls-6" d="m161.56,61.82c.27-.44.8-1.11,1.67-1.72.5-.35,1.78-1.22,3.86-1.44,1.46-.15,2.67.07,3.43.26"/>
    <path class="cls-5" d="m161.56,61.82c.27-.44.8-1.11,1.67-1.72.5-.35,1.78-1.22,3.86-1.44,1.46-.15,2.67.07,3.43.26"/>
    <path class="cls-6" d="m162.2,65.47c.23-.44.62-1.09,1.3-1.72.39-.35,1.37-1.24,2.99-1.55,1.12-.22,2.08-.04,2.65.11"/>
    <path class="cls-5" d="m162.2,65.47c.23-.44.62-1.09,1.3-1.72.39-.35,1.37-1.24,2.99-1.55,1.12-.22,2.08-.04,2.65.11"/>
    <path class="cls-6" d="m163.27,68.04c.14-.33.41-.81.89-1.29.27-.26.94-.94,2.08-1.2.8-.17,1.46-.09,1.87,0"/>
    <path class="cls-5" d="m163.27,68.04c.14-.33.41-.81.89-1.29.27-.26.94-.94,2.08-1.2.8-.17,1.46-.09,1.87,0"/>
    <path class="cls-6" d="m161.56,68.72c-.39-.11-.89-.2-1.49-.17-1.37.04-2.4.61-2.9.96"/>
    <path class="cls-5" d="m161.56,68.72c-.39-.11-.89-.2-1.49-.17-1.37.04-2.4.61-2.9.96"/>
    <path class="cls-6" d="m163.31,70.92c.16-.24.55-.76,1.26-1.07.64-.28,1.21-.26,1.49-.24"/>
    <path class="cls-5" d="m163.31,70.92c.16-.24.55-.76,1.26-1.07.64-.28,1.21-.26,1.49-.24"/>
    <path class="cls-6" d="m163.98,73.39c.07-.22.25-.74.75-1.2.46-.41.91-.55,1.14-.61"/>
    <path class="cls-5" d="m163.98,73.39c.07-.22.25-.74.75-1.2.46-.41.91-.55,1.14-.61"/>
    <path class="cls-6" d="m161.53,73.45c.21-.07.73-.17,1.37.04.57.17.94.52,1.1.7"/>
    <path class="cls-5" d="m161.53,73.45c.21-.07.73-.17,1.37.04.57.17.94.52,1.1.7"/>
    <path class="cls-6" d="m159.36,71.27c.23-.15.78-.46,1.55-.46.68,0,1.21.26,1.44.39"/>
    <path class="cls-5" d="m159.36,71.27c.23-.15.78-.46,1.55-.46.68,0,1.21.26,1.44.39"/>
    <path class="cls-1" d="m115.2,109.32s-.8-1.72-2.24-2.88c-.55-.44-2.54-1.9-4.87-1.22-2.44.72-3.56,3.27-3.93,4.1-1.53,3.47-.57,7.07-.25,8.2.55,2.03.89,1.64,3.02,6.37,1.26,2.81,1.87,4.21,2.24,5.91.68,3.29.16,5.39.78,5.63.71.24,1.44-2.25,3.68-4.41,1.58-1.55,3.27-2.16,4.73-2.73,2.86-1.13,3.29-.55,5.16-1.61.82-.46,2.81-1.66,4.04-4.25.32-.65,1.87-3.95.62-7.2-.78-2.03-2.26-3.01-3.06-3.54-.57-.37-2.51-1.61-4.91-1.31-2.1.26-3.22,1.53-4.14.79-.43-.35-.34-.76-.85-1.86h-.02Z"/>
    <path class="cls-6" d="m114.99,113.55c-.23-.7-.66-1.77-1.44-2.82-.46-.59-1.6-2.09-3.56-2.75-1.37-.46-2.58-.33-3.31-.17"/>
    <path class="cls-5" d="m114.99,113.55c-.23-.7-.66-1.77-1.44-2.82-.46-.59-1.6-2.09-3.56-2.75-1.37-.46-2.58-.33-3.31-.17"/>
    <path class="cls-6" d="m127.35,116.67c-.46-.68-1.23-1.64-2.42-2.49-.66-.48-2.35-1.64-4.75-1.59-1.67.04-2.97.65-3.75,1.09"/>
    <path class="cls-5" d="m127.35,116.67c-.46-.68-1.23-1.64-2.42-2.49-.66-.48-2.35-1.64-4.75-1.59-1.67.04-2.97.65-3.75,1.09"/>
    <path class="cls-6" d="m127.01,118.96c-.43-.57-1.21-1.42-2.42-2.1-.68-.39-2.42-1.35-5-1.22-1.81.11-3.24.7-4.11,1.14"/>
    <path class="cls-5" d="m127.01,118.96c-.43-.57-1.21-1.42-2.42-2.1-.68-.39-2.42-1.35-5-1.22-1.81.11-3.24.7-4.11,1.14"/>
    <path class="cls-6" d="m123.77,122.32c-.41-.63-1.07-1.55-2.08-2.34-.57-.46-1.99-1.57-3.95-1.57-1.35,0-2.4.52-2.99.92"/>
    <path class="cls-5" d="m123.77,122.32c-.41-.63-1.07-1.55-2.08-2.34-.57-.46-1.99-1.57-3.95-1.57-1.35,0-2.4.52-2.99.92"/>
    <path class="cls-6" d="m121.53,125.92c-.25-.48-.71-1.18-1.49-1.83-.43-.37-1.53-1.29-3.29-1.51-1.23-.15-2.26.09-2.88.31"/>
    <path class="cls-5" d="m121.53,125.92c-.25-.48-.71-1.18-1.49-1.83-.43-.37-1.53-1.29-3.29-1.51-1.23-.15-2.26.09-2.88.31"/>
    <path class="cls-6" d="m114.4,116.67c-.3-.68-.85-1.7-1.78-2.66-.53-.55-1.87-1.92-4.02-2.33-1.51-.28-2.77,0-3.52.24"/>
    <path class="cls-5" d="m114.4,116.67c-.3-.68-.85-1.7-1.78-2.66-.53-.55-1.87-1.92-4.02-2.33-1.51-.28-2.77,0-3.52.24"/>
    <path class="cls-6" d="m113.24,118.9c-.25-.44-.73-1.11-1.53-1.72-.46-.35-1.62-1.22-3.52-1.44-1.33-.15-2.44.07-3.11.26"/>
    <path class="cls-5" d="m113.24,118.9c-.25-.44-.73-1.11-1.53-1.72-.46-.35-1.62-1.22-3.52-1.44-1.33-.15-2.44.07-3.11.26"/>
    <path class="cls-6" d="m112.66,122.54c-.21-.44-.55-1.09-1.19-1.72-.34-.35-1.26-1.24-2.72-1.55-1.03-.22-1.9-.04-2.42.11"/>
    <path class="cls-5" d="m112.66,122.54c-.21-.44-.55-1.09-1.19-1.72-.34-.35-1.26-1.24-2.72-1.55-1.03-.22-1.9-.04-2.42.11"/>
    <path class="cls-6" d="m111.68,125.12c-.14-.33-.37-.81-.8-1.29-.25-.26-.87-.94-1.9-1.2-.73-.17-1.35-.09-1.71,0"/>
    <path class="cls-5" d="m111.68,125.12c-.14-.33-.37-.81-.8-1.29-.25-.26-.87-.94-1.9-1.2-.73-.17-1.35-.09-1.71,0"/>
    <path class="cls-6" d="m113.24,125.79c.37-.11.82-.2,1.35-.17,1.26.04,2.17.61,2.65.96"/>
    <path class="cls-5" d="m113.24,125.79c.37-.11.82-.2,1.35-.17,1.26.04,2.17.61,2.65.96"/>
    <path class="cls-6" d="m111.64,128.02c-.14-.24-.5-.76-1.14-1.07-.57-.28-1.1-.26-1.35-.24"/>
    <path class="cls-5" d="m111.64,128.02c-.14-.24-.5-.76-1.14-1.07-.57-.28-1.1-.26-1.35-.24"/>
    <path class="cls-6" d="m111.04,130.46c-.07-.22-.23-.74-.68-1.2-.41-.41-.85-.55-1.05-.61"/>
    <path class="cls-5" d="m111.04,130.46c-.07-.22-.23-.74-.68-1.2-.41-.41-.85-.55-1.05-.61"/>
    <path class="cls-6" d="m113.28,130.53c-.21-.07-.66-.17-1.23.04-.53.17-.85.52-1.01.7"/>
    <path class="cls-5" d="m113.28,130.53c-.21-.07-.66-.17-1.23.04-.53.17-.85.52-1.01.7"/>
    <path class="cls-6" d="m115.25,128.34c-.21-.15-.71-.46-1.42-.46-.64,0-1.1.26-1.32.39"/>
    <path class="cls-5" d="m115.25,128.34c-.21-.15-.71-.46-1.42-.46-.64,0-1.1.26-1.32.39"/>
    <path class="cls-2" d="m175.9,3.85c.71-2.92,11.29-5,20.04-1.57,11.1,4.32,15.24,15.91,15.67,17.06,2.76,7.64,1.58,14.25-.78,27.47-1.51,8.47-2.49,7.94-4.2,17.13-2.49,13.31-1.74,20.6-3.88,20.99-2.12.39-3.5-6.68-11.22-15.8-2.86-3.38-5.23-5.43-8.96-8.66-11.26-9.73-14.19-8.77-20.45-15.29-3.91-4.08-10.01-10.43-10.05-19.48,0-1.05.11-11.3,7.97-16.71,1.17-.81,7.74-5.11,13.02-2.88,1.39.59,3.15,1.83,3.68,1.31.55-.55-1.17-2.2-.85-3.53v-.02Z"/>
    <path class="cls-6" d="m177.85,11.68c-.71.83-1.83,2.05-3.31,3.36-1.14,1-1.87,1.51-6.24,4.49-4.25,2.88-4.68,3.16-5.6,3.67-2.22,1.18-4.18,1.9-5.55,2.31"/>
    <path class="cls-5" d="m177.85,11.68c-.71.83-1.83,2.05-3.31,3.36-1.14,1-1.87,1.51-6.24,4.49-4.25,2.88-4.68,3.16-5.6,3.67-2.22,1.18-4.18,1.9-5.55,2.31"/>
    <path class="cls-6" d="m180.56,10.53c1.39.04,3.24-.11,5.28-.87.91-.35,4.23-1.64,6.42-5.04.41-.63.69-1.2.87-1.61"/>
    <path class="cls-5" d="m180.56,10.53c1.39.04,3.24-.11,5.28-.87.91-.35,4.23-1.64,6.42-5.04.41-.63.69-1.2.87-1.61"/>
    <path class="cls-6" d="m183.12,14.39c2.06.17,3.79.11,5.1,0,2.81-.22,4.39-.33,6.21-1.33,2.12-1.16,3.24-2.77,3.5-3.14.64-.98,1-1.9,1.19-2.55"/>
    <path class="cls-5" d="m183.12,14.39c2.06.17,3.79.11,5.1,0,2.81-.22,4.39-.33,6.21-1.33,2.12-1.16,3.24-2.77,3.5-3.14.64-.98,1-1.9,1.19-2.55"/>
    <path class="cls-6" d="m180.08,15.76c-.55.72-1.32,1.72-2.33,2.86-2.26,2.6-4.18,4.78-7.24,6.81-.66.44-3.88,2.53-8.64,3.8-1.32.35-2.47.57-3.31.68"/>
    <path class="cls-5" d="m180.08,15.76c-.55.72-1.32,1.72-2.33,2.86-2.26,2.6-4.18,4.78-7.24,6.81-.66.44-3.88,2.53-8.64,3.8-1.32.35-2.47.57-3.31.68"/>
    <path class="cls-6" d="m182.55,21.44c-.91,1.68-2.26,3.8-4.2,5.93-.64.7-2.44,2.64-5.25,4.63-1.9,1.33-4.84,3.1-8.77,4.36"/>
    <path class="cls-5" d="m182.55,21.44c-.91,1.68-2.26,3.8-4.2,5.93-.64.7-2.44,2.64-5.25,4.63-1.9,1.33-4.84,3.1-8.77,4.36"/>
    <path class="cls-6" d="m186.12,20.02c1.1.41,2.74.92,4.78,1.13,3.29.37,5.76-.2,7.9-.7,2.15-.5,4.25-.98,6.53-2.51.94-.63,1.67-1.27,2.15-1.72"/>
    <path class="cls-5" d="m186.12,20.02c1.1.41,2.74.92,4.78,1.13,3.29.37,5.76-.2,7.9-.7,2.15-.5,4.25-.98,6.53-2.51.94-.63,1.67-1.27,2.15-1.72"/>
    <path class="cls-6" d="m188.17,25.23c.98.63,2.42,1.46,4.27,2.14,2.7,1,4.91,1.18,7.22,1.37,1.96.15,3.82.31,6.28-.04,2.22-.31,4-.87,5.23-1.35"/>
    <path class="cls-5" d="m188.17,25.23c.98.63,2.42,1.46,4.27,2.14,2.7,1,4.91,1.18,7.22,1.37,1.96.15,3.82.31,6.28-.04,2.22-.31,4-.87,5.23-1.35"/>
    <path class="cls-6" d="m185.22,27.76c-.37.76-.96,1.85-1.81,3.03-1.6,2.18-3.22,3.47-5.07,4.89-1.76,1.35-3.72,2.86-6.74,4.15-2.19.94-4.14,1.42-5.53,1.68"/>
    <path class="cls-5" d="m185.22,27.76c-.37.76-.96,1.85-1.81,3.03-1.6,2.18-3.22,3.47-5.07,4.89-1.76,1.35-3.72,2.86-6.74,4.15-2.19.94-4.14,1.42-5.53,1.68"/>
    <path class="cls-6" d="m188.1,33.26c-.11,1.18-.41,2.86-1.19,4.76-.32.76-1.55,3.71-4.5,6.41-.82.76-2.38,2.18-4.89,3.23-1.6.68-3.06.98-4.09,1.11"/>
    <path class="cls-5" d="m188.1,33.26c-.11,1.18-.41,2.86-1.19,4.76-.32.76-1.55,3.71-4.5,6.41-.82.76-2.38,2.18-4.89,3.23-1.6.68-3.06.98-4.09,1.11"/>
    <path class="cls-6" d="m191.94,33.5c1.53.57,3.59,1.22,6.08,1.79,2.47.57,4.09.94,6.26.89,1.46-.02,3.72-.26,6.42-1.31"/>
    <path class="cls-5" d="m191.94,33.5c1.53.57,3.59,1.22,6.08,1.79,2.47.57,4.09.94,6.26.89,1.46-.02,3.72-.26,6.42-1.31"/>
    <path class="cls-6" d="m191.92,40.79c-.21,2.42-.78,4.3-1.26,5.52-.69,1.81-1.74,4.49-4.36,6.57-1.46,1.16-2.92,1.72-3.86,2.03"/>
    <path class="cls-5" d="m191.92,40.79c-.21,2.42-.78,4.3-1.26,5.52-.69,1.81-1.74,4.49-4.36,6.57-1.46,1.16-2.92,1.72-3.86,2.03"/>
    <path class="cls-6" d="m195.28,42.23c1.17.5,2.58,1,4.23,1.33,3.72.76,6.9.37,8.98-.07"/>
    <path class="cls-5" d="m195.28,42.23c1.17.5,2.58,1,4.23,1.33,3.72.76,6.9.37,8.98-.07"/>
    <path class="cls-6" d="m195.32,49.52c-.05,1.48-.37,4.41-2.22,7.46-1.26,2.05-2.74,3.38-3.77,4.17"/>
    <path class="cls-5" d="m195.32,49.52c-.05,1.48-.37,4.41-2.22,7.46-1.26,2.05-2.74,3.38-3.77,4.17"/>
    <path class="cls-6" d="m198.2,59.68c0,1.11-.25,3.32-1.97,5.54-1.16,1.51-2.58,2.47-3.56,3.05"/>
    <path class="cls-5" d="m198.2,59.68c0,1.11-.25,3.32-1.97,5.54-1.16,1.51-2.58,2.47-3.56,3.05"/>
    <path class="cls-6" d="m199.34,67.3c-.05.7-.18,2.07-.8,3.51-.41.98-.87,1.64-1.21,2.03"/>
    <path class="cls-5" d="m199.34,67.3c-.05.7-.18,2.07-.8,3.51-.41.98-.87,1.64-1.21,2.03"/>
    <path class="cls-6" d="m198.11,49.49c.5.65,1.49,1.72,3.04,2.49,2.7,1.31,5.23.76,6.03.57"/>
    <path class="cls-5" d="m198.11,49.49c.5.65,1.49,1.72,3.04,2.49,2.7,1.31,5.23.76,6.03.57"/>
    <path class="cls-6" d="m198.25,56.37c.34.5,1.03,1.35,2.22,2.18,2.06,1.42,4.23,1.75,4.91,1.81"/>
    <path class="cls-5" d="m198.25,56.37c.34.5,1.03,1.35,2.22,2.18,2.06,1.42,4.23,1.75,4.91,1.81"/>
    <path class="cls-6" d="m199.94,63.83c.16.46.46,1.24,1.14,1.88,1.16,1.13,2.56,1.11,2.99,1.09"/>
    <path class="cls-5" d="m199.94,63.83c.16.46.46,1.24,1.14,1.88,1.16,1.13,2.56,1.11,2.99,1.09"/>
  </g>
</svg>