<?xml version="1.0" encoding="UTF-8"?>
<svg id="Layer_2" data-name="Layer 2" xmlns="http://www.w3.org/2000/svg" viewBox="0 0 57 54.44">
  <defs>
    <style>
      .cls-1 {
        fill: #faf5c3;
        stroke-width: 0px;
      }
    </style>
  </defs>
  <g id="Layer_1-2" data-name="Layer 1">
    <path class="cls-1" d="m28.45,5.87c-12.04,0-21.77,9.32-21.77,20.8s9.73,20.81,21.77,20.81,21.78-9.32,21.78-20.8S40.47,5.87,28.45,5.87Zm10.1,29.16c-.41,1.65-1.72,2.58-3.47,2.89-1.54.27-2.83.34-4.06-.61-1.5-1.22-1.53-3.21-.18-4.47,1.07-.97,2.58-1.17,4.83-1.55.38-.06.71-.15.98-.45.41-.44.28-.24.28-9.82,0-.68-.34-.86-1.07-.74-.51.09-11.69,2.08-11.69,2.08-.64.13-.85.32-.85,1.01,0,14.11.06,13.46-.15,14.4-.27,1.09-.97,1.92-1.9,2.38-1.06.56-2.98.8-3.99.63-2.72-.49-3.68-3.49-1.83-5.21,1.07-.97,2.58-1.17,4.84-1.55.38-.06.71-.15.98-.45.64-.69.11-15.43.33-16.25.05-.32.19-.58.45-.78.27-.21.74-.33.85-.33,12.85-2.31,14.41-2.6,14.64-2.6.73-.05,1.14.36,1.14,1.06-.01,20.73.05,19.61-.13,20.37ZM43.92,0H13.08C5.84,0,0,5.58,0,12.49v29.45c0,6.91,5.84,12.49,13.08,12.49h30.84c7.25,0,13.08-5.58,13.08-12.49V12.49c0-6.91-5.84-12.49-13.08-12.49Zm-15.47,50.06c-13.52,0-24.49-10.47-24.49-23.39S14.92,3.28,28.45,3.28s24.49,10.47,24.49,23.39-10.97,23.39-24.49,23.39Z"/>
  </g>
</svg>