<?xml version="1.0" encoding="UTF-8"?>
<svg id="Layer_2" data-name="Layer 2" xmlns="http://www.w3.org/2000/svg" viewBox="0 0 91.45 171.87">
  <defs>
    <style>
      .cls-1 {
        stroke-width: 1.5px;
      }

      .cls-1, .cls-2, .cls-3, .cls-4, .cls-5, .cls-6 {
        fill: none;
        stroke: #f9c9de;
        stroke-miterlimit: 10;
      }

      .cls-2 {
        stroke-width: 3px;
      }

      .cls-3 {
        stroke-width: 1.3px;
      }

      .cls-4 {
        stroke-width: 2px;
      }

      .cls-6 {
        stroke-width: .5px;
      }
    </style>
  </defs>
  <g id="Layer_1-2" data-name="Layer 1">
    <g>
      <path class="cls-2" d="m13.6,44.53c-.45-1.74-.89-3.91-1.13-6.42-.47-4.86.02-8.79.38-10.95.1-.6.57-2.54,1.51-6.42,1.06-4.38,1.59-6.31,1.51-9.06-.03-1.13-.07-2.38-.5-3.99-.53-1.98-1.26-2.99-1.01-3.19.36-.28,2.01,1.64,5.28,4.15,1.87,1.44,2.84,2.17,4.15,2.64.92.33,3.1,1.09,5.66.38,2.29-.64,3.68-2.11,4.53-3.02,1.06-1.12,1.66-2.2,1.92-2.71,1.3-2.5,1.19-4.46,1.47-4.46.39,0,.44,3.69,1.06,7.83.42,2.82.96,4.79,2.04,8.71,1.25,4.56,2.15,7.8,3.82,11.75,1.88,4.42,2.84,5.25,6.22,11.29,4,7.14,6.49,12.91,9.68,20.28,2.53,5.86,3.8,8.79,4.84,11.98,2.81,8.63,3.85,16.13,4.38,20.05.36,2.69.17,1.86.92,8.76,1.41,12.9,1.71,12.3,2.07,17.28.44,6.11.92,12.78-.46,20.74-.58,3.31-1.2,5.27-1.61,9.68-.18,1.93-.36,4.75-.92,8.99-.45,3.4-.8,5.06-2.07,6.68-.58.74-1.79,2.03-3.69,2.77-1.9.74-3.73.49-7.37,0-1.1-.15-3.81-.57-5.17-.79-.49-.08-.77-.12-.82-.13-4.38-.7-14.06.92-14.06.92-1.98.33-5.99.91-10.83.92-8.91.02-10.29-1.89-14.75-.23-1.98.73-3.86,1.91-5.99,1.15-1.32-.46-2.57-1.6-3-3-1.03-3.34,2.7-8,6.91-9.45,3.23-1.11,6.2-.14,9.45.92,2.32.76,5.11,1.67,7.6,4.15,1.67,1.66,2.69,3.5,3.46,3.23.61-.22.19-1.48.92-3,1.11-2.3,3.87-3.11,5.07-3.46,2.74-.8,5.04-.28,6.22,0,3.88.92,7.1,3.5,8.07,4.61.13.15.55.65,1.26,1.12.7.46,1.37.7,1.87.83"/>
      <path class="cls-2" d="m7.57,152.15c.05-.64.09-1.62,0-2.81-.18-2.34-.77-3.83-1.14-5.2-.43-1.56-.5-3.35-.62-6.87-.15-4.36-.02-7.77.1-10.61.35-8.04.53-12.06.73-14.04.96-9.41,2.19-10.52,1.35-15.19-.28-1.56-.88-4.04-1.77-7.7-1.3-5.37-1.3-4.76-1.56-6.24-.94-5.36-.27-9.25.31-12.59.5-2.9,1.08-4.49,2.39-5.72.34-.32,1.54-1.41,3.33-1.56.45-.04,2.28-.19,3.02.94.43.66.28,1.46.21,1.87-.27,1.45-1.2,1.99-1.87,3.02-1,1.52-.87,3.19-.73,5.1.12,1.54.77,3.18,2.08,6.45,1.38,3.46,1.7,3.54,1.98,5.1.13.72.25,1.81.83,3.22.36.87.75,1.54,1.04,1.98"/>
      <path class="cls-2" d="m48.86,88.6c-.59.3-1.4.68-2.39,1.04-1.05.38-2.57.92-4.58,1.04-.93.05-2.89.15-5.2-.73-2.37-.9-3.78-2.32-4.06-2.6-1.79-1.84-2.42-3.84-2.7-4.78-.6-2-.09-2.08-.73-4.68-.51-2.1-.87-2.16-1.56-4.78-.42-1.63-.56-2.66-.73-3.95-.27-2.11-.19-2.94.1-3.74.16-.43.65-1.76,1.56-1.87.24-.03.75,0,1.77,1.14,1.14,1.3,1.76,2.72,2.29,4.37.84,2.63.45,2.72,1.14,4.26.48,1.07,1.12,1.89,2.39,3.54,1.4,1.8,2.11,2.71,3.02,3.12,1.27.57,2.47.44,3.64.31,1.82-.2,3.25-.84,4.16-1.35"/>
      <path class="cls-3" d="m23.9,78.82c-1.53,0-3.28-.06-5.2-.21-2.41-.18-5.42-.54-5.41-.62.02-.26,11.75,1.25,13.21.83.71-.2,1.35-.52,1.35-.52.27-.13.49-.26.65-.36"/>
      <path class="cls-3" d="m6.06,62.98c-.03-.73-.06-1.83-.08-3.17-.02-1.6-.04-2.68,0-4.02.1-3.95.51-5.27-.46-6.49-.27-.34-.62-.65-.54-.77.16-.25,1.73.62,3.4,1.24,1.84.68,2.05.42,5.8,1.16,4.38.87,4.83,1.38,6.73,1.16,1.15-.14,2.03-.48,3.79-1.16.98-.38,3-1.18,5.41-2.71,2.89-1.83,4.38-3.47,5.03-3.02.28.2.25.67.23,1.01-.11,2.3.49,4.59.7,6.88.03.33.33,1.87.93,4.95.63,3.24.94,4.86,1.31,6.57.85,3.94,1.28,5.91,1.39,6.11.17.28.7,1.13.39,1.62-.21.32-.58.18-1.39.46-.56.19-.63.35-2.16,1.31-.43.27-.78.48-1.01.62"/>
      <path class="cls-3" d="m20.75,52.85c.14.39.35.97.54,1.7.46,1.71.57,3.04.62,3.56.33,3.59.96,4.16,1.31,8.04.18,2,.04,2.13.15,5.34.11,3.15.34,5.7.52,7.34"/>
      <path class="cls-1" d="m27.44,29.82c-.44.03-.79.02-1.03,0-.71-.05-1.11-.17-1.91-.18-.76,0-.83.1-.85.15-.08.2.27.59.65.79.37.2.51.08.94.29.2.1.48.24.65.53.11.18.12.45.15.97.01.27.02.52,0,.85-.04.54-.15.95-.18,1.06-.07.27-.29,1.03-.88,1.73-.79.94-1.8,1.27-2.23,1.38"/>
      <path class="cls-1" d="m30.23,35.92c-.18.04-.46.08-.79.03-.59-.09-.97-.42-1.32-.73-.28-.24-.86-.76-1.17-1.64-.19-.53-.21-.99-.23-1.38-.02-.44-.03-.67.03-.82.16-.37.47-.47,1.47-1.23.29-.22.41-.32.38-.41-.05-.18-.67-.16-1.12-.15-.14,0-.24.01-.73.06-1.08.1-1.25.14-1.46.24-.15.08-.36.21-.58.46"/>
      <path class="cls-6" d="m32.02,28.16c.56-.08,1.35-.2,2.28-.4,1.14-.24,2.44-.58,4.7-1.36,1.82-.63,3.64-1.26,5.97-2.33.86-.39,2.45-1.14,4.04-1.67.53-.18,1.54-.48,2.85-.61.24-.02.44-.04.57-.04"/>
      <path class="cls-6" d="m32.02,27.63c1.82-.64,3.29-1.29,4.35-1.8,1.32-.63,2.39-1.22,3.03-1.58,1.9-1.06,1.96-1.22,3.42-1.98,1.13-.59,1.21-.55,2.98-1.45,1.72-.87,2.2-1.19,2.46-1.36,1-.68,1.73-1.38,2.19-1.89"/>
      <path class="cls-6" d="m32.02,28.87c.72.06,1.82.12,3.16,0,.93-.08,1.92-.29,3.86-.7,1.67-.35,2.92-.65,3.34-.75,1.97-.47,2.96-.7,4.17-1.05,1.46-.43,1.76-.58,2.9-.83.8-.18,1.78-.35,2.98-.31.27,0,.5.03.66.04"/>
      <path class="cls-6" d="m20.83,29.83c-.4-.19-.93-.43-1.58-.66-.51-.18-1.35-.45-2.55-.66-1.53-.27-1.64-.1-3.12-.31-.73-.1-2.25-.36-3.99-1.01-.62-.23-1.29-.53-2.63-1.14-.75-.34-1.37-.63-1.8-.83"/>
      <path class="cls-6" d="m21.05,30.66c-.69-.22-1.71-.49-2.98-.66-.43-.06-.73-.08-2.77-.18-2.89-.14-2.77-.11-3.91-.18-2.42-.14-2.33-.22-3.16-.18-.92.05-1.51.17-2.63.13-.73-.03-1.32-.11-1.71-.18"/>
      <path class="cls-6" d="m20.31,30.68c-.27.03-2.47.26-2.74.28-1.21.13-1.6.2-2.4.25-.67.04-1.17.05-2.17.05-1.6.01-1.69-.03-2.4.02-.4.03-.99.12-2.15.3-2.06.32-2.72.48-2.96.53-.66.16-1.19.31-1.55.43"/>
      <path class="cls-5" d="m21.76,23.22c.08.15.21.35.42.55.23.23.47.48.85.55.08.02.66.13,1.04-.28.22-.23.37-.63.23-.95-.18-.39-.72-.46-1.15-.51-.66-.08-1.03.05-1.68.14-.38.05-1.05.05-2.4.05-.88,0-1.42-.03-2.1-.23-.2-.06-.35-.12-.46-.16"/>
      <path class="cls-5" d="m30.71,22.14c-.01.14-.06.39-.23.62-.35.48-.94.52-1.15.53-.22.01-.8.06-1.18-.35-.16-.17-.37-.51-.25-.78.06-.15.22-.26.69-.37.59-.14,1-.12,1.43-.14.32-.01,1.03-.04,1.78-.25.11-.03.37-.11,1.32-.55.43-.2,1.04-.5,1.75-.88"/>
      <path class="cls-4" d="m86.98,17.32c-.21-.74-1.4-.22-1.83-.03-4.78,2.1-7.62,7.13-7.62,7.13-5.95,10.54-7.18,24.23-7.18,24.23-.32,3.62-1.24,16.84,3.46,31.32,2.8,8.63,4.36,7.74,7.94,17.6,3.17,8.75,6.87,18.92,5.18,30.41-1.85,12.64-9.04,18.84-10.38,19.94-2.05,1.68-4.05,3.31-5.97,4.04.04.91.08,1.83.11,2.74,0,.08,0,.16,0,.24,4.89-1.52,8.26-4.6,8.26-4.6,1.78-1.63,6.81-6.38,9.62-16.09,1.96-6.77,1.9-12.7,1.88-13.94-.1-5.6-1.17-9.77-2.18-13.71-1.4-5.49-3.14-9.69-5.18-14.59-1.23-2.96-2.3-5.27-2.77-6.25-1.75-3.71-2.69-5.26-3.43-6.77-2.55-5.2-3.13-10.71-3.66-15.75-.77-7.28-.19-12.8.25-16.77.84-7.57,2.42-12.61,3.06-14.5,1.15-3.41,1.72-5.11,2.98-6.72.65-.82,3.87-4.62,6.36-5.59.19-.07.92-.2,1.16-.97.14-.42.09-.78-.08-1.38Z"/>
    </g>
  </g>
</svg>