<?xml version="1.0" encoding="UTF-8"?>
<svg id="Layer_2" data-name="Layer 2" xmlns="http://www.w3.org/2000/svg" xmlns:xlink="http://www.w3.org/1999/xlink" viewBox="0 0 37.35 27.02">
  <defs>
    <style>
      .cls-1 {
        clip-path: url(#clippath);
      }

      .cls-2 {
        fill: none;
        stroke-width: 0px;
      }

      .cls-3 {
        fill: #faf5c4;
        stroke: #33161a;
      }

      .cls-3, .cls-4 {
        stroke-miterlimit: 10;
      }

      .cls-4 {
        fill: #fa9600;
        stroke: #3c2415;
      }
    </style>
    <clipPath id="clippath">
      <rect class="cls-2" width="37.35" height="27.02"/>
    </clipPath>
  </defs>
  <g id="Layer_1-2" data-name="Layer 1">
    <g class="cls-1">
      <g>
        <path class="cls-3" d="m.37,5S5.94.89,10.22,1.93c.64.16,2.91.83,5.43,1.77,0,0,.02,0,.02,0,.48,6.94.96,13.87,1.44,20.81-1.2-.24-2.51-.42-3.94-.49-5.5-.27-10.01,1.25-12.9,2.57,0,0,.1-21.6.1-21.6h0Z"/>
        <path class="cls-3" d="m1.81,3.43C3.12,2.57,6.71.44,11.55.74c2.39.15,4.29.84,5.54,1.42,0,0,.02,0,.02,0v22.35c-3.06-1.32-5.56-1.56-7.33-1.5-3.64.12-8.07,1.59-8.07,1.59.03-6.8.06-13.6.1-20.39,0-.26,0-.52,0-.79Z"/>
        <path class="cls-3" d="m36.98,5S31.54.89,27.36,1.93c-.62.16-2.84.83-5.3,1.77,0,0-.02,0-.02,0-.47,6.94-.94,13.87-1.41,20.81,1.17-.24,2.45-.42,3.85-.49,5.37-.27,9.78,1.25,12.6,2.57,0,0-.1-21.6-.1-21.6h0Z"/>
        <path class="cls-3" d="m35.67,3.43c-1.01-.77-4.13-2.96-8.62-2.96-3.13,0-5.49,1.06-6.66,1.69,0,0-.02,0-.02,0v22.35c3.06-1.32,5.56-1.56,7.33-1.5,3.64.12,8.07,1.59,8.07,1.59-.03-7.06-.07-14.12-.1-21.18Z"/>
        <path class="cls-4" d="m17.39,2.25c-.07,6.45-.24,22.28-.24,22.28,0,0,1.46.41,1.46.41.82.03,1.56-.38,1.7-.45,0,0,.01,0,.02,0l-.09-22.3c-.35-.1-.84-.19-1.43-.18-.41,0-.76.07-1.04.13-.13.04-.25.08-.38.12Z"/>
      </g>
    </g>
  </g>
</svg>