<?xml version="1.0" encoding="UTF-8"?>
<svg id="Layer_2" data-name="Layer 2" xmlns="http://www.w3.org/2000/svg" viewBox="0 0 58.21 57">
  <defs>
    <style>
      .cls-1 {
        fill: #faf5c3;
        stroke-width: 0px;
      }
    </style>
  </defs>
  <g id="Layer_1-2" data-name="Layer 1">
    <path class="cls-1" d="m43.68,0c1.99,0,3.87.37,5.63,1.12s3.3,1.77,4.63,3.06,2.36,2.8,3.13,4.53c.76,1.73,1.15,3.56,1.15,5.52v28.47c0,1.95-.38,3.8-1.15,5.55-.77,1.75-1.81,3.27-3.13,4.56-1.32,1.29-2.86,2.31-4.63,3.06-1.76.75-3.64,1.12-5.63,1.12H14.54c-1.99,0-3.87-.38-5.63-1.12-1.76-.75-3.3-1.77-4.63-3.06-1.32-1.29-2.36-2.82-3.13-4.56-.77-1.75-1.15-3.6-1.15-5.55V14.23c0-1.95.38-3.79,1.15-5.52.77-1.73,1.81-3.23,3.13-4.53,1.32-1.29,2.86-2.32,4.63-3.06,1.76-.75,3.64-1.12,5.63-1.12h29.14ZM12.52,29.01c-.97.82-1.46,1.81-1.46,3s.49,2.2,1.46,2.93v-5.92Zm2.99-.89h-.35c-.23,0-.43.01-.59.03s-.36.06-.59.1v7.49c.23.04.43.08.59.1s.36.03.59.03h.35v-7.76Zm3.06-2.04c-.6.73-1.02,1.61-1.25,2.66-.05-.04-.09-.08-.14-.1-.05-.02-.09-.06-.14-.1v7.35h1.53v-9.81Zm2.99-2.11c-.28.09-.54.2-.8.34s-.5.27-.73.41v11.17h1.53v-11.92Zm3.06-.2c-.19-.05-.35-.08-.49-.1-.14-.02-.3-.03-.49-.03-.09,0-.19.01-.28.03-.09.02-.19.03-.28.03v12.19h1.53v-12.12Zm2.99-.14c-.09.18-.21.34-.35.48-.14.14-.25.27-.35.41-.51-.27-1.02-.48-1.53-.61v11.99h2.23v-12.26Zm15.16,12.26c1.48-.09,2.58-.54,3.3-1.36.72-.82,1.08-1.79,1.08-2.93s-.41-2.18-1.22-3c-.81-.82-1.84-1.23-3.09-1.23-.51,0-1.07.11-1.67.34-.23-1.86-1.07-3.44-2.5-4.73-1.44-1.29-3.15-1.94-5.15-1.94-1.02,0-1.96.17-2.82.51-.86.34-1.63.81-2.33,1.4v12.94h14.4Z"/>
  </g>
</svg>