<?xml version="1.0" encoding="UTF-8"?>
<svg id="Layer_2" data-name="Layer 2" xmlns="http://www.w3.org/2000/svg" viewBox="0 0 119.95 132.33">
  <defs>
    <style>
      .cls-1 {
        stroke-width: 2px;
      }

      .cls-1, .cls-2 {
        fill: none;
        stroke: #f2cbdd;
        stroke-miterlimit: 10;
      }

      .cls-3 {
        fill: #f2cbdd;
        stroke-width: 0px;
      }

      .cls-2 {
        stroke-width: .5px;
      }
    </style>
  </defs>
  <g id="Layer_1-2" data-name="Layer 1">
    <path class="cls-1" d="m55.12,31.02c.54-1.33,1.22-2.8,2.57-5.73,2.21-4.78,2.28-4.64,2.96-6.32,1.67-4.13,2.29-7.67,2.57-9.28.89-5.25.53-8.62,1.18-8.69.7-.08,1.82,3.79,1.97,4.34.6,2.09.71,3.56.99,3.55.29,0,.49-1.62.6-2.58.31-2.55.15-4.1.38-4.13.28-.04.42,2.27,1.97,4.54.95,1.38,2.02,2.18,2.57,2.57,3.13,2.26,6.7,2.2,8.29,2.17,1.58-.03,7.15-.12,10.66-3.95,2.49-2.71,2.8-6.06,3.36-5.92,0,0,.32.08.2,5.53,0,0,1.7-1,2.76-2.37.95-1.23,1.11-2.39,1.18-2.37.15.04-1.22,4.47-2.17,9.87-.5,2.85-.75,4.3-.59,5.73.4,3.65,2.33,6.24,3.75,8.1,2.5,3.27,3.99,3.62,6.91,6.52,3.45,3.42,5.26,6.77,6.52,9.08,3.65,6.74,4.3,12.83,4.94,18.76.39,3.6.26,8.13,0,17.18-.25,8.62-.68,11.8-1.58,15.2-1.16,4.36-2.69,7.59-3.55,9.28-1.1,2.14-2.45,4.76-4.74,7.31-1.32,1.47-3.13,3.1-10.86,7.11-7.48,3.87-11.22,5.81-15.01,6.52-5.11.95-9.16.43-12.24,0-3.1-.43-10.18-1.48-17.38-6.32-2.5-1.68-4.68-3.14-6.71-5.92-1.86-2.54-2.85-6.14-4.74-13.23-.93-3.48-1.77-6.65-2.57-11.06-.71-3.89-1.22-6.72-1.38-10.66-.24-5.81.44-10.11.59-11.06.64-3.91,1.17-7.14,3.16-10.86.9-1.69,2.44-3.69,5.53-7.7,3.55-4.62,3.65-4.3,4.54-5.92,1.66-3.03,1.11-3.74,3.36-9.28Z"/>
    <path class="cls-1" d="m40.23,59.27c.34.66.83,1.54,1.49,2.53,1.58,2.39,3.09,3.86,3.39,4.16,1.15,1.12,1.73,1.68,2.49,2.08,1.23.65,2.14.62,8.46.09,2.58-.22,3.9-.34,5.3-1,.63-.3,1.76-.84,2.76-1.99.48-.54.69-.96,1.9-3.98.28-.7.94-2.35,1.67-4.62.38-1.17.67-2.14.45-3.35-.09-.48-.26-1.44-.91-1.72-.51-.22-1.12.08-2.26.86-1.81,1.24-3.01,2.35-4.16,3.35-1.47,1.27-2.21,1.91-2.85,2.26-.96.53-2.81,1.54-4.89,1.09-1.42-.31-2.32-1.16-3.58-2.35-.67-.64-.96-1.03-2.72-3.26-.92-1.16-1.67-2.1-2.13-2.67"/>
    <path class="cls-1" d="m117.81,59.76c-.58.44-1.45,1.1-2.49,1.9-3.28,2.53-3.71,2.96-4.84,3.8-1.84,1.38-4.53,3.38-8.37,4.57-1.79.55-3.67,1.12-6.11.77-.91-.13-2.99-.45-4.93-2.04-.69-.56-1.92-1.56-2.49-3.35-.17-.54-.91-2.84.45-4.8.2-.3,1.06-1.44,2.53-1.81.4-.1,1.12-.21,4.21.77,2.17.69,2.11.83,3.03,1.04,1.92.43,3.47.09,5.11-.27,2.75-.6,4.58-1.69,6.16-2.63,2.59-1.53,3.38-2.61,3.76-3.21.46-.73.71-1.41.86-1.9"/>
    <path class="cls-1" d="m77.38,125.75c-4.13-3.65-7.38-5-9.09-5.55-1.09-.35-3.4-.98-5.72-1.51-.95-.22-1.98-.45-3.2-.67-1.13-.2-4.84-.83-9.93-.67-3.6.11-4.68.51-5.39.84-.36.17-1.84.9-3.2,2.52-.53.64-3.1,3.71-2.02,5.89.51,1.01,1.6,1.42,2.36,1.68,2.59.91,4.76.11,6.9-.34,1.13-.23,4.06-.1,9.93.17,5.19.24,6.09.48,10.27.5,5.82.03,7.11-.43,8.08-1.01.55-.33,1.42-.94,2.69-1.01,1.64-.09,2.88.77,3.53,1.18,1.39.86,3.79,1.31,8.58,2.19,4.03.74,3.77.17,9.59.84,0,0,10.49,1.2,14.64,0,.29-.08.79-.26,1.18-.7.6-.68.66-1.68.42-3.29-.34-2.28-.55-3.76-1.62-5.51-1.31-2.16-2.99-3.23-4.97-4.49-2.53-1.61-4.67-2.24-5.21-2.4-2.13-.6-3.92-1.11-5.99-.48-1.43.44-2.63,1.31-3.47,1.92-1.03.74-1.24,1.08-2.22,1.86-1.62,1.29-2.01,1.15-3.89,2.4-3,1.98-3.57,3.37-6.35,4.37-.51.18-.94.3-1.2.36"/>
    <path class="cls-2" d="m73.82,28.01c.14-.31.4-.79.85-1.31,1.25-1.45,3.1-2.36,2.71-2.31-.72.1-1.16.02-2.11-.69-2.53-1.91-5.56-2.22-6.29-1.87-.43.21-.02,1.21.25,1.68,0,0,.9,1.56,4.67,2.56.51.13.98.12.98.12.09,0,.16,0,.2-.01"/>
    <path class="cls-2" d="m85.36,28.01c-.14-.31-.38-.79-.8-1.31-1.18-1.45-2.92-2.36-2.55-2.31.67.1,1.1.02,1.98-.69,2.38-1.91,5.23-2.22,5.92-1.87.41.21.02,1.21-.24,1.68,0,0-.85,1.56-4.39,2.56-.48.13-.92.12-.92.12-.08,0-.15,0-.19-.01"/>
    <path class="cls-2" d="m81.29,31.49c-.29-.01-.86.03-1.58,0-1.3-.07-1.59-.1-1.66.06-.18.39,1.2,1.6,1.5,1.8.02.01.09.06.15.14.14.18.12.41.12.51-.05.95.02.71-.06,1.28-.08.53-.11.8-.23,1.11-.08.2-.19.48-.41.75-.28.34-.63.49-1.31.77-.7.29-1.06.43-1.57.43-.4,0-.73-.1-.95-.18"/>
    <path class="cls-2" d="m84.19,38.22c-.29.11-.91.3-1.63.12-1.13-.28-1.69-1.28-1.96-1.75-.3-.53-.38-1.01-.54-1.96-.09-.52-.11-.89.1-1.2.11-.17.21-.2.48-.4.53-.38,1.25-1.07,1.12-1.34-.07-.15-.38-.18-.51-.19-.05,0-.06,0-.36.02-.45.04-.52.04-.67.06-.19.03-.18.04-.3.05-.25.03-.45.01-.51,0-.17-.02-.29-.05-.53-.11-.14-.04-.26-.07-.35-.1"/>
    <path class="cls-3" d="m97.58,23.04c-1.14,2.01-3.11,3.46-5.16,4.45,0,0-.24-.44-.24-.44.93-.61,1.81-1.28,2.64-2,.86-.72,1.5-1.6,2.37-2.31,0,0,.4.3.4.3h0Z"/>
    <path class="cls-3" d="m98.66,24.84c-.23.73-.7,1.27-1.2,1.77-1.47,1.52-3.27,2.94-5.37,3.42,0,0-.18-.47-.18-.47,1.84-.93,3.29-2.31,4.71-3.8.47-.5.95-.98,1.67-1.26l.37.33h0Z"/>
    <path class="cls-3" d="m100.76,27.66c-1.7,1.9-4.09,3.3-6.62,3.66,0,0-.1-.49-.1-.49,1.77-.53,3.35-1.46,4.8-2.6.49-.37,1-.71,1.61-.95l.32.38h0Z"/>
    <path class="cls-3" d="m58.63,24.73c.43.02.69.21.93.43,1.7,1.52,3.67,2.69,5.76,3.63,0,0-.16.47-.16.47-1.33-.3-2.6-.85-3.79-1.51-.88-.52-1.73-1.11-2.5-1.78-.26-.22-.51-.46-.59-.87l.34-.36h0Z"/>
    <path class="cls-3" d="m57.13,28.51c.82.24,1.21.82,1.78,1.26,1.65,1.43,3.67,2.26,5.63,3.2,0,0-.14.48-.14.48-.73-.18-1.46-.39-2.19-.61-1.44-.47-2.86-1.18-4.04-2.16-.58-.5-1.26-.96-1.41-1.85l.38-.33h0Z"/>
    <path class="cls-3" d="m55.57,32.42c.83.53,1.19,1.37,1.88,2.02,1.92,1.96,4.44,3.3,7.16,3.8,0,0-.06.5-.06.5-3.41-.19-6.69-2.01-8.8-4.7-.31-.38-.56-.82-.61-1.35l.43-.26h0Z"/>
    <path class="cls-1" d="m116.42,26.07c.07.04.83.48.79,1.01-.05.59-1.06.88-1.68.9-.21,0-1.47.05-1.91-.9-.32-.68-.12-1.65.56-2.02.69-.38,1.7-.04,1.87.46.08.24-.03.48-.1.62-.66,1.27-1.97,1.81-3.04,2.77-.48.43-.68.74-1.54,2.02-1.46,2.17-3.02,4.28-4.41,6.5,0,0-2.61,4.17-7.69,11.87-1.39,2.1-3.51,5.25-6.26,9.1"/>
    <path class="cls-1" d="m33.32,20.97c-.07.05-.82.67-.68,1.25.16.64,1.31.79,1.99.7.23-.03,1.61-.2,1.93-1.32.23-.8-.15-1.84-.96-2.13-.82-.3-1.86.24-1.96.83-.05.28.12.52.22.66.94,1.29,2.46,1.65,3.8,2.53.6.4.87.7,2.03,1.96,1.97,2.15,4.04,4.2,5.94,6.41,0,0,3.57,4.16,10.45,11.77,1.87,2.08,4.74,5.19,8.4,8.96"/>
    <path class="cls-1" d="m68.67,56.38l4.57,4.57,1.86,1.86"/>
    <path class="cls-1" d="m86.94,59.8c-2.75.35-5.06.74-6.78,1.07-9.34,1.78-7.94,2.77-12.35,3.28-.64.07-1.99.21-2.93,1.21-.72.78-.93,1.8-1,3.35-.09,2.25-.19,4.46.93,7.49.72,1.97,1.8,3.5,3.93,6.5,3.38,4.76,4.09,4.75,5.07,7.14.47,1.16,1.44,3.93,1.07,7.42-.21,2.05-.79,3.43-1.71,5.64-1.16,2.77-1.87,4.4-3.64,5.5-1.28.79-2.53.93-3.21,1-2.61.26-4.2-.77-6.57-1.57-2.74-.93-4.85-.98-8.49-1.07-3.44-.09-6.15-.15-9.42,1.07-.74.28-2.39,1.25-5.71,3.21-1.21.71-2.28,1.37-3.07,2.64-.29.47-.18.43-.93,1.86-.79,1.49-1.4,2.46-1.61,2.79,0,0-.47.73-.96,1.42-1.65,2.31-4.04,5.64-7.64,7.14-3.25,1.35-6.3.71-8.64.21-2.17-.46-5.75-1.21-8.49-4.21-3.38-3.7-3.32-8.46-3.28-11.28.03-2.55.1-7.63,3.93-11.85.91-1,3.94-4.06,8.85-4.71,4-.53,7.05.82,8.21,1.36,1.25.58,4.62,2.33,6.92,6.21,2.2,3.7,2.16,7.21,2.14,9.56-.02,1.94-.38,3.23-.5,3.64-.16.53-.53,1.33-1.28,2.91-1.42,3-1.85,3.66-2.43,4.33-.54.62-1.05,1.06-1.39,1.35-1.01.87-1.97,1.46-2.68,1.85"/>
    <path class="cls-2" d="m14.48,95.93c-1.06.35-2.66,1.02-4.2,2.37-.9.79-1.98,1.99-3.77,5.82-1.34,2.86-2.4,4.86-3.02,7.86-.46,2.24-.81,3.95-.25,6.11.12.48.84,3.09,2.77,4.77,4.28,3.72,13.28,1.84,17.63-2.91,1.15-1.25,2.19-3.5,4.27-8,1.63-3.53,2.44-5.31,2.09-6.23-1.54-3.96-13.57-3.3-21.18-.05-3.65,1.56-5.28,3.29-6.09,5.14-.75,1.71-.68,3.26-.64,4,.23,4.06,3.07,8.94,7.95,10.68,6.93,2.47,12.96-3.17,13.63-3.82,2.2-2.12,3.29-4.65,4.68-7.86,1.24-2.86,2.83-4.75,2.32-7.18-.18-.86-.51-1.44-.91-2.12-2.33-3.99-6.67-5.82-10.16-7.24-1.02-.42-2.48-.96-4.28-1.46"/>
    <path class="cls-2" d="m14.96,95.44c-.54.66-1.27,1.59-2.11,2.71-.92,1.22-1.97,2.63-3.03,4.32-1.4,2.23-2.35,3.73-3.08,5.97-.84,2.56-.95,4.73-.96,5.83-.01,1.31-.01,3.89,1.19,6.84.84,2.07,1.53,3.73,3.12,4.82,3.91,2.67,10.55-.01,13.82-3.21,1.19-1.16,2.26-2.71,2.39-2.89.67-.97,1.18-1.88,2.89-5.51.49-1.03,1.11-2.37,1.84-3.95"/>
    <path class="cls-2" d="m29.63,105.31c-.92-.44-2.27-.98-3.96-1.31-.65-.13-2.17-.38-7.12.11-6,.6-7.94,1.38-8.86,1.79-1.21.55-2.02,1.06-2.29,1.23-1.6,1.05-3.42,2.74-4.27,4.15-.54.91-.67,1.66-.7,1.84-.04.26-.05.45-.05.66-.02.53,0,1.29.2,2.24"/>
    <path class="cls-2" d="m28.2,104.92c-.26.96-.65,2.33-1.15,3.96-1.58,5.21-2.27,6.48-2.65,7.13-.86,1.47-1.78,2.58-2.45,3.38-.77.93-1.52,1.82-2.71,2.81-.51.42-1.36,1.09-2.53,1.75-1.13.65-2.71,1.54-4.92,1.86-.84.12-1.54.13-2,.12"/>
    <path class="cls-2" d="m18.4,103.21c-.69-.52-1.4-1.04-2.13-1.56-.72-.51-1.17-.82-1.76-1.22-.68-.47-1.26-.86-2.05-1.31-.09-.05-.17-.1-.22-.13"/>
    <path class="cls-2" d="m18.4,103.21c-.69-.52-1.4-1.04-2.13-1.56-.72-.51-1.17-.82-1.76-1.22-.68-.47-1.26-.86-2.05-1.31-.09-.05-.17-.1-.22-.13"/>
    <path class="cls-2" d="m18.4,103.21c-.69-.52-1.4-1.04-2.13-1.56-.72-.51-1.17-.82-1.76-1.22-.68-.47-1.26-.86-2.05-1.31-.09-.05-.17-.1-.22-.13"/>
    <path class="cls-2" d="m16.44,103.57c-.56-.42-1.15-.83-1.75-1.25-.59-.41-.96-.66-1.44-.98-.56-.37-1.04-.69-1.68-1.05-.08-.04-.14-.08-.18-.1"/>
    <path class="cls-2" d="m15.55,103.82c-.5-.37-1.02-.74-1.56-1.11-.52-.36-.86-.59-1.28-.87-.5-.33-.92-.61-1.5-.93-.07-.04-.12-.07-.16-.09"/>
    <path class="cls-2" d="m12.13,104.93c-.33-.23-.67-.46-1.02-.7-.34-.23-.56-.37-.84-.55-.32-.21-.6-.38-.98-.59-.04-.02-.08-.04-.1-.06"/>
    <path class="cls-2" d="m14.09,96.87c.41.2.98.5,1.65.87,2.24,1.25,3.78,2.42,4.77,3.18,1.05.8,1.92,1.46,2.24,1.88.02.03.11.15.14.13.07-.03-.21-.76-.45-1.24-.41-.83-.93-1.37-1.34-1.79-1.53-1.55-2.29-2.34-2.91-2.72-1.31-.8-2.58-1.12-3.09-1.25-.34-.08-.64-.14-.85-.17"/>
    <path class="cls-2" d="m27.23,104.55c-.71.06-1.67.15-2.8.29-1.35.18-3.97.52-7.07,1.38-3.38.94-2.91,1.25-8.42,3.1-.63.21-1.35.45-2.29.94-2.45,1.28-3.77,2.96-4.04,3.3-.45.58-1.06,1.49-1.55,2.73"/>
    <path class="cls-2" d="m27.24,107.46c-.28,0-.69-.01-1.18-.01-4.42,0-7.77.57-8.62.72-3.11.55-6.05,1.08-9.48,2.86-1.26.66-3.48,1.06-4.41,2.93-.23.47-.33.9-.38,1.2"/>
    <path class="cls-2" d="m12.32,109.09c.05.62.19,1.59.61,2.68.68,1.76,1.77,2.94,2.91,4,3.64,3.38,9.12,6.66,10.13,7.26"/>
    <path class="cls-2" d="m11.44,109.69c.05.62.19,1.59.61,2.68.68,1.76,1.77,2.94,2.91,4,3.64,3.38,9.12,6.66,10.13,7.26"/>
    <path class="cls-2" d="m9.95,110.21c.06.65.21,1.66.67,2.81.74,1.84,1.92,3.08,3.15,4.18,3.94,3.53,9.89,6.97,10.99,7.59"/>
    <path class="cls-2" d="m11.44,109.69c.05.62.19,1.59.61,2.68.68,1.76,1.77,2.94,2.91,4,3.64,3.38,9.12,6.66,10.13,7.26"/>
    <path class="cls-2" d="m9.95,110.21c.06.65.21,1.66.67,2.81.74,1.84,1.92,3.08,3.15,4.18,3.94,3.53,9.89,6.97,10.99,7.59"/>
    <path class="cls-2" d="m8.14,110.88c.06.65.21,1.66.67,2.81.74,1.84,1.92,3.08,3.15,4.18,3.94,3.53,9.89,6.97,10.99,7.59"/>
    <path class="cls-2" d="m7.77,109.76c-.02.97.04,2.45.57,4.13,1.06,3.38,3.27,5.36,5.42,7.27,1.56,1.39,3.78,3.33,7.3,4.46,1.55.5,2.9.69,3.84.78"/>
    <path class="cls-2" d="m6.58,110.43c-.02.95.04,2.41.56,4.07,1.03,3.33,3.19,5.27,5.28,7.16,1.52,1.37,3.68,3.27,7.11,4.39,1.51.49,2.82.68,3.75.77"/>
    <path class="cls-2" d="m21.86,107.61c-.18,1.7-.69,2.97-1.07,3.72-.6,1.19-1.28,1.99-1.88,2.67-.92,1.05-1.82,1.8-2.49,2.3"/>
    <path class="cls-2" d="m6.43,123.06c-1.09-1.32-1.63-2.57-1.91-3.37-.43-1.26-.52-2.3-.59-3.21-.11-1.4-.01-2.56.1-3.39"/>
    <path class="cls-2" d="m23.2,107.7c-.33,1.88-.95,3.23-1.39,4.04-.69,1.27-1.42,2.1-2.06,2.8-.99,1.09-1.93,1.85-2.62,2.35"/>
    <path class="cls-2" d="m25.09,107.41c-.45,2.17-1.29,3.73-1.88,4.65-.93,1.46-1.93,2.39-2.8,3.19-1.34,1.23-2.62,2.08-3.56,2.64"/>
    <path class="cls-2" d="m27.01,107.7c-.45,2.17-1.29,3.73-1.88,4.65-.93,1.46-1.93,2.39-2.8,3.19-1.34,1.23-2.62,2.08-3.56,2.64"/>
    <path class="cls-2" d="m15.33,124.71c-2.26-.99-3.76-2.23-4.63-3.07-1.38-1.32-2.17-2.58-2.84-3.67-1.04-1.69-1.69-3.22-2.08-4.33"/>
    <path class="cls-2" d="m2.54,112.64c-.53-2.15-.02-4.18.45-5.48.74-2.05,1.92-3.75,2.95-5.21,1.59-2.27,3.3-4.17,4.61-5.51"/>
    <path class="cls-2" d="m26.86,107.86c-.13,2.21-.73,3.87-1.18,4.87-.71,1.58-1.56,2.64-2.31,3.56-1.15,1.42-2.28,2.45-3.14,3.13"/>
    <path class="cls-2" d="m18.79,107.95c.08.66.13,1.82-.28,3.11-.84,2.67-2.94,3.66-3.31,3.82"/>
    <path class="cls-2" d="m17.13,107.95c.03.38.04,1.06-.09,1.8-.28,1.54-.99,2.12-1.12,2.21"/>
    <path class="cls-2" d="m13.54,109.18c.08.46.31,1.49.89,2.6.81,1.54,1.74,2.17,1.99,2.33"/>
    <path class="cls-2" d="m14.59,108.75c.05.41.19,1.34.78,2.29.81,1.32,1.89,1.78,2.19,1.9"/>
    <path class="cls-2" d="m.69,112.35c-.36-1.61-.86-4.81.21-8.6,1.09-3.89,3.24-6.29,3.78-6.88.92-.99,3.16-3.34,6.95-4.4,3.59-1,6.71-.34,8.39.21,2.63.85,2.8,1.75,7.64,4.61,2.95,1.74,4.49,2.65,6.4,3.3,5.99,2.04,11.62.17,12.11,0,7.98-2.77,11.23-10.49,12.17-12.73.95-2.26,1.41-4.35,1.99-7.02,1.37-6.24.42-6.69,1.72-10.66.71-2.17,2.53-7.52,7.15-9.49.2-.09.56-.21.92-.34,2.58-.87,4.81-1.08,6.32-1.12"/>
    <path class="cls-2" d="m86.62,58.97c.28.16.78.51.98,1.1.34.99-.38,1.99-.67,2.39-1.16,1.6-3.55,1.86-7.35,2.33-7.52.93.63.07-12.36,2.63-.45.09-1.79.35-2.45,1.41-.22.34-.47.96-.24,1.22.37.42,1.77-.26,2.69-.67.3-.13,2.51-.82,6.92-2.2,5.7-1.78,3.76-.64,7.1-1.78,1.14-.39,2.54-.92,3.61-.24.65.41,1.14,1.23.92,1.59-.27.45-1.6.08-2.26-.06-2.23-.48-4.99.48-10.53,2.39-5.68,1.96-5.81,2.9-7.16,3.18-.15.03-.72.14-.92.56-.23.47.12,1.05.16,1.12.55.89,1.93.99,2.7,1.02,4.24.19,7.12-.4,7.12-.4,8.05-1.64,9.46-2.6,10.29-3.89.22-.35.78-1.2.46-1.75-.63-1.09-4.28-.1-6.37.46-2.59.7-2.74,1.04-7.19,2.44-2.21.7-3.82,1.13-5.84.86-.95-.13-1.93-.41-1.95-.36-.02.06,1.75.7,3.3,1.02,3.07.65,8.53.76,12.47-1.58,1.65-.98,2.69-1.14,4.78-1.45.3-.04.84-.11.99.13.26.43-.87,1.53-1.19,1.85-1.59,1.56-3.5,2.41-7.22,3.69-2.35.81-4.19,1.37-5.87,2.14-1.3.6-.74.52-3.03,1.75-.32.17-.66.35-.63.46.07.26,1.94-.01,2.8-.16,2.37-.42,3.3-1.02,6.46-2.24,4.31-1.66,4.59-1.3,6.66-2.24,1.13-.51,1.86-.66,3.33-.96.43-.09.86-.16.89-.07.05.14-.83.57-1.22.76-2.43,1.18-5.03,2.25-5.71,2.54-2.54,1.08-1.95,1.22-6,3.27-.11.05-1.64.83-3.3,2.21-.25.21-1.07.9-.99,1.02.01.02.05.02.07.02.64-.02,1.18-.5,1.18-.5.76-.68,1.76-1.03,2.55-1.68,1.74-1.45,3.96-2.35,5.04-2.79,2.19-.89,1.89-.3,5.52-1.49,1.79-.58,3.4-1.23,3.7-.77.12.19-.02.48-.05.53-.41.82-1.83.64-3.46.86-2.33.32-4.05,1.31-5.28,2.02-.17.1-1.04.72-2.79,1.97-1.02.73-2.06,1.48-3.27,2.59-.47.43-1.34,1.23-1.25,1.34.1.13,1.34-.75,2.83-1.63,2.58-1.52,4.88-2.42,8.98-4.03,1.25-.49,1.7-.64,2.74-1.1,1.49-.68,2.25-1.15,2.35-1.01.12.16-.77,1.1-1.68,1.82-1.52,1.21-2.61,1.46-4.75,2.35-4.51,1.87-3.57,2.39-6.67,3.41-1,.33-2.44.72-2.59,1.58-.06.36.1.78.38,1.01.56.46,1.53.11,1.87,0,2.36-.79,4.95-.59,7.39-1.06,5.74-1.08,5.31-.86,6.1-1.15,1.66-.61,2.84-1.34,5.04-1.58,1.44-.16,2.64-.04,2.64,0,0,.07-3.42.08-9.56.38-4.32.22-4.89.33-7.54.38-3.21.07-8.38.03-8.4-.34-.02-.37,5.3.61,11.48-1.92,1.85-.76,5.36-2.47,9.17-2.16.34.03,1.57.13,1.58.38.02.33-1.98.63-3.84,1.1-.34.09-5.01,1.32-9.32,4.18-2.1,1.39-3.33,2.66-5.62,3.51-.17.06-.54.2-.53.29.05.29,4-.41,9.6-.91,7.15-.64,9.37-.26,11.91-2.02.53-.37,1.63-1.21,1.92-.96.31.28-.38,1.81-1.25,2.79-1.04,1.16-2.53,1.74-8.31,2.11-4.24.28-6.16.14-9.84.82-1.21.22-3.33.61-3.31.96.02.29,1.45.43,7.92.72,6.36.29,8.93.33,11.72-.38,1.48-.38,4.28-1.09,5.14-2.83.11-.23.35-.79.62-.77.39.03.7,1.19.72,2.11.03,1.38-.54,3.24-2.02,4.03-.7.37-1.36.38-1.73.38-3.2,0-4.8.01-7.15-.24-2.81-.3-1.76.05-7.15-.29-1.14-.07-3.13-.21-5.67.24-.13.02-2.33.42-2.3.67.02.21,1.54.2,2.88.24,2.06.06,4.27.34,8.69.91,6.07.78,4.72.95,7.2,1.15,1.5.12,2.9.83,4.37,1.15.24.05.82.17,1.06.62.24.44.05,1.02-.14,1.34-.39.64-1.3,1.01-3.03,1.01-2.58,0-4.11-.84-6.91-1.82-1.89-.66-.7-.11-7.06-1.87-1.96-.54-4.04-.42-6.05-.67-.28-.04-1.07-.13-1.63.34-.29.24-.6.69-.48,1.01.22.59,1.84.46,2.88.43,1.32-.03,3.68.46,8.4,1.44,4.62.96,3.85,1.2,5.81,1.39,4.58.44,7.77-.98,8.07-.24.23.58-1.6,1.79-1.73,1.87-1.8,1.17-3.89,1.5-6.24,1.34-3.25-.21-4.57-1.18-9.41-2.69-1.82-.57-3.74-.82-5.52-1.49-.41-.15-1.84-.7-2.63-.13-.04.03-.5.37-.43.62.04.13.19.19.39.26.62.22.93.34,1.12.36,1.08.14,6.31,2.88,6.72,3.09,1.59.83.32.07,8.53,3.52,1.54.65,3.06,1.29,4.48.64,1.01-.47,1.83-1.53,1.6-2.03-.26-.55-1.69-.1-3.84-.21-.87-.05-1.88-.19-4.8-1.17-5.91-1.99-6.84-3.59-11.09-4.39-2-.38-4.55-.54-4.69-.03-.1.36,1.01.91,4.5,2.69,7.91,4.02,7.64,3.96,8.25,4.16,1.93.65,3.85,1.06,6.32,2.67.74.49,1.4.78,1.34.97-.14.41-3.62-.39-4.83-.67-6.18-1.42-9.36-2.07-12.26-3.86-2-1.24-3.35-2.54-3.46-2.42-.11.13,1.22,1.8,3.12,3.17,2.46,1.77,3.29,1.18,8.26,3.49,1.57.73,2,1.03,3.87,1.84,1.64.71,2.45.98,2.41,1.14-.07.31-2.91.02-5.27-.38-2.94-.5-6.9-1.2-11.37-3.56-2.95-1.55-4.79-3.13-4.95-2.92-.15.19,1.19,1.72,2.92,2.98,1.64,1.2,2.25,1.14,7.18,3.49,0,0,1.13.54,2.92,1.46,2.33,1.2,3.49,1.8,3.43,1.97-.1.26-2.7-.3-5.21-1.21-3.35-1.21-3.03-1.78-6.92-3.37-1.68-.69-4-1.5-5.21-2.6-1.17-1.06-1.91-1.91-1.91-1.91-.38-.44-.48-.59-.51-.57-.11.07.84,2.98,3.18,4.7,1.17.86,1.19.32,3.94,1.78,1.48.79,1.89,1.16,3.56,1.97,1.59.77,2.38.99,2.35,1.08-.05.18-3.39-.42-6.86-1.78-1.94-.76-3.43-1.35-5.14-2.67-1.01-.78-2.54-1.95-3.68-4-.59-1.05-.86-1.95-1.02-1.91-.2.06-.13,1.59.51,3.05.79,1.81,2.08,2.63,1.91,2.86-.15.2-1.35-.25-2.35-1.14-1.19-1.06-.95-1.71-2.03-3.24-.2-.28-1.77-2.44-4.45-3.3-.79-.26-1.76-.43-1.84-.24-.08.2.93.6,2.21,1.63.41.33.59.51,2.8,2.96,1.57,1.73,1.98,2.21,1.84,2.43-.15.23-.84.1-1.31-.13-.42-.21-.66-.52-.75-.64-.56-.72-1.3-1.29-1.92-1.97-1.27-1.4-2.63-2.21-3.65-2.82-1.01-.6-2.45-1.34-2.56-1.17-.13.2,1.66,1.63,2.8,2.53.55.44,1.69,1.33,3.04,2.58,1.04.97,1.29,1.3,1.2,1.49-.2.42-1.61.49-2.45-.13-.05-.04-.19-.17-.45-.43-.65-.63-1.11-1.11-1.17-1.17-.65-.67-1.29-1.2-2.53-2.24-.35-.3-.97-.8-1.79-1.41-1.03-.77-1.55-1.16-1.65-1.07-.17.16.85,1.53,1.58,2.41.62.76,1.75,2.03,3.8,3.75,1.74,1.46,2.29,1.69,2.22,1.84-.2.43-5.13-.67-9.05-4.13-1.91-1.68-2.29-2.47-2.29-2.47-.26-.37-.48-.73-.59-.69-.18.07,0,1.29.54,2.35.58,1.17,1.45,1.87,2.55,2.73,1.29,1.01,2.16,1.4,2.12,1.48-.06.12-2.16-.49-4.1-1.96-1.68-1.27-2.52-1.91-2.83-2.5-.07-.13-.27-.54-.66-.64-.37-.09-.89.12-.99.43-.26.76,1.87,2.15,2.63,2.65,2.3,1.51,4.01,1.88,3.95,2.12-.06.24-2.01.3-3.9-.54-.55-.24-2.15-1.03-3.85-2.4-.41-.33-.96-.8-1.1-.69-.13.11.2.75.46,1.15.55.84,1.43,1.53,3.11,2.17,2.14.82,3.57.78,3.57,1.02,0,.25-1.62.49-3.06.51-1.95.03-3.2-.34-5.25-.94-1.42-.42-1.78-.65-1.86-.99-.14-.64.73-1.59,1.3-1.48.2.04.3.2.56.54.37.48.83.89,1.22,1.35.27.32,1.47,1.73,3.24,2.24.96.28,1.67.17,1.67.24,0,.13-2.44.23-3.95.28-2.6.1-3.18.04-3.87-.16-.95-.28-1.59-.7-1.71-.53-.13.18.43.91,1.14,1.38.26.17.78.47,2.44.73,1.55.24,2.27.16,2.28.28.02.18-1.57.64-3.26.57-.8-.03-1.58-.06-2.4-.53-.57-.32-.9-.7-1.02-.61-.14.11.11.87.61,1.42.75.84,2,1.16,3.05,1.02,1.05-.14,1.65-.7,1.71-.61.08.12-.87,1.33-2.32,1.55-1.12.17-2.3-.29-3.01-1.02-.52-.53-.7-1.12-.94-1.06-.22.06-.28.64-.2,1.06.1.5.41.82.49.9.12.11.51.45,1.63.53,1.17.08,1.89-.2,1.91-.13.03.1-1.17.75-2.61.76-.49,0-.92,0-1.47-.14-.67-.18-1-.44-1.21-.27-.19.15-.2.59,0,.81.09.11.22.17.8.19.64.02,1.04.04,1.6-.1.26-.06.63-.18,1.03-.39"/>
    <path class="cls-1" d="m27.08,124.85c.48.01,1.12,0,1.87-.06.13-.01,1.79-.17,3.08-.6,1.69-.56,1.91-1.29,5.43-4.04,1.13-.88,1.69-1.32,2.5-1.84,0,0,2.36-1.52,5.02-2.44,4.54-1.57,10.18-.75,11.48-.55,11.56,1.78,11.79,4.45,18.65,4.69,3.03.1,9.94-.18,16.17-4.71,3.52-2.56,5.64-5.62,6.75-7.55,1.08-1.87,2.78-5.37,3.2-10.04.25-2.78.51-5.67-.98-8.62-.79-1.56-1.11-1.24-5.33-5.6-3.81-3.93-5.26-5.97-6.31-7.73-.81-1.35-1.42-2.41-1.87-4-.47-1.71-1.13-4.09-.27-6.57,0,0,1.05-3,.99-4.41,0-.13-.02-.48-.24-.84,0,0-.21-.34-.57-.55-.77-.45-2.25.4-2.66.64,0,0-2,1.07-4.93,1.65-1.06.21-2.62.31-4.65-.27"/>
    <path class="cls-1" d="m23.32,126.44c.31-.35.94-.95,1.91-1.3,1.59-.58,2.98-.12,3.39.04"/>
  </g>
</svg>