<?xml version="1.0" encoding="UTF-8"?>
<svg id="Layer_2" data-name="Layer 2" xmlns="http://www.w3.org/2000/svg" viewBox="0 0 17.2 41.56">
  <defs>
    <style>
      .cls-1 {
        stroke-width: 1.5px;
      }

      .cls-1, .cls-2 {
        fill: none;
        stroke: #f9c9de;
        stroke-miterlimit: 10;
      }

      .cls-2 {
        stroke-width: .5px;
      }
    </style>
  </defs>
  <g id="Layer_1-2" data-name="Layer 1">
    <path class="cls-1" d="m2.88,2.1c-.22.5-.53,1.2-.87,2.06-.27.67-.56,1.41-.75,2.06-.6,1.97-.51,3.69-.48,4.36.08,1.43.15,2.67.91,4.08.32.6,1.29,2.18,3.25,3.13.63.31,2.01.97,3.72.67,1.59-.28,2.57-1.24,3.53-2.18,2.08-2.04,2.77-4.36,2.93-4.95.46-1.67.35-2.89.16-5.27-.05-.61-.43-5.24-1.43-5.31-.28-.02-.39.33-.91.83-.88.85-1.87,1.09-3.09,1.39-.82.2-2.95.69-5.23-.12-.27-.1-1.64-.6-1.58-1.01.04-.26.65-.38,1.19-.46,2.97-.48,5.7-.48,6.33-.49.63,0,1.6,0,2.78-.03"/>
    <path class="cls-1" d="m8.8,36.12h0c-.23.25-.58.59-1.05.95-2.88,2.21-6.24,1.79-6.27,2.28-.02.34,1.5.91,4.04,1.24,5.89.76,10.97-.59,10.93-1.05-.03-.28-1.94.16-4.28-1.05-.58-.3-1.83-.96-2.71-2.38-.52-.83-.71-1.61-.81-2.04-.31-1.34-.19-2.41-.14-2.9.2-2-.04-4.02-.05-6.03,0-1.47-.04-3.61-.21-6.24"/>
    <path class="cls-2" d="m14.82,8.91c-.84-.12-1.89-.24-3.09-.32-1.97-.14-3.47-.12-3.98-.11-2.74.05-3.6.11-4.43.32-.51.13-2.07.51-2.05.96.01.42,1.41.69,2,.8,1.65.32,2.57.18,4.86.11,0,0,3.99-.13,5.79-.77,0,0,.49-.17.93-.69.04-.05.14-.17.12-.28,0-.03-.03-.13-.03-.13h0s-.02-.05-.04-.08c-.01-.02-.02-.03-.04-.04"/>
    <path class="cls-2" d="m13.26,9.37c-.78-.04-1.74-.09-2.86-.12-1.82-.05-3.21-.04-3.67-.04-2.53.02-3.32.04-4.09.12-.47.05-1.91.2-1.9.36.01.16,1.3.26,1.85.3,1.53.12,2.38.07,4.48.04,0,0,3.68-.05,5.34-.29,0,0,.45-.07.86-.26.04-.02.13-.06.11-.11,0-.01-.02-.05-.02-.05h0s-.02-.02-.04-.03c-.01,0-.02-.01-.03-.02"/>
  </g>
</svg>