<?xml version="1.0" encoding="UTF-8"?>
<svg id="Layer_2" data-name="Layer 2" xmlns="http://www.w3.org/2000/svg" viewBox="0 0 162.01 250.83">
  <defs>
    <style>
      .cls-1 {
        stroke: #f2cbdd;
        stroke-width: 1.5px;
      }

      .cls-1, .cls-2 {
        fill: none;
        stroke-miterlimit: 10;
      }

      .cls-2 {
        stroke: #f2ccde;
      }
    </style>
  </defs>
  <g id="Layer_1-2" data-name="Layer 1">
    <path class="cls-1" d="m136.6,164.09c.75.4,2.26-.99,4.54-3.11,1.33-1.23,2.32-2.15,3.35-3.59,1.76-2.45,2.39-4.68,3.11-7.17.83-2.91,1.1-5.26,1.43-8.13.45-3.88.08-3.33.48-5.5.63-3.42,1.59-5.02.72-6.93-.55-1.21-1.16-1.04-1.43-2.15-.53-2.12,1.45-3.54.72-5.02-.5-1-1.59-.72-1.91-1.67-.37-1.13,1.09-1.71,1.43-3.83.24-1.49-.43-1.5-.24-3.59.12-1.34.47-2.1,0-2.63-.33-.37-.99-.54-1.36-.3-.2.13-.44.47,0,3.88.14,1.11.22,1.67.35,1.94.68,1.43,2.23,1.99,3.39,2.42.51.19,1.54.56,2.91.55,1.24,0,1.25-.31,2.22-.21.88.09,1.71.44,2.98.97.8.33,1.24.56,1.59.35.31-.19.49-.66.35-.97-.19-.42-.87-.31-2.35-.48-2.14-.25-2.02-.62-3.46-.62-.95,0-1.48.16-1.8-.21-.3-.34-.31-1.01,0-1.32.27-.26.62-.11,2.01,0,1.4.11,1.76.02,2.01-.07.22-.08.8-.3,1.11-.83.31-.53.16-1.03.07-1.87,0-.09,0-.96,0-2.7,0-1.06-.12-2.13,0-3.19.07-.61.16-.97-.07-1.25-.38-.47-1.45-.49-1.94,0-.56.56-.27,1.71,0,2.77.1.4.26.9.28.9.03,0-.2-2.46-1.66-4.5-.29-.41-.41-.49-2.08-2.01-3.48-3.17-4.13-3.88-4.29-4.99-.12-.81.17-.77.07-2.01-.12-1.43-.56-2.15-1.11-3.6-1.14-3.02-.38-2.95-1.32-4.64-1.23-2.23-1.85-3.34-2.01-3.53-.01-.02-.32-.39-.24-.48.11-.13.87.52,2.23.93,0,0,.3.09.7.18,1.51.32,2.17-.05,4.18-.08,1.39-.02,1.86.14,2.6-.25.24-.13.72-.39.95-.95.26-.62.16-1.47-.35-1.9-.51-.42-1.21-.26-2-.08-.79.18-1.33.48-2.45,1.13-2.1,1.21-1.87,1.12-2.15,1.25-.34.16-2.78,1.28-5.5.55-.66-.17-1.21-.32-1.75-.8-.95-.84-1.13-2.07-1.25-3.33-.2-2.16-.35-3.7-.09-6.22,0,0,.24-2.38-.13-5.85-.02-.14-.05-.47-.3-.71-.44-.44-1.19-.26-2.08-.18-1.06.1-.63-.09-2.68-.06-2.73.04-4.09.06-4.41.12-.29.05-.7.13-.83-.06-.21-.31.5-1.09,1.01-1.79.21-.28.76-1.44,1.85-3.75,2.5-5.31,2.61-5.72,2.92-6.01.06-.06.28-.26.28-.53,0-.38-.44-.65-.48-.67-.52-.31-1.15-.09-1.4,0-.05.02-1.27.47-1.42,1.35-.05.29.05.4-.02.99-.04.36-.1.47-.02.57.17.21.8.11,1.17-.23.26-.24.35-.53.41-.75.08-.28.21-.74.02-1.03-.23-.34-.8-.3-2.47-.16-1.19.1-1.79.15-1.85.16-7.8,1.16-10.21,1.54-10.21,1.54-2.02.32-4.42.68-5.05-.32-.11-.17-.24-.5-.32-.8-.2-.73-.1-1.24,0-2.07,0,0,.19-1.61-.11-3.72-.03-.19-.07-.45-.27-.59-.51-.35-1.42.51-1.7.27-.28-.24.38-1.24.9-2.87.42-1.3.79-2.47.27-3.09-.17-.2-.43-.33-2.07-.37-1.74-.05-2.61-.07-3.56.11-1.91.35-2.95,1.07-3.25.69-.14-.17.02-.41.21-1.12.2-.75.57-2.12.16-2.66-.29-.37-1-.39-3.09.16-3.65.96-6.14,1.61-8.35,3.09-.15.1-.96.64-1.12.48-.13-.14.37-.62.64-1.54.08-.29.32-1.16,0-2.13-.11-.34-.37-1.13-1.12-1.54-1.06-.58-2.36.03-2.61.16-1.23.62-1.43,1.65-2.23,1.6-.39-.03-.74-.3-.9-.59-.36-.6,0-1.38.16-1.86.34-1.01.12-2.07-.32-4.2-.65-3.16-1.66-2.9-1.86-5.32-.05-.62-.07-1.57-.74-2.23-.09-.08-.61-.58-1.33-.59-.75,0-1.33.55-2.23,1.65-1.58,1.92-2.37,2.87-2.77,3.94-.2.53-.97,2.57-.69,4.95.04.34.13.97,0,1.01-.17.05-.59-.94-1.12-1.97-.44-.87-.4-.65-2.18-3.51,0,0-1.12-1.8-2.77-3.99-.24-.31-.61-.8-1.28-1.06,0,0-1.02-.4-2.13.11-.12.05-.24.12-.34.24-.24.29-.21.68-.2.83.08,1.11.11,2.22.2,3.32.17,2.02-.16,1.91,0,2.75.02.13.12.58-.13.94-.05.07-.15.22-.33.26-.22.05-.43-.13-.86-.53-.49-.46-.74-.69-.83-.79-.24-.27-.7-.85-1.18-1.73-.33-.6-.57-1.2-1.12-1.54-.09-.06-.23-.13-.37-.09-.28.08-.36.61-.4.92-.03.22-.04.39-.02,1.16.02.69.03.78-.06.88-.27.33-1.06.09-1.36,0-1.43-.45-2.14-.67-3.8-1.85-2.25-1.61-5.87-2.7-7.49-1.51-.61.45-.8,1.39-1.14,3.26-.6,3.25-.16,4.48-.81,7.49-.61,2.8-1.32,3.26-1.63,3.42-.83.42-1.58.02-3.26-.16-1.65-.18-4-.19-4.07.16-.04.2.66.4,3.31,1.46,6.22,2.49,3.7,1.92,5.74,2.65.2.07.64.23.63.37-.04.34-2.73.3-2.94.29-2.84-.05-4.26-.08-4.6-.15-.17-.03-.63-.13-.96.11-.29.21-.2.48-.4.63-.4.29-1.13-.41-2.5-.92-.82-.3-1.53-.57-2.1-.26-.37.2-.43.51-.85,1.36-.18.36-.72,1.5-1.4,2.36-.42.53-1.07,1.37-2.17,1.77-.67.24-1.24.22-2.36.18-.85-.03-1.65-.15-2.83.04-.46.07-.78.16-.88.4-.15.35.22.84.55,1.21.95,1.07,2.1,1.82,3.42,2.5,1.43.74,2.47,1.28,4.01,1.62.88.19,1.62.25,1.62.37,0,.16-1.42.07-3.02.4-2.69.57-2.45,1.62-5.04,2.24-1.45.35-2.89.76-4.34,1.1-.24.06-.86.2-1.1.7-.15.31-.17.78.07,1.03.5.51,1.81-.3,2.02.04.12.18-.17.55-.7,1.25-.39.51-.65.84-1.1,1.29-.74.72-1.25,1.21-2.1,1.55-1.16.46-2.17.3-2.39.26-.58-.1-1.38-.25-1.73-.85-.1-.16-.17-.38-.26-.37-.2.02-.1,1.04-.37,1.1-.29.08-.62-1.11-1.4-1.84-.1-.09-.34-.3-.52-.66-.15-.3-.14-.48-.18-.48-.12,0-.46,1.6,0,3.28.25.89.69,1.71.9,2.09.43.78.52.75.67,1.17.29.82-.05.98,0,2.62.04,1.19.23,1.49,0,2.23-.09.3-.18.43-.11.61.2.52,1.37.57,2.34.61.53.02.95,0,.95,0,0-.01-2.06.04-5.13,0-2.03-.03-4.02-.06-4.02-.06-1.88-.03-3.55-.06-3.57.11-.01.14,1.05.13,2.12.84.68.45.89.88,1.56,1.79,1.81,2.43,3,2.96,3.85,4.35.22.35.48.87,1.06,1.39.22.19.47.38.44.43-.04.07-.57-.29-1.4-.43-.43-.07-.81-.13-1.2.06-.47.23-.66.65-.69.71-.26.6-.04,1.28.29,1.69.3.37.55.33.91.8.24.31.34.59.4.77.22.64.58,2.46-.17,4.72-.15.45-.56,1.56-1.46,2.74-.26.34-.7.78-1.57,1.63-2.05,2.01-2.6,2.38-3.17,2.6-.58.23-1.21.31-1.69.37-.5.07-.55.03-.57,0-.12-.22,1.11-.83,2.29-2.06,1.35-1.41,1.73-2.69,2.17-2.57.3.08.36.72.4,1.09.3,3.09.08,5.44.09,7.75,0,1.11-.26,2.24-.05,3.34.04.2.17.81-.04.92-.24.13-.69-.56-.97-.46-.38.13-.11,1.55,0,3.02.14,1.85.14,5.26.04,6.68-.02.31-.07.8.21,1.26.23.38.5.44.71.84.23.44.19.88.17,1.09-.19,2.26.18,4.55-.04,6.8-.51,5.22-.03,8.14-.12,8.14-.08,0-.19-2.23.65-4.21.09-.21.32-.72.59-.71.5.02.47,1.77,1.42,2.14.37.15.87.07,1.19-.18.8-.63.03-2.08,0-4.51-.04-3.02,1.09-4.36.24-5.16-.53-.5-1.52-.5-2.08-.12-.64.44-.62,1.77-.53,4.39.05,1.69.17,2.1.36,2.14.38.07.82-1.54,1.13-1.48.44.08-.18,3.37.06,7.54.2,3.49.31,5.47,1.42,7.72.5,1,1.13,1.94,1.48,3.62.15.73.18,1.64.24,3.44.1,3.37-.04,3.55.24,4.51.21.72.69,1.55,1.66,3.21.74,1.27,1.14,1.76,1.54,1.72.32-.03.5-.38.77-.83.93-1.55,1.4-1.79,1.84-2.55.61-1.06,1.11-3.04.09-10.38-.38-2.71-.4-2.13-.56-3.58-.3-2.8-.15-4.42-.11-9.3.01-1.38,0-2.76,0-4.14.02-13.67-4.46-24.2-.67-34.5.55-1.48,1.28-3.02,1.68-5.6.76-4.93-.11-10.42-.11-10.42-.33-2.09-.78-3.74.11-5.49.63-1.22,1.78-2.24,2.24-2.02.34.17.06.9,0,3.58v3.13c0,.64,0,1.27,0,1.91,0,3.38-.07,4.81,0,4.82.11,0-.07-3.45,1.19-7.33.31-.96.74-2.04,3.49-6.55,3.3-5.41,5.92-9.7,6.72-9.34.3.13.23.87.17,1.53-.53,6.28-.27,11.6-.17,11.61.06,0,.03-1.9.7-4.19,0,0,1.55-5.3,8.12-9.78.41-.28,1-.64,1.18-.48.26.23-.5,1.34-1.05,2.49-1.39,2.96-1.21,5.95-1.05,5.98.13.02.37-1.92,1.48-5.11,1-2.87,1.5-4.3,2.75-5.85,1.44-1.78,3.71-3.54,3.71-3.54,0,0,.3.98.31,1,.37,1.24.46,7.97-.17,7.99-.43.01-1.31-3.04-.3-3.85.52-.42,1.5-.2,2.15.22,1.46.95,1.43,3.1,1.61,5.81.39,5.79,1.51,10.2,1.69,10.18.09,0-.06-1.25.14-3.26.1-1.04.26-2.56.9-4.27.62-1.66,1.84-3.9,2.47-3.73.46.12.45,1.44.47,2.19.14,6.06,2.76,12.06,3.26,11.98.22-.03,0-1.17.22-3.73.35-4.21,1.34-6.07,1.97-7.03.42-.63,1.31-1.98,2.15-1.83.58.1.66.82,1.43,2.26,1.13,2.09,2.37,3.2,3.41,4.12,1.37,1.22,1.83,1.2,2.04,1.15.83-.19,1.24-1.46,1.51-2.29.35-1.09.12-1.17.43-2.69.14-.69.5-2.21,1.58-3.51.38-.45.63-.63.82-.57.35.09.39.84.47,1.36.14.98.74,1.99,1.94,4.02.93,1.58,1.42,2.39,2.29,2.98.75.51,1.92,1,2.26.65.24-.26-.04-.84-.25-1.4-.27-.72-.3-2.2-.36-5.13-.05-2.39-.07-3.59-.04-4.66.1-3.12.4-4.1.18-5.7-.02-.11-.08-.59,0-.61.13-.04.47,1.09,1.11,2.4,1.13,2.31,2.16,3.11,2.8,3.48.28.16.9.52,1.22.29.19-.14.16-.4.14-1.15-.05-2.34.19-1.85.07-2.87-.03-.29-.08-.58.07-.68.21-.15.67.19.86.32,1.22.89,1.51,2.06,2.55,3.3.45.54,1.39,1.62,2.9,2.01.93.24,1.72.13,2.08.07,1.17-.18,1.98-.67,2.58-1.04,1.5-.93,1.43-1.47,2.58-1.9.33-.12,1.53-.58,2.47-.04.56.32.78.85,1.11,1.72.92,2.38,2.26,4.57,3.33,6.88.06.14.2.41.47.5.34.11.6-.17.97-.22.59-.07,1.11.5,1.4.82,2.33,2.61,3.49,3.92,3.55,4.02,2.43,4.2,4.83,4.14,7.57,7.35.13.16.63.75.82.65.24-.13-.23-1.15-.43-2.51-.2-1.35.08-1.52.11-3.51.04-2.55-.4-4.15-.11-4.23.06-.02.2.03.61.79.75,1.39.99,2.55,1.4,4.27.31,1.29.51,2.02.9,2.9.16.37.55,1.21,1.4,1.79.48.33.78.35.97.32.56-.07.88-.58.9-.61.31-.52.04-.93-.11-2.26-.08-.76-.15-1.45.07-2.26.06-.21.39-1.4.97-1.43.26-.02.47.21.61.36.58.63.62,1.47.65,1.83.15,2.35.37-.58.43,3.19.04,2.62.2,11.84-.25,13.33-.03.11-.18.54-.03,1.01.08.25.21.41.27.48.7.84,2.34,2.42,3.03,3.15,0,0,.52.55,1.03,1.24,1.95,2.64,1.55,7.91-.25,11.87-.64,1.4-1.44,2.62-1.56,4.69-.07,1.27.15,2.18.28,2.84,0,0,.51,2.5-.43,12.65,0,0,1.04,1.82,1.42,3.41.19.77.09.96-.14,4.26-.25,3.54-.19,4,0,4.55.52,1.48,1.27,1.49,1.85,2.98.5,1.3.34,2.34.14,4.12-.55,4.95-.83,7.43-.11,7.81Z"/>
    <path class="cls-2" d="m139.86,150.21c.33.26,1.12.82,2.27.93.2.02,2.01.17,3.32-1.11,1.02-.99,1.13-2.28,1.22-3.43.14-1.82-.34-2.45-.7-4.65-.41-2.49-.27-4.57-.17-6.05.2-3.02.71-3.8.12-5.35-.64-1.66-2-2.79-2.15-2.68-.16.11,1.07,1.41,1.8,3.56,1.17,3.41.32,6.7-.38,9.44-.51,2-.67,1.46-1.4,3.91-.1.34-.38,1.28-1.14,2.09-.4.42-.73.6-1.02.68-.45.14-.84.08-1.1.04-.5-.07-.87-.25-1.1-.38"/>
    <path class="cls-2" d="m27.22,114.59c-.16.22-.72.97-1.17.86-.53-.14-.83-1.49-.31-2.26.11-.17.33-.4,1.4-.78,1.08-.38,1.95-.53,2.02-.54,2.96-.51,4.32-2.49,5.44-1.79.44.27.62.82.7.78.16-.08-.83-1.89-.47-2.18.36-.28,1.47,1.35,2.72,1.09.83-.17.95-1.02,1.79-1.09.51-.04.84.24,1.63.78,1.73,1.17,3.06,1.78,3.11,1.71.05-.07-1.24-.69-1.71-2.02-.21-.59-.32-1.52.08-1.79.5-.34,1.61.47,2.26.93.68.49.73.67,1.24,1.09,1.16.94,1.58.56,3.97,1.71.72.35,1.46.66,2.18,1.01.69.33.94.47,1.01.39.23-.26-1.74-2.41-2.1-2.8-2.36-2.57-3.9-3.6-3.66-4.04.16-.3,1.05-.16,2.02,0,0,0,.97.16,1.71.47,1.37.57,3.09,2.7,4.04,5.83"/>
    <path class="cls-2" d="m82.37,109.38c.07-.29.2-.71.47-1.17.31-.53.94-1.37,1.24-1.24.19.08.14.48.08,2.18-.03.65-.08,2.01,0,2.02.11.01.27-2.66.86-2.72.4-.04.56,1.19,1.17,1.24.59.06.96-1.06,2.33-2.88.77-1.01,1.55-2.03,2.02-1.87.37.13.43.95.47,1.48.09,1.28-.34,1.85,0,2.18.37.35,1.23.02,1.48-.08.59-.23.8-.52,1.4-1.01,1.02-.84,1.79-1.47,2.64-1.4.74.06.8.59,1.56.62.69.03.98-.41,2.02-1.01.91-.52,2.66-1.33,3.11-.86.35.37-.25,1.31-.08,1.4.23.13,1.57-1.45,2.64-3.34.26-.46.57-1.06.7-1.01.23.08-.59,2.26-.08,2.57.49.29,1.68-1.44,2.26-1.17.86.41-1,4.54.39,5.6.49.37,1.21.22,2.26,0,1.36-.29,1.61-.76,3.27-1.4,1.33-.51,2.59-.98,3.42-.39.43.31.62.8.7,1.17"/>
    <path class="cls-2" d="m85.19,127.81c.66.02,1.61-.02,2.68-.35,1.9-.59,2.97-1.73,3.81-2.47,2.71-2.38,5.94-3.08,7.7-3.46,3.38-.74,6.15-.3,7.98,0,1.72.28,3.58.59,5.72,1.77,2.34,1.28,3.83,2.94,4.66,4.03"/>
    <path class="cls-2" d="m85.61,130.35c.99-.39,2.46-1.02,4.17-1.98,2.26-1.27,2.55-1.77,4.1-2.61.57-.31,3.43-1.81,7.42-1.98,1.27-.05,3.8-.16,6.57.99,1.41.58,2.11,1.17,4.24,1.98,1.46.55,2.71.87,3.53,1.06"/>
    <path class="cls-2" d="m90.28,131.56c1.48.43,2.69.51,3.53.49,1.09-.02,1.63-.19,2.61.07.94.25,1.12.57,2.05.85,1.09.32,1.99.21,2.61.14,1.7-.17,4.41-.28,8.12-.35"/>
    <path class="cls-2" d="m106.17,131.91c-.01-.24-.02-.61,0-1.06.08-1.44.42-1.97.21-2.12-.33-.24-1.77.67-2.12,1.98-.11.42-.17,1.09.07,1.2.32.15,1.11-.72.99-.92-.1-.17-.81.18-2.54.49-1.03.19-1.27.15-1.41,0-.4-.4.06-1.42.28-1.91.32-.71.68-1.51,1.34-1.55.43-.03.86.27,1.06.64.37.66,0,1.56-.49,1.77-.42.18-.63-.26-1.2-.21-.89.08-.98,1.21-2.12,1.62-.56.21-1.37.24-1.62-.14-.38-.56.56-1.92.99-1.84.29.06.31.78.49.78.17,0,.12-.66.42-1.34.42-.95,1.05-.92,1.7-2.05.23-.41.56-.99.35-1.27-.31-.42-1.77-.13-2.05.57-.11.27.04.4,0,.85-.06.65-.44,1.1-.64,1.34-.41.5-1.21,1.14-2.19,1.48-.24.08-.55.17-.64.42-.12.36.32.68.21.85-.15.23-1.2,0-1.98-.71-.55-.5-.92-1.2-.78-1.34.16-.16.72.59,1.62.57.78-.02,1.4-.58,1.7-.85.51-.46.46-.69,1.06-1.13.36-.27.65-.38.64-.57-.02-.26-.6-.24-.78-.64-.16-.37.09-.98.49-1.13.19-.07.39-.03.78.14.61.26,1.04.45,1.55.92,1,.91,1.37,2.01,1.55,2.61.07.23.76,2.46.06,2.89-.14.09-.44.07-1.04.04-.48-.03-.64-.09-1-.05-.37.03-.44.11-.79.18-1.3.26-2.41-.5-2.49-.55-.12-.08-.2-.16-.26-.2"/>
    <path class="cls-2" d="m116.18,133.19c1.42,1.94,2.83,3.89,4.25,5.83"/>
    <path class="cls-2" d="m118.06,132.59c.8.78,1.6,1.55,2.41,2.33"/>
    <path class="cls-2" d="m118.81,129.88c.49.37,1.26.84,2.29,1.09.45.11.8.14,1.02.15,1.93.13,5.25.03,6.06,0"/>
    <path class="cls-2" d="m91.16,134.03c.68-.01,1.69.03,2.85.34,1.67.44,2.17,1.04,3.68,1.6.84.31,2.04.41,4.45.63,3.17.28,4.46.12,5.32-.05.86-.17,1.46-.38,1.74-.48,1.21-.45,2.12-1.05,2.71-1.5"/>
    <path class="cls-2" d="m86.22,132.39c-.08.35-.22.83-.48,1.35-.6,1.17-1.44,1.8-1.4,1.84.04.04,1.24-.6,2.23-1.89.29-.38.58-.83.87-.77.26.05.38.47.44.63.2.61.76,1.48,2.37,2.56"/>
    <path class="cls-2" d="m81.93,120.89c-.79.35-1.93.96-3.08,2-.56.51-1.78,1.64-2.62,3.54-.47,1.07-1.11,2.51-.77,4.31.25,1.3.89,2.18,1.15,2.54,1.11,1.48,2.53,2.09,3.15,2.31"/>
    <path class="cls-2" d="m51.52,126.53c-.41-.18-1.02-.47-1.72-.9-1.56-.95-1.74-1.46-2.69-2.02-.69-.4-1.98-.52-4.56-.75-2.76-.24-3.3-.08-3.73.22-.69.49-.7,1.02-1.57,1.42-.76.35-1.09.09-2.02.37-.85.26-1.39.72-1.94,1.2-1.05.9-1.12,1.43-2.17,2.61-.4.45-1.03,1.1-1.94,1.79"/>
    <path class="cls-2" d="m21.05,134.29c1.49.19,2.75.3,3.73.37,1.47.11,1.73.08,2.02,0,.26-.07.82-.26,3.14-2.46.94-.89,1.42-1.42,2.24-1.49.47-.04.59.1,1.05,0,.78-.18,1.03-.76,1.79-1.49.05-.05,1.03-.97,2.17-1.42.78-.3,1.33-.27,2.84-.22,2.74.08,4.11.12,5.08.07,2.08-.1,2.43-.36,3.59-.07.44.11.36.14,2.39.9,1.79.66,1.88.65,2.24.9.64.44.65.69,1.87,2.17.57.69.99,1.15,1.79,2.02.52.56,1.25,1.34,2.17,2.24"/>
    <path class="cls-2" d="m39.87,128.06c0,.18,0,.45,0,.78,0,1.74-.06,1.88.05,2.15.34.87,1.48,1.18,1.92,1.3.74.2.9.02,3.01-.08,1.42-.06,2.13-.1,2.52-.05.23.03.99.12,1.95-.03.46-.07.67-.15.8-.34.15-.21.06-.37.03-1.3,0-.1,0-.48,0-1.25,0-.18,0-.37.03-.62.03-.28.07-.51.11-.67"/>
    <path class="cls-2" d="m40.49,130.75c0-.07,0-.21.09-.32.11-.13.29-.14.55-.14.31,0,.48,0,.55.12.09.14.01.37-.14.48-.16.12-.42.12-.46.02-.08-.16.57-.41,1.01-1.2.14-.26.15-.36.35-.65.19-.27.36-.52.62-.65.45-.22.96,0,1.36.16.44.19.72.41,1.22.83.38.32.71.64,1.29,1.2.3.29.42.42.67.6.28.2.43.27.42.32-.03.1-.59-.04-1.52-.09-.26-.02-.63-.02-1.36-.02-.85,0-.77,0-1.38,0-.46,0-.84-.02-1.38-.02-.31,0-.46,0-.53,0-.4.01-.5.04-.52,0-.03-.09.51-.46,1.18-.61.37-.09.73-.09.93-.1.28,0,.4.01.82,0,.47-.01.64-.05.78-.17.11-.09.1-.15.23-.29.17-.19.38-.28.53-.33"/>
    <path class="cls-2" d="m55.03,132.04c-.2.26-.51.61-.93.97-.23.19-1.12.92-2.65,1.38-.78.23-1.67.28-3.43.37-.42.02-1.37.07-2.84.07-1.51,0-2.64-.03-3.02-.04-1.39-.04-3.46-.07-6.38-.04"/>
    <path class="cls-2" d="m44.55,133.72c.13-.5.12-.65.07-.67-.12-.05-.34.75-1.01,1.04-.5.22-1.2.14-1.57-.22-.26-.25-.16-.45-.41-.63-.12-.08-.36-.2-1.34.04-.6.14-1.36.32-1.34.49.02.19,1.12.32,2.09.19,1.11-.15,1.94-.61,2.43-.93"/>
    <path class="cls-2" d="m26.43,131.51c-.69-.77-1.33-1.03-1.78-1.14-.62-.14-.85.04-1.46-.16-.26-.09-.63-.25-1.51-1.14-.42-.42-.98-1.01-1.57-1.78"/>
    <path class="cls-2" d="m29.89,140.11c-.81.08-1.45.05-1.89,0-.33-.03-.67-.09-.97.11-.31.21-.4.57-.43.7-.38,1.48-1.91,3.94-2.97,5.19-.21.25-.57.64-1.08,1.08"/>
    <path class="cls-2" d="m55.79,135.94c-.63-.04-1.57-.03-2.65.27-.72.2-1.24.46-1.73.7-.7.35-1.33.76-2.54,1.57-1.26.84-1.31.91-1.62.97-1,.19-1.31-.45-2.43-.32-.95.1-.88.57-1.95.76-.5.09-.46-.02-2.54-.16-1.09-.07-1.36-.06-1.68,0-.7.13-.75.32-1.46.43-.42.07-.86.05-1.73,0-.58-.03-1.07-.07-1.41-.11"/>
    <path class="cls-2" d="m62.02,141.93c.36-.59.84-1.52,1.06-2.72.2-1.12.04-1.69.15-2.87.14-1.46.54-2.18.91-3.33.59-1.84.59-3.44.6-6.65,0-2.78,0-4.2-.6-5.74-.63-1.61-1.52-2.66-1.97-3.17-1.72-2-3.73-2.99-4.99-3.48"/>
    <path class="cls-2" d="m46.24,205.64c.07-.53.12-1.36-.12-2.31-.38-1.47-1.25-2.41-2.07-3.28-.38-.4-1.07-.96-2.43-2.07-2.3-1.87-2.71-2.1-3.16-2.92-.45-.82-.22-.92-.85-2.19-.68-1.36-1-1.35-1.34-2.31-.5-1.42-.05-2.14-.61-2.55-.63-.46-1.37.33-2.31,0-.81-.28-.9-1.09-1.82-3.16-1.12-2.53-1.69-3.79-2.92-4.86-.81-.7-1.24-.75-1.58-1.46-.57-1.18.24-1.91-.24-3.16-.25-.65-.49-.5-2.19-2.19-1.7-1.69-1.96-2.34-2.07-2.67-.3-.93-.02-1.24-.24-1.94-.26-.81-1.08-1.81-3.55-2.54"/>
    <path class="cls-2" d="m105.72,208.96c.51-.43,1.16-1.12,1.51-2.11.34-.97.12-1.47,0-3.77-.12-2.28.1-1.73,0-4.22-.07-1.83-.21-2.53.3-3.02.58-.55,1.21-.06,1.96-.6.83-.6.93-1.8,1.06-3.32.15-1.79-.2-1.67,0-2.56.48-2.12,2.34-2.3,2.56-4.22.13-1.1-.42-1.7,0-2.11.33-.33.87-.15,2.71.15,2.49.4,2.73.28,2.86.15.71-.71-1.03-2.48-.3-3.77.47-.83,1.45-.56,4.37-1.66,1.56-.58,2.34-.89,2.71-1.51.97-1.61-.52-4.13-.3-4.22.19-.08.7,2.05,2.41,3.02,1.09.61,2.76.82,3.77,0,.79-.64.9-1.69,1.06-3.32.17-1.73-.16-1.99,0-3.02.4-2.53,3.01-4.64,3.83-4.23.74.37.41,2.95-.1,4.07-.06.13-.32.67-.64,1.46,0,0-.18.45-.33.88-.48,1.34-.61,2.77-.89,3.79-.54,2.04-1.41,1.66-1.94,3.55-.33,1.2-.2,2.28.08,4.43.36,2.78.76,2.68.56,3.55-.43,1.91-2.26,1.83-4.52,4.76-.19.25-.75,1.16-1.85,2.98-1.78,2.93-1.67,2.92-2.34,3.87-1.75,2.48-2.27,2.2-2.9,3.71-.69,1.66-.11,2.13-.89,4.19-.67,1.79-1.17,1.6-1.69,3.06-.96,2.67.55,3.7-.4,5.81-.51,1.14-1.44,1.89-3.31,3.39-1.5,1.2-2.32,1.53-2.5,2.5-.21,1.17.71,2.23.24,2.66-.13.12-.28.11-.89.08-1.42-.06-2.14-.09-2.26,0-.62.46.29,1.68-.32,3.47-.21.62-.36.6-.89,1.61-.62,1.2-.89,2.17-1.13,2.98-1.89,6.55-2.42,7.16-3.06,7.5-1.08.56-1.52-.15-2.74.56-1.39.81-1.13,1.91-2.66,2.98-1.19.83-1.61.36-2.66,1.21-1.41,1.13-.93,2.21-2.02,2.82-1.37.77-2.55-.73-4.6,0-1.09.39-.9.87-2.02,1.37-2.1.95-3.12-.61-5.56-.08-1.77.38-1.81,1.33-4.84,2.26-1.03.32-1.74.43-2.34.08-.57-.33-.82-.95-1.29-2.18-.66-1.71-.48-2.13-.89-2.34-.85-.43-1.8,1.35-4.03,1.61-.46.06-1.76.21-2.66-.56-1.12-.97-1.07-2.93-1.05-3.79.03-1.19.3-1.37.08-1.69-.64-.94-3,.39-6.93.08-2.55-.2-3.22-.89-3.47-1.21-.36-.47-.49-1.21-.73-2.66-.43-2.64-.1-2.71-.48-3.31-.47-.73-1.68-1.24-4.11-2.26-.99-.41-1.24-.47-1.45-.81-.74-1.16.7-2.87,0-3.63-.39-.42-.91,0-1.69-.48-.38-.24-.62-.56-1.21-1.85-.64-1.42-.76-1.92-1.13-2.74-.32-.71-.58-1.08-1.53-2.5-1.92-2.86-2.89-4.3-2.98-4.6-.73-2.21.19-3.09-.89-4.52-.68-.9-1.22-.79-1.85-1.85-.55-.92-.32-1.31-.81-2.9-.07-.24-.47-1.52-1.29-2.9-1.12-1.89-1.68-1.7-2.1-2.9-.54-1.55.35-1.99-.16-3.71-.05-.17-.68-1.11-1.94-2.98-.86-1.28-1.31-1.93-2.02-2.1-.54-.13-.92.05-1.21-.24-.36-.37-.09-.98-.08-1.69,0-.75-.29-1.26-1.61-3.14-1.6-2.28-2.34-3.23-2.34-3.23-2.07-2.67-2.02-2.41-2.74-3.47-.96-1.4-1.8-2.63-2.34-4.43-.04-.12-.02-.07-.56-4.43-.26-2.05-.33-2.63,0-3.39.28-.63.66-.98.75-1.83.03-.29,0-.45,0-1.56,0-.45,0-.83,0-1.08"/>
    <path class="cls-2" d="m33.4,176.34c.16-.44.01-.92-.34-1.14-.37-.24-.81-.1-1.05.07-.37.25-.63.8-.43,1.14.28.47,1.27.33,1.37.07.06-.16-.17-.46-.45-.56-.1-.04-.25-.09-.34-.02-.22.17.05,1.01.54,1.55.27.31.49.38.56.4.36.12.68,0,.78-.04.13-.05.35-.15.47-.38.14-.27.12-.66-.04-.74-.24-.12-.79.39-.81.4h0s-.4.21-.4.21c-.09,0-.21-.06-.24-.14-.07-.16.16-.46.57-.74"/>
    <path class="cls-2" d="m52.98,153.84c-1.27,1.29-2.9,3.11-4.6,5.45-2.67,3.7-4.12,6.81-5.45,9.71,0,0-2.08,4.54-3.58,10.56-.26,1.06-.63,2.68-.26,4.68.3,1.6.95,2.81,1.45,3.58"/>
    <path class="cls-2" d="m57.92,152.73c-1.37,2.16-2.72,3.63-3.75,4.6-.88.83-1.67,1.44-2.04,2.64-.51,1.65.18,3.15.26,3.32.65,1.36,1.73,1.78,4.17,3.07,4.74,2.5,6.66,4.11,7.15,3.58.31-.33-.2-1.25-.24-1.33-.51-.92-1.25-.82-2.63-1.72-1.2-.78-2.55-2.09-2.75-2.29-.19-.18-.55-.55-1.15-.78-.17-.07-.71-.26-1.42-.18-.17.02-1.11.12-1.15.41-.03.27.7.5,2.2,1.19,0,0,.42.19,1.97.96.97.48,1.42.8,4.22,2.71,3.92,2.66,2.7,1.8,3.07,2.06,1.82,1.28,2.52,1.88,3.76,2.02.81.09,1.46-.06,2.02-.18,1.21-.27,2.1-.79,3.26-1.47.73-.43,1.19-.75,1.51-.96,2.22-1.47,4.51-2.24,6.06-2.75,2.54-.85,3.9-.96,4.13-1.88.1-.39,0-1-.37-1.38-.18-.19-.48-.37-1.19-.41-1.36-.08-2.45.46-2.8.64-1.3.69-1.04,1.07-2.8,2.2-.58.38-1.14.81-1.74,1.15-.6.34-1.11.56-1.28,1.1-.08.24-.11.61.04.69.28.15.84-1.01,2.21-1.55.31-.12.29-.07.78-.24.85-.3,1.3-.6,1.79-.86,1.71-.9,2.51-.51,4.05-1.36.13-.07.35-.2.68-.28.72-.18,1.18.03,1.74.09,1.03.1,1.87-.4,2.43-.73.65-.38,1.46-.87,1.7-1.7.16-.54.05-1.17-1.3-3.26-1-1.56-1.6-2.23-2.53-3.53-1.43-1.99-2.36-3.66-2.3-3.7.08-.05,1.64,2.82,4.63,5.5.46.41.72.62,1.83,1.6,1.16,1.03,2.51,2.26,3.1,2.83,2.57,2.5,4.12,5.56,4.66,6.63.81,1.6,1.43,3.21,2.47,7.12,1.85,6.95,2.98,11.18,3.17,17.14.07,1.97.05,4.81-.35,8.25"/>
    <path class="cls-2" d="m44,188.89c.19-2.31.07-4.2-.08-5.57-.31-2.68-.91-4.43.08-5.4.41-.4,1.11-.68,1.66-.5.55.18.71.76,1.08,1.5,1.05,2.13,2.53,3.1,4.4,4.32.21.14.58.37.76.24.25-.17-.03-.83-.23-1.9-.04-.2-.09-1.09-.2-2.86-.11-1.8-.13-2.34-.06-2.35.09-.01.14.67.6,1.62.34.7.39.48,1.19,1.79.22.35.44.73.91,1.02.2.12.48.3.62.2.26-.18-.22-1.07-.57-2.58-.23-1.01-.54-2.35,0-2.72.26-.18.61-.08.68-.06.54.16.65.7,1.16,1.5.13.2.05.06,1.64,1.84.57.64.76.86,1.13,1.16.03.03.58.46,1.42.74.39.13.5.11.54.06.12-.14-.25-.46-.48-1.05-.2-.5-.08-.6-.2-2.21-.05-.68-.09-.9,0-.94.17-.07.47.66,1.28,1.5.52.54.51.36,1.87,1.47.71.58.95.82,1.16.74.24-.1.29-.55.37-1.45.09-.96,0-1.31.28-1.7.06-.09.32-.43.68-.45.28-.02.49.17,1.13.82.93.94,1.04,1.13,1.3,1.13.56.01.99-.77,1.05-.88.26-.48.24-.89.28-1.28.06-.57.27-1.37.99-2.32"/>
    <path class="cls-2" d="m72.72,174.57c.54.44.98.84,1.33,1.16.73.67,1.09,1.01,1.47,1.47.56.67.74,1.07.88,1.02.17-.06-.14-.69-.03-1.81.04-.36.1-.68-.03-1.11-.1-.33-.29-.61-.31-.6-.05.03.42,1.7,1.59,3.03.14.16.56.51,1.39,1.22.46.39.66.55.91.51.37-.05.68-.51.77-.94.17-.85-.64-1.22-.51-2.1.09-.61.58-1.14.82-1.08.18.05.09.39.34.91.3.63.71.66,1.28,1.39.25.32.17.32.54.91.76,1.22,1.49,1.87,1.84,2.15.28.23.95.77,1.13.62.16-.13-.21-.6-.37-1.42-.08-.4-.06-.66.26-2.55.27-1.66.34-1.99.51-2.01.15-.02.26.23.82,1.19.79,1.35.99,1.54,1.25,1.59.43.08.59-.33,1.11-.28.21.02.43.11,1.16.91.43.47.75.86,1.5,1.76.22.26.45.54.82.85.15.13.85.72,1.05.57.16-.12-.22-.59,0-1.05.12-.24.38-.45.65-.45.23,0,.39.14.6.34.48.44.42.7.68.79.41.14.73-.44,1.14-.3.39.13.41.8.57.79.11,0,.26-.33.42-1.67"/>
    <path class="cls-2" d="m98.19,196.66c.34-.79.98-2.58.62-4.82-.12-.74-.39-2.3-1.55-3.65-.48-.56-1.43-1.44-4.82-2.33-3.44-.91-6.35-1.02-8.47-1.09-1.73-.06-2.88,0-5.75-.16-1.01-.05-1.17-.07-2.64-.16-1.82-.1-3.46-.19-5.28-.23-3.38-.08-5.84.04-6.6.08-2.6.14-3.75.33-4.12.39-1.45.25-2.68.46-4.12,1.09-1.63.71-3.32,1.45-4.27,3.19-1.2,2.19-.5,4.63-.16,5.83.48,1.68,1.06,2.15,2.18,4.12,2.09,3.68,1.36,4.25,4.04,10.1,1.41,3.07,1.47,2.6,2.33,4.74.52,1.3.78,2.15,1.63,3.03.78.8,1.47,1.02,2.87,1.63,3.93,1.72,3.9,2.35,6.68,3.26,1.24.41,2.12.57,3.73.85,4.79.86,7.18,1.29,9.56.39.4-.15,3.58-1.42,5.05-4.51.9-1.9.32-2.74.85-5.83.55-3.18,1.7-5.44,2.56-7.15,1.71-3.37,3.31-4.89,5.21-7.92,0,0,.37-.59.42-.57.06.03-.65,1.15-1.03,2.43-.37,1.27-.19,1.97-.22,3.21-.06,2.95-1.14,3.15-1.59,6.88-.21,1.78.02,1.83-.26,3.35-.31,1.66-.8,2.68-1.5,4.32-2.31,5.38-1.75,5.21-2.65,6.44-1.56,2.15-3.57,3.11-5.38,3.97-3.1,1.48-5.76,1.73-8.29,1.94-3.88.33-6.99.59-10.5-.97-3.06-1.36-5.09-3.51-6-4.5-1.3-1.41-2.16-2.74-3-4.06-1.23-1.92-1.98-3.45-2.82-5.2-1.26-2.61-1.89-3.92-2.38-5.56-.37-1.24-.54-2.19-1.06-6.79-.21-1.87-.47-4.24-.74-6.99"/>
    <path class="cls-2" d="m51.66,186.05c1.66-.74,3.02-1.29,3.93-1.64,2.43-.94,3.05-1.04,4.92-1.87,1.88-.84,1.81-.99,2.81-1.29.9-.27,2.08-.32,4.39-.41,3.07-.12,3.59,0,4.1.23.93.43,1.03.85,1.99,1.17,1.14.38,2.08.16,3.05,0,2.83-.46,5.18-.24,7.03-.06,2.09.2,3.5.61,3.81.7,1.61.48,2.69,1.04,3.63,1.52,1.54.78,3.79,1.89,6.8,3.22"/>
    <path class="cls-2" d="m53.65,187.86c-.02.15-.02.38.12.59.27.41.81.22,1.7.53.66.23.64.42,1.46.7.5.17.75.26,1.05.23.83-.06,1.51-.85,1.82-1.52.66-1.46-.06-3.23-.12-3.22-.06,0-.02,1.84.94,3.4.46.76.89,1.03,1.17,1.17.53.26,1.46.46,2.05,0,.2-.16.46-.46.59-2.11.09-1.15.09-2.81,0-2.81-.12,0-.75,2.78.53,4.8.21.34.46.72.94,1,.88.51,1.49.03,3.52,0,1.4-.02,1.86.2,2.23-.18.36-.37.24-.88.18-2.05-.12-2.23.16-3.4.12-3.4-.08,0-1.13,4.36.53,5.51.4.27,1.05.3,2.34.35,1.55.06,1.57-.24,2.69-.06.65.1,1.12.28,1.52,0,.19-.13.33-.34.47-.82.32-1.15.1-2.07-.06-4.28-.01-.19.17-.57-.02-.57-.03,0-.6,4.09.78,4.77.46.23.6-.19,2.26-.3,1.08-.07,1.64.07,2.09-.36.31-.29.39-.68.44-.91.12-.54-.04-.81-.23-2.11-.08-.58-.11-.9-.08-.91.06-.01.77,2.05,1.03,2.94.02.07.06.21.19.32.26.21.53-.01.89.11.38.12.31.44.91.95.22.19.37.31.61.38.46.12.87-.08,1.06-.17.66-.33.93-.93.99-1.08.05-.11.22-.54.15-1.06-.04-.29-.13-.45-.21-.97-.05-.32-.06-.53-.04-.53.04,0-.08,1.77.84,2.36.35.23.6.12,1.2.51.36.23.45.39.68.38.42-.02.73-.62.82-.8.26-.51.17-.8.51-1.33.1-.16.2-.28.27-.36"/>
    <path class="cls-2" d="m96.28,198.69c-.13-.49-.3-1.22-.44-2.12-.25-1.64-.05-1.68-.3-3.06-.22-1.25-.48-1.75-.54-3.06-.02-.44-.01-.8,0-1.04"/>
    <path class="cls-2" d="m56.42,189.91c.03.72.05,1.84,0,3.21-.11,3.21-.47,4.06-.15,5.97.23,1.35.64,2.28,1.13,3.4.86,1.95,1.44,3.27,2.76,3.9.68.32.9.15,1.68.59.87.5,1.18,1.06,1.97,1.92,0,0,.94,1.03,2.17,1.92,1.2.88,2.35,1.02,5.52,1.33,3.85.38,5.78.57,6.46.59,0,0,6.12.21,9.32-.94.52-.19,1.62-.59,2.56-1.63.27-.3.46-.57.57-.74"/>
    <path class="cls-2" d="m57.58,208.08c.3.03.75.08,1.28.2,1.38.31,2.63.6,2.96,1.48.24.64-.04,1.45-.31,1.89-.26.43-.43.41-.51.72-.2.77.72,1.65,1.18,2.1.52.5.58.38,1.18.97.56.55.84.83,1.07,1.28.2.39.23.63.51.82.28.19.57.16.87.15,1.07-.03,1.71-.05,2.2.2.64.33.46.83,1.23,1.38.29.21.64.37,1.38.51,1.74.34,2.11-.1,3.78.1.67.08,1.67.28,2.86.51.44.09.86.17,1.38.05.71-.17.76-.51,1.43-.77.47-.18,1.12-.12,2.4,0,1.25.12,1.53.23,1.79,0,.39-.34.04-.82.46-1.58.13-.23.16-.19,1.07-1.12.79-.81.85-.92.87-1.07.06-.53-.45-.75-.36-1.38.01-.09.07-.49.36-.66.34-.21.62.14,1.07,0,.38-.12.58-.49.92-1.12.24-.44.38-.84.46-1.12"/>
    <path class="cls-2" d="m75.16,206.44c.22-.47.51-1.2.69-2.14.27-1.39.11-2.35,0-3.99-.06-.92-.11-2.26-.07-3.93"/>
    <path class="cls-2" d="m79.16,200.65c-.63-.13-.78-.35-.83-.48-.21-.59.81-1.63,1.93-1.93.14-.04,1.02-.27,1.24.07.32.49-.97,1.8-1.1,1.93"/>
    <path class="cls-2" d="m12.6,64.18c-.14-1.79-.2-4.1,0-6.77.42-5.5,1.77-9.57,2.2-10.8,2.72-7.78,5.34-6.93,7.87-14.28,1.68-4.89.96-6.55,3.3-10.44.78-1.3,2.22-3.38,5.86-6.41,2.36-1.97,7.08-5.53,15.01-8.79,8.91-3.65,16.08-4.54,22.34-5.31,8.18-1.01,12.35-1.48,16.29.37,1.6.75,3.66,2.04,7.32,3.11,3.25.95,5.34,1.01,7.32,1.28,5.24.72,8.92,2.81,14.28,5.86,8.19,4.66,7.79,6.84,13.91,9.15,1.1.42,2.8.98,4.39,2.56,2.54,2.52,2.98,5.78,3.3,7.69,1.34,8.17,2.78,5.92,5.31,17.76,1.29,6.03,2.24,10.48,2.2,16.66-.04,4.91-.69,8.95-1.28,11.72"/>
    <path class="cls-2" d="m9.86,75.72c-.77-1.25-1.81-3.25-2.38-5.86-.68-3.12-.11-4.44,0-10.25.11-5.8-.42-5.93,0-8.97.57-4.08,1.98-7.04,2.75-8.6,2.95-6.05,7.1-9.6,11.17-13,1.67-1.4,6.81-5.55,14.28-9.15,8.2-3.95,10.43-3.01,13.73-6.22.77-.75,2.86-2.96,5.68-2.93,1.06.01,1.77.33,2.38.55,3.1,1.1,5.04-.03,10.07-.55,6.42-.66,7.21.77,11.9-.55,2.57-.72,2.23-1.13,4.58-1.65,1.73-.39,5.89-1.05,10.44.55,1.69.6,1.21.72,5.49,2.75,2.52,1.19,3.91,1.73,5.86,2.56,1.03.44,5.48,2.35,9.52,4.58.95.52,5.57,3.1,10.98,7.51,2.14,1.75,5.58,4.73,9.34,8.97,4.47,5.04,6.7,7.56,8.24,11.72.62,1.66.96,4.71,1.65,10.8.24,2.1,1.24,11.33-.18,15.01-.55,1.42-.76,3.01-1.6,4.29-.2.3-.67.99-.45,1.29.27.37,1.25-.27,1.81.13.84.6.12,3.12-.13,3.1-.38-.03.86-6.22-1.35-7.29-.74-.36-1.83-.13-2.45.45-.7.66-.9,1.85-.58,2.06.14.1.46.05,1.23-.58"/>
  </g>
</svg>