<?xml version="1.0" encoding="UTF-8"?>
<svg id="Layer_2" data-name="Layer 2" xmlns="http://www.w3.org/2000/svg" width="41.01mm" height="77.76mm" viewBox="0 0 116.26 220.43">
  <defs>
    <style>
      .cls-1 {
        stroke-width: 1.5px;
      }

      .cls-1, .cls-2, .cls-3, .cls-4, .cls-5, .cls-6, .cls-7 {
        stroke: #f9c9de;
        stroke-miterlimit: 10;
      }

      .cls-1, .cls-2, .cls-4, .cls-5, .cls-6, .cls-7 {
        fill: none;
      }

      .cls-2 {
        stroke-width: .7px;
      }

      .cls-3 {
        fill: #f9cadf;
      }

      .cls-3, .cls-7 {
        stroke-width: .5px;
      }

      .cls-5 {
        stroke-width: .6px;
      }

      .cls-6 {
        stroke-width: 1.2px;
      }
    </style>
  </defs>
  <g id="Layer_1-2" data-name="Layer 1">
    <g>
      <path class="cls-1" d="m32.14,111.52c.3-.74.66-1.86.73-3.26.06-1.32-.19-1.71-.36-3.81-.16-1.98-.25-2.96,0-4.17.34-1.66.81-1.52,1.45-3.81.26-.95.58-2.12.54-3.63-.03-1.37-.35-2.72-.36-2.72-.01,0,.08,3.13,1.39,3.59.19.07.54.08,1.24.11.41.02.5,0,1.35,0,1.21,0,1.5.02,1.75.06.44.06.69.09,1.01.23.54.22.64.44,1.13.68.53.25,1.01.27,1.24.28.79.03,1.19-.25,2.25-.62,0,0,.86-.3,1.92-.51.88-.18,1.54-.15,4.73.23,2.46.29,2.17.29,2.82.34,1.6.12,2.71.21,4.17.06,1.43-.15,1.87-.39,2.99-.23.57.08.6.16,1.8.39,1.16.22,2.01.31,2.25.34,1.01.1,1.52.16,2.09.11,1.37-.1,1.39-.51,2.54-.56,1.05-.05,1.13.29,2.65.34.67.02,1.17.04,1.8-.11,1.3-.31,1.3-.88,2.42-1.13,1.17-.26,1.45.29,2.42-.11.69-.29.64-.6,1.47-.9.55-.2,1.06-.24,1.69-.28.63-.05.95-.07,1.18,0,.94.28,1.39,1.35,1.58,1.8.37.88.39,1.64.39,2.09.05,2.76.07,4.13.06,4.4-.12,2.13,0,3.69.23,6.82.17,2.37.43,4.39.56,5.35.07.49.13.89.17,1.18"/>
      <path class="cls-1" d="m8.53,121.86c0-.61,0-1.53,0-2.65,0-3.52-.03-4.25,0-5.47.05-1.84.34-3.21.35-4.94,0-.9.01-1.35,0-1.43-.06-1.25-.26-1.68,0-1.92.25-.23.7-.06,1.75.28.8.26,1.63.46,2.43.73.74.26.58.16,3.78,1.02.92.24,2.4.64,4.12,1.13,2.29.65,2.02.62,3.27.96,3.35.91,3.73.72,5.64,1.41.67.24,1.65.73,3.61,1.69,2.3,1.14,3.99,2.05,4.57,2.37,1.55.85,2.67,1.46,4.12,2.37,2.01,1.26,3.22,2.02,4.74,3.33,1.99,1.72,4.02,3.96,4.17,4.4.01.04.08.26.26.34.12.05.24.03.29.02.47-.1.96-.05,1.42-.17.81-.21,2.11.06,4.12.08,1.59.02,3.11.04,4.52-.27.79-.17,1.35-.41,2.02-.16.25.09.62.3,1.04.17.29-.08.46-.28.52-.35.81-.89,1.98-1.37,2.95-2.08.93-.69,5.78-3.94,12.66-6.65,4.72-1.86,7.08-2.79,9.66-2.95,1.51-.09,3.52-.03,6.19-.87,1.69-.53,2.55-.8,3.7-1.45,1.66-.93,2.74-1.98,3.3-1.62.32.2.3.75.29.98-.05,1.9.56,3.77.58,5.67.01,1.37.15,3.35.75,5.84"/>
      <path class="cls-1" d="m109.67,138.33c0,.53,0,1.43,0,1.98,0,3.19,0,3.59,0,4.3.03,2.83.17,2.89.17,4.71,0,2-.19,3.5-.58,6.51-.51,3.93-.85,4.76-.7,6.22.11,1.04-.1,2.12.12,3.14.06.26.17.72-.06.93-.26.24-.8-.04-1.28-.17-1.07-.31-1.72.1-3.66.58-1.28.31-1.28.21-3.31.58-3.72.69-5.28,1.34-10.46,2.56-4.08.96-4.42.86-6.51,1.57-2.23.75-3.87,1.55-5.58,2.38-3.05,1.48-4.58,2.22-6.34,3.6-.36.28-4.14,3.28-4.53,5.06-.03.12-.11.56-.47.87-.5.44-1.23.37-1.51.35-2.08-.16-2.41.79-5.17.7-2.15-.07-2.14-.65-3.89-.47-.94.1-2,.38-2.21,0-.09-.16.05-.28.17-.81.07-.33.29-1.3-.12-1.69-.21-.2-.42-.09-.93-.17-.55-.09-.93-.32-1.51-.7-2.42-1.58-3.63-2.37-4.19-2.85-2.71-2.32-6.86-4.18-8.95-4.94-1.45-.53-4.17-.8-9.53-1.34-7.56-.75-4.69-.24-12.15-.87-1.74-.15-6.9-.6-8.95.58-.13.07-.8.48-.99.29-.22-.22.38-1.09.7-1.74.84-1.74.44-3.49.23-4.83-.65-4.18-.03-8.45-.17-12.67-.14-4.12-.26-7.55-.35-10"/>
      <path class="cls-4" d="m6.08,136.8c-.51-.39-.95-.68-1.28-.89-.56-.36-.95-.56-1.33-.72-.85-.37-1.15-.33-1.33-.28-.08.02-.43.12-.61.44-.04.07-.18.35,0,.94.2.67.61,1.1.83,1.33.86.9,1.3,1.35,1.83,1.78,1.15.92,1.17.72,2.67,1.83.96.71,1.15.94,1.72,1.11.91.27,1.72.08,2.06,0,.62-.15,1.13-.27,1.5-.72.76-.92.21-2.35.17-2.45-.26-.63-.65-.96-1.56-1.67-2.14-1.68-3.23-2.53-4.39-3.17-.22-.12-2.25-1.22-2.39-1-.1.15.72.84,1.5,1.5,1.39,1.18,2.44,2.05,4.06,2.89,1.23.63,2.96,1.53,3.56.94.37-.36.15-1.15.06-1.5-.29-1.05-.97-1.69-2.06-2.61-1.81-1.54-2.71-2.31-3.56-2.83-1.86-1.15-1.76-.65-3.95-1.95-1.09-.65-1.86-1.22-2.22-.94-.3.22-.15.88-.06,1.33.13.59.47,1.63,1.5,2.72"/>
      <path class="cls-4" d="m2.25,124.03c-.59-.07-.82.14-.89.21-.5.54.22,1.83.34,2.04.38.69.86,1.1.98,1.19,1.82,1.52,3.86,2.93,3.99,3.02,1.31.9,2.68,1.7,3.99,2.59.72.49,1.43.97,1.83.72.47-.3.24-1.43.21-1.57-.2-.96-.75-1.58-1.36-2.25-2-2.19-3.01-3.29-3.44-3.7-.32-.3-1.17-1.08-2.34-2-1.11-.87-1.68-1.32-2.38-1.61-.63-.27-1.68-.59-3.14-.47"/>
      <path class="cls-4" d="m2.86,121.17c1.46.87,2.52,1.72,3.19,2.3,1.61,1.4,1.61,1.83,3.1,2.92,1.34.98,1.53.78,3.06,1.95.4.3.95.75,1.82,1.15.77.36,1.53.7,2.08.35.52-.32.57-1.05.58-1.15.04-.71-.37-1.31-1.37-2.35-1.49-1.53-2.23-2.3-3.54-3.01-.96-.52-1.86-.77-3.68-1.29-2.05-.58-3.2-.68-3.54-.71-.96-.08-1.77-.05-2.35,0"/>
      <path class="cls-4" d="m112.75,118.4c-.75.18-1.78.48-2.99.94-2.51.96-4.38,2.14-5.63,3.07,0,0-1.91,1.41-2.9,2.82-.08.12-.34.59-.85,1.54-.05.1-.15.29-.21.56-.02.12-.13.68.12.94.26.27.84.12,1.24,0,1.56-.48,2.76-1.18,3.48-1.59.97-.55,1.92-1.13,2.89-1.68,0,0,.75-.43,1.94-1.36.29-.22.46-.37.62-.62.41-.65.35-1.43.32-1.74-.02-.24-.06-.43-.09-.56"/>
      <path class="cls-4" d="m114.19,123.06c-.49-.02-1.2,0-2.03.18-1.74.37-2.39,1.12-4.15,2.18-2.32,1.4-4.56,2.14-6.57,3.62-.18.13-.74.56-1.09,1.33-.07.15-.57,1.3-.12,1.83.44.51,1.58.18,2.36-.06.8-.24,1.76-.64,5.42-3.18,1.98-1.37,2.05-1.5,2.53-1.62.21-.05.73-.16,1.06-.59.08-.1.34-.47.27-.97-.09-.58-.55-.87-.62-.91"/>
      <path class="cls-4" d="m114.42,128.18s.37-.45.21-.85c-.12-.28-.42-.39-.59-.44-.7-.23-1.39.07-1.62.18-2.16.97-3.15,1.74-3.15,1.74-.12.09-2.43,1.48-7.07,4.27-.19.11-.92.55-1.38,1.41-.16.3-.6,1.12-.27,1.65.43.67,1.81.43,2.09.38.58-.1,1-.32,1.18-.41,1.88-1,3.52-2.05,3.68-2.15.95-.61,1.85-1.27,2.83-1.83.7-.4,1.31-.71,1.83-1.41.39-.53.56-1.07.65-1.44"/>
      <path class="cls-4" d="m114.19,135.23c.24-.18.57-.45.91-.85.42-.5.71-.83.65-1.24-.07-.51-.65-.8-.71-.83-.53-.25-1.07-.1-2.09.27-1.45.52-2.18.78-2.74,1.09-.57.31-1.32.92-2.83,2.12-.21.17-1.14.92-2.06,2.09-.36.46-.65.89-.53,1.33.13.46.64.68.71.71.82.34,1.74-.25,3.27-1.24,1.12-.72,1.76-1.31,3.04-2.48.42-.38.95-.89,1.36-1.71.13-.26.21-.49.27-.65"/>
      <path class="cls-7" d="m38.73,112.8c.4-.42,1.07-1.01,2.04-1.45,1.18-.54,2.21-.59,3.06-.62,1.02-.03,2.31-.08,3.71.62,1,.5,1.67,1.18,2,1.53.5.53.86,1.03,1.09,1.42"/>
      <path class="cls-7" d="m79.75,113.18c-.45-.49-1.2-1.19-2.3-1.72-1.33-.64-2.49-.7-3.45-.73-1.15-.04-2.61-.09-4.18.73-1.13.59-1.88,1.4-2.26,1.81-.57.62-.97,1.22-1.23,1.68"/>
      <path class="cls-7" d="m68.14,116.3c-.08.04-.17-.08-.59-.41-.72-.56-.89-.54-.97-.76-.2-.59.8-1.61,1.14-1.46.11.05.11.2.18.73.17,1.29.4,1.82.23,1.9Z"/>
      <path class="cls-7" d="m73.23,111.31c-.58.2-.86.73-1.03,1.03-.38.69-.35,1.33-.32,2.09.04.99.07,1.69.6,2.16.42.37.92.41,1.13.43.96.08,1.67-.48,2.41-1.06.71-.56,1.21-.95,1.24-1.56.02-.4-.18-.7-.53-1.2-.2-.29-.68-.97-1.59-1.45-.61-.32-1.25-.66-1.91-.43Z"/>
      <path class="cls-3" d="m72.41,115.49c.01-.2.16-.23.71-.81.65-.7.6-.83.89-.96.21-.09.67-.02,1.59.14.55.09.73.15.89.32.26.29.22.71.21.78-.09.9-1.35,1.84-2.55,1.74-.88-.08-1.77-.71-1.74-1.2Z"/>
      <path class="cls-3" d="m47.51,114.65c-.01.2-.16.23-.71.81-.65.7-.6.83-.89.96-.21.09-.67.02-1.59-.14-.55-.09-.73-.15-.89-.32-.26-.29-.22-.71-.21-.78.09-.9,1.35-1.84,2.55-1.74.88.08,1.77.71,1.74,1.2Z"/>
      <path class="cls-7" d="m44.35,111.21c-.55.02-.91.13-1.2.32-.67.42-.9,1.11-.96,1.31-.21.69-.05,1.27.04,1.59.08.28.49,1.76,1.81,2.27,1.47.57,3.19-.4,3.9-1.67.13-.23.66-1.17.32-2.13-.63-1.78-3.62-1.71-3.9-1.7Z"/>
      <path class="cls-3" d="m35.68,105.77c.41-.2.65-.48.69-.52.22-.26.71-.51,2.47-.56.91-.03,1.6.01,2.97.12,1.66.13,2.49.2,2.97.27,1.62.23,2.43.35,3.47.73.48.17,1.03.41,1.91.6,1.05.23,1.49.15,1.83-.02.37-.19.62-.5.77-.68.25-.31.37-.58.52-.91.15-.33.17-.46.17-.58,0-.06,0-.33-.17-.58-.2-.31-.53-.43-.75-.5-1.28-.41-1.91-.44-1.91-.44-1.87-.07-3.28-.02-3.28-.02-1.72.06-2.59.09-3.16.12-.56.04-1.56.12-2.8.27-1.85.23-1.29.26-2.91.46-.91.11-1.53.16-2.16.6-.43.31-.66.66-.77.83-.16.25-.45.79-.31.91.08.08.3-.03.46-.1Z"/>
      <path class="cls-3" d="m64.36,107.06c-.14-.13-.17-.3-.19-.47-.07-.57-.11-.88,0-1.33.08-.32.16-.62.41-.88.21-.22.45-.32,1.11-.51.6-.17.9-.26,1.33-.35,1.02-.21,1.2-.4,2.37-.76.48-.15,1.48-.45,2.72-.6.8-.1,1.62-.09,3.25-.06,1.23.02,1.02.05,2.27.06,1.65.02,2.24-.02,3.06.06.87.09.98.21,1.42.13.13-.02.32-.07.44.03.16.13.14.47,0,.69-.14.23-.39.31-.63.38-.14.04-.4.1-.88.06-.39-.03-.64-.1-.88-.16-.49-.11-.85-.13-1.48-.16-.32-.01-.78-.02-2.02.13-1.04.12-1.68.2-2.56.38-1.25.26-2.15.56-3.09.88-.14.05-.91.34-2.43.92-1.52.58-1.67.64-1.93.82-.36.25-.76.44-1.14.66-.16.1-.43.26-.76.22-.07,0-.24-.03-.38-.16Z"/>
      <path class="cls-7" d="m56.13,68.5c-.27-.19-.7-.44-1.26-.57-.93-.22-1.62.03-2.35.17-1.71.33-2.17-.19-3.49-.06-.95.1-1.51.45-4.06,2.35-4.64,3.44-6.07,4.68-6.93,5.44-1.01.91-1.7,1.58-2.4,2.35-1.03,1.13-1.04,1.32-1.95,2.35-.9,1.02-2.05,2.3-3.84,3.43-1.39.88-2.61,1.33-3.21,1.55-1.06.38-1.94.58-3.43.92-2.14.48-2.81.5-3.78,1.14-.45.3-1.09.74-1.43,1.55-.32.76-.12,1.25-.11,2.29,0,1.32-.32,2.3-.63,3.26-.71,2.18-1.83,3.36-1.55,3.61.14.13.44-.16,1.26-.46.69-.25,1.99-.73,2.98-.23.68.35.97,1.04,1.09,1.32.56,1.35.04,2.82-.46,4.18-.62,1.68-1.14,2.07-.92,2.92.18.69.75,1.29,1.37,1.55.65.27,1.36.16,2,.06.78-.12.99-.3,1.32-.17.34.14.67.55.8,1.66"/>
      <path class="cls-7" d="m60.13,69.76c-.18-.35-.52-.84-1.09-1.09-.93-.4-1.9.11-3.55.8-1.15.48-2.33.87-3.49,1.32-2.06.79-2.25.71-6.18,2-2.28.75-3.41,1.12-3.95,1.37-2.01.94-3.16,1.98-5.27,3.84-4.08,3.6-7.64,7.79-11.91,11.16-.17.13-.64.5-.92,1.14-.36.84-.04,1.35.06,2.58.18,2.35-.78,3.32,0,4.41.25.35.42.34.69.8.54.91.43,1.9.4,2.18-.16,1.35-.87,1.39-1.37,3.15-.22.76-.39,1.4-.11,2.06.27.65.75.75,1.32,1.37.42.46.89,1.21,1.09,2.46"/>
      <path class="cls-7" d="m49.43,76.11c-.21-.19-.55-.45-1.03-.63-.55-.2-1.18-.25-2-.06-1.59.36-2.85,1.36-4.06,2.29-3.24,2.49-2.67,1.86-3.84,2.86-2.21,1.9-1.94,2.15-5.15,5.38-2.22,2.23-2.95,2.71-3.84,4.29-.93,1.65-1.24,3.09-1.32,3.49-.31,1.56.03,1.58-.17,3.72-.29,3.01-.8,5.27-.8,5.27-.18.76-.37,1.47,0,2.12.28.49.7.62,1.14,1.43.22.4.37.69.29,1.03-.14.52-.77.79-1.2.86-.62.09-1.1-.19-1.26-.29-1.04-.63-1.21-1.95-1.26-2.29-.14-1.04.18-1.86.52-2.75.35-.92.59-1.07,1.14-2.4.29-.69.38-1.02.57-1.55,0,0,.72-2,1.95-3.95.45-.71.62-.88,2.46-3.15,1.88-2.31,1.92-2.42,2.58-3.21,2.2-2.65,4.23-4.51,6.24-6.35.87-.8,2.46-2.13,5.61-4.75,6.17-5.15,7.35-6.02,9.27-6.13.01,0,0,0,3.95.11,2.6.08,3.91.11,4.01.11,2.87.03,3.56-.36,7.84-.8,3.9-.4,5.85-.61,7.21-.17,2.63.84,4.24,2.72,5.44,4.12,2.02,2.36,2.94,4.73,3.61,6.47,1.02,2.64.83,3.35,2.12,6.35.74,1.73,1.21,2.83,2.18,4.06,2.09,2.69,4.86,3.91,4.87,3.89.01-.02-2.17-2.22-4.98-2.8-.39-.08-.93-.16-1.6-.52-1.1-.58-1.69-1.47-2.12-2.12-.38-.59-1.34-2.1-1.32-4.12.01-1.13.32-1.15.29-2.18-.05-1.56-.79-2.71-1.37-3.61-.89-1.36-1.94-2.95-3.95-3.49-1.64-.44-3.1.03-3.84.34"/>
      <path class="cls-7" d="m44.39,89.22c-.48-.03-1.19-.06-2.06-.06-2.04,0-3.05,0-4.29.4-1.51.48-2.38,1.21-2.63,1.43-.26.23-.46.44-.6.59"/>
      <path class="cls-7" d="m68.58,69.95c.56,0,1.39,0,2.38.13,1.71.21,3.91.47,5.87,1.87,1.06.75,1.75,1.76,3.15,3.79,1.18,1.72,1.78,2.58,2.04,3.79.17.79.05.89-.09,4.34-.11,2.89-.05,3.35.09,3.83.41,1.53,1.27,2.55,1.83,3.19,1.43,1.66,2.37,1.69,4,3.15.94.84,1.58,1.81,2.85,3.74,2.28,3.47,3.42,5.2,4.47,7.49.44.96,1.15,2.63,2,2.6.3-.01.62-.25.81-.47.36-.43.35-.98.34-1.36-.03-1.58.01-2.77.04-3.28.08-1.4.32-1.95.51-2.3.24-.43.52-.74.72-.94"/>
      <path class="cls-7" d="m98.54,109.74c-.15-1.13.03-1.94.21-2.47.12-.33.39-.81.94-1.74.89-1.53.98-1.58,1.11-2,.26-.88.12-1.64,0-2.34-.2-1.11-.6-1.9-.98-2.64-.91-1.75-1.31-1.63-1.57-2.64-.18-.68,0-.76.13-3.06.12-2.19,0-2.7-.13-3.06-.27-.78-.93-1.93-1.66-1.91-.47.01-.53.49-1.36.89-.63.3-1.32.38-1.83.3-1.05-.16-1.73-1.03-2.13-1.53-2.88-3.64-4.35-5.46-5.87-5.49-.64-.01-1.46.25-1.66.77-.21.53.42.93.38,1.79-.04.98-.93,1.94-1.36,1.83-.44-.11-.63-1.36-.34-2.3,0,0,.06-.15.14-.34.13-.3.23-.52.25-.56.19-.42.42-1.32.43-1.62.03-.94-1.27-1.56-2.81-2.6-3.41-2.31-3.44-3.65-5.49-3.96-.78-.12-.67.09-2.72.04-.95-.02-2.2-.06-3.53-.3-2.65-.48-2.74-1.28-5.06-1.62-1.22-.18-2.13-.09-3.53.04-.83.08-2.59.29-4.85.98-5.08,1.55-8.5,4.22-10.08,5.49-2.7,2.15-3.36,3.36-3.66,4-.9,1.93-.97,4.01-.98,4.34-.04,1.68.33,2.25.09,4-.22,1.57-.74,2.66-.68,2.68.06.02.65-1.34,1.19-2.94.54-1.61.39-1.57.68-2.13.6-1.17,1.51-1.82,2.89-2.81,1.58-1.12,1.75-.89,2.64-1.74.97-.93.86-1.31,1.91-2.17.86-.7,1.1-.59,1.91-1.36.72-.68.68-.91,1.4-1.49.76-.61.9-.44,1.53-1.02.61-.57.63-.88,1.23-1.23.55-.33.75-.2,1.02-.47.51-.5.34-1.44.21-2.13-.3-1.58-1.17-3.22-1.57-3.11-.22.06-.24.64-.26,1.06-.06,1.76.91,3.45,1.23,3.36.29-.08.22-1.66,0-1.7-.19-.03-.8,1.05-.64,2.13.12.85.6.94,1.06,2.13.26.67.17.8.43,2,.19.86.41,1.54.85,2.89.7,2.14.85,2.19.98,3.06.17,1.14.07,2.05,0,2.51-.09.61-.22,1.45-.72,2.34-.76,1.34-1.85,1.88-1.74,2.04.09.14.82-.26,2.3-.85,1.96-.78,2.24-.73,2.81-1.23.87-.77,1.16-1.76,1.28-2.17.26-.91.16-1.7-.04-3.23-.14-1.05-.25-1.89-.6-3.02-.68-2.21-1.02-3.32-1.96-4.04-.17-.13-.81-.59-1.19-1.4-.11-.23-.28-.61-.13-.81.19-.24.71-.04,1.23.04,1.46.24,2.87-.38,2.85-.55-.03-.29-4.3-.03-4.3-.09,0-.05,2.81-.69,5.62.47,1.61.67,2.58,1.66,2.85,1.96,1.32,1.43,1.75,2.97,1.96,3.79.22.84.26,2.02.34,4.34.1,2.96,0,3.17.26,3.91.2.57,1.03,2.71,3.06,3.4,1.75.6,3.86-.05,3.96-.68.03-.19-.15-.27-.34-.68-.33-.72-.2-1.42-.13-1.87.29-1.92-.27-1.98,0-4.77.12-1.24.27-1.66-.04-2.17-.39-.64-1.07-.72-1.23-1.45-.1-.46.07-.87.13-1.02.21-.52.53-.68.85-1.02.94-1.02.55-2.24,1.06-2.38.29-.08.57.26,1.45,1.19,1.64,1.73.59.47,1.74,1.79,2.45,2.8,3.67,4.2,4.34,5.49.34.65.22.54,1.19,3.19,1.66,4.51,1.96,4.67,2.81,7.28,1.14,3.5,1.34,5.52,1.4,6.21.16,1.86.28,3.43-.47,4.89-.14.28-.4.71-.6,1.4-.4,1.39-.16,2.46-.09,2.77.12.48.39,1.26.55,1.23.27-.05.07-2.27,0-3.11-.12-1.43-.19-2.17-.55-3.06-.27-.67-.56-1.09-1.06-1.83-.68-.99-1.39-2.03-2.6-2.98-1.3-1.03-2.03-1.05-2.17-1.79-.15-.78.48-1.74.6-1.91.23-.35.32-.35.64-.81.36-.51.65-1.09.77-1.49.23-.76-.02-1.28-.34-2.51-.15-.59-.65-2.58-.72-4.68-.04-1.15.08-1.25-.04-2.04-.2-1.27-.69-2.25-1.09-2.89"/>
      <path class="cls-7" d="m85.93,100.82c-.1-.21-.27-.53-.5-.89-.25-.39-.38-.55-.59-.84-.6-.85-1.05-1.47-.99-2.18.02-.22.11-.43.3-.84.35-.79.7-1.06.84-1.73.05-.25.05-.47.05-.59"/>
      <path class="cls-7" d="m90.98,100.13c.39,1.3.44,2.34.4,3.07-.04.76-.17,1.16-.1,2.03.04.45.11,1.23.5,2.08.51,1.11.91.91,1.59,2.23.48.94.6,1.68.64,2.13.02.26.02.49.02.64"/>
      <path class="cls-7" d="m50.01,91.74c-.19-.58-.11-.92,0-1.13.17-.33.43-.39.87-.8,0,0,.33-.31.73-.93.52-.8.44-1.71.47-2.93.04-2.01.06-3.01.47-3.67.58-.94,1.59-1.34,2.73-1.8,1-.4,2.05-.61,3.4-1.27.05-.02.9-.45,1.12-1.05.12-.33.13-.68.13-.68,0-.15-.01-.28-.03-.38"/>
      <path class="cls-7" d="m44.93,118.31c.59-.08,1.49-.13,2.52.1,1.1.25,1.29.57,4.32,2.52,2.39,1.54,3.05,1.83,3.49,2.83.21.47.33,1.01.62,1.03.43.03.47-1.18,1.23-2.11.97-1.19,2.33-.97,6.06-1.85.57-.13,1.37-.36,2.98-.82,3.58-1.02,4.39-1.39,6.63-1.95.9-.23,2.24-.54,3.91-.82"/>
      <path class="cls-7" d="m73.29,118.93c-.82.28-1.97.66-3.34,1.08-.7.21-2.12.64-4.01,1.13-1.23.32-1.99.49-3.55.93-1.62.45-2.06.62-2.57.93-1.17.7-1.13,1.18-2.06,1.8-2,1.34-4.69.77-4.72.53-.02-.14.85-.21.96-.69.05-.23-.08-.5-.57-.98-.76-.74-1.39-1.01-2.36-1.59-1.16-.69-1.05-.77-1.85-1.18-.89-.46-1.68-.69-2.21-.82"/>
      <path class="cls-7" d="m61.47,124.66c.29-.54.63-.82.88-.98.31-.2.48-.21,1.84-.57.88-.23.89-.24,1.3-.34.61-.13,1.11-.21,1.38-.25.31-.05.57-.08.78-.1"/>
      <path class="cls-1" d="m65.27,182.96c.01-.98.03-2.39,0-4.07-.05-3.46-.12-7.96-.86-13.3-.46-3.31-.74-3.8-.99-6.73-.22-2.61-.16-4.17-.17-6.13-.04-8.93-1.43-15.5-.64-19.56.13-.66.43-1.84.69-3.6,0,0,.21-1.47.47-2.66.12-.54.26-1.07.26-1.07.05-.18.09-.34.12-.45"/>
      <path class="cls-1" d="m51.28,125.94c.02.8.05,2,.12,3.46.16,3.23.39,5.63.49,6.68.66,6.94.99,10.4,1.1,13.7.17,5.09-.19,5.28.12,9.78.14,1.97.32,3.52.53,7.09.13,2.25.2,3.95.24,5.05.12,3.05.22,5.64.16,9.01-.02,1.23-.05,2.23-.08,2.87"/>
      <path class="cls-4" d="m69.51,128.55c-.42-.14-1.07-.27-1.69,0-1,.43-1.29,1.62-1.69,3.32-.41,1.76-.8,3.42-.2,5.4.31,1.03.66,2.18,1.69,2.6,1.54.64,3.24-.9,3.32-.98,1.27-1.18,1.3-2.81,1.3-3.12"/>
      <path class="cls-4" d="m71.59,139.74c.4-2.54.71-4.58.91-5.98,0,0,.2-1.36.59-3.71.62-3.73.79-4.29.98-4.29.24,0,.32.99.85,3.12.11.45.44,1.58,1.11,3.84.38,1.3.89,3,1.5,5.01"/>
      <path class="cls-4" d="m77.32,125.62c.05.41.28,2.45.33,2.86.34,3.01.7,6.1,1.04,9.11"/>
      <path class="cls-4" d="m76.21,126.27c.79-1.01,1.63-1.55,2.15-1.82.81-.43,1.78-.94,2.6-.52.47.24.81.74.91,1.24.22,1.1-.71,2.11-1.82,3.32-.67.73-1.35,1.31-1.98,1.79"/>
      <path class="cls-4" d="m72.67,134.37c.62-.16,1.12-.35,1.47-.49.44-.18.83-.38,1.6-.77.46-.23.84-.43,1.11-.58"/>
      <path class="cls-4" d="m85.31,136.91c-.66-1.24-.95-2.31-1.09-3.06-.15-.79-.18-1.43-.22-2.62-.05-1.35-.01-2.26,0-2.84.02-1.16-.03-2.83-.36-4.95"/>
      <path class="cls-4" d="m82,119.37c-.21-.06-.43.11-.48.31-.06.25.14.52.38.52.2,0,.37-.2.38-.41,0-.17-.09-.36-.28-.41Z"/>
      <path class="cls-4" d="m84.83,123.16c.77-.34,1.69-.75,2.72-1.24,1.57-.74,2.21-1.09,4.07-1.96,3.02-1.42,2.59-1.09,2.76-1.21.04-.03.27-.2.34-.14.11.09-.24.6-.55,1.41-.13.34-.2.6-.34,1.1-.35,1.26-.41,2.63-.48,4.76-.04,1.24-.06,1.86-.07,2.21-.03,1.6-.13,3.96-.45,7.13"/>
      <path class="cls-4" d="m98.61,132.98c-.05-.47-.12-1.1-.24-1.86-.07-.46-.23-1.41-.65-3.17-.26-1.06-.53-2.21-1-3.72,0,0-.7-2.27-1.41-3.52-.27-.48-.59-.93-.59-.93-.19-.27-.37-.51-.52-.69"/>
      <path class="cls-4" d="m91.2,127.32c.24.14.65.33,1.16.35.61.03,1.05-.19,1.8-.56.72-.36,1.21-.73,1.55-.99.08-.06.45-.35.92-.77.21-.19.38-.36.51-.5"/>
      <path class="cls-4" d="m99.7,115.9c.44,1.16.69,2.13.83,2.8.2.92.25,1.47.47,2.99.18,1.18.34,2.14.45,2.75"/>
      <path class="cls-4" d="m90.26,133.92c-.18-.73-.4-1.71-.6-2.87-.24-1.33-.34-2.24-.53-4.03,0,0-.19-1.73-.27-4.4,0-.18-.01-.56.06-1.06.05-.3.11-.54.15-.69"/>
      <path class="cls-2" d="m69.56,147.41c.18.42.29.79.38,1.07.16.54.24.82.26,1.22.03.56-.09.63,0,1.04.05.21.14.62.49.9.5.39,1.14.23,1.22.2.58-.16.86-.64,1.01-.9.12-.2.42-.71.29-1.33-.03-.15-.13-.6-.52-.84-.06-.03-.36-.21-.67-.12-.25.08-.34.29-.55.58-.22.32-.52.58-.78.87-.31.35-.82.85-1.71,1.48"/>
      <path class="cls-2" d="m76.54,146.6c-.1.07-.74.54-.78,1.36-.03.5.16,1.23.67,1.42.4.15.8-.1,1.39-.46.41-.25.89-.55,1.22-1.07.62-1.01.33-2.32.29-2.32-.05,0-.55,2,.32,3.62.4.74.79.87,1.1,1.77.3.89.22,1.66.17,2.03-.1.79-.23,1.88-1.04,2.32-.5.27-1.05.18-1.33.12"/>
      <path class="cls-2" d="m68.17,156.91c.36.74.72,1.56,1.04,2.46.68,1.86,1.06,3.59,1.27,5.07"/>
      <path class="cls-2" d="m71.36,157.26c-.28.22-.7.58-1.07,1.13-.23.34-.2.38-.52.93-.6,1.01-.9,1.17-.84,1.56.05.33.32.61.58.72.34.16.56-.02,1.1.06.1.01.36.06.84.29,1.46.7,2.02,1.68,2.55,1.51.23-.07.19-.28.81-1.97.28-.76.34-.86.52-1.42.24-.75.37-1.12.43-1.59.14-1-.05-1.54.12-1.59.09-.03.28.08,1.16,1.62.65,1.15,1.14,2.12,1.45,2.75.32.65.57,1.19.75,1.56"/>
      <path class="cls-2" d="m79.73,158.45c-.22.22-.54.5-.96.78-.14.09-.74.49-1.77.87-.63.23-1.54.49-2.69.61"/>
      <path class="cls-2" d="m81.27,155.4c.26.3.6.73.93,1.3.1.17.47.84.84,2.12.34,1.18.46,2.12.46,2.12,0,0-.11-2.65-.61-4.09-.02-.07-.18-.5-.06-.58.1-.07.29.22.64.32.52.14,1.05-.24,1.27-.41.28-.21.45-.45.78-.93.49-.71.48-.96.46-1.04-.03-.21-.16-.53-.41-.61-.55-.19-1.31.9-1.45,1.1-.21.29-.46.66-.55,1.22-.12.77.16,1.38.32,1.74.22.49.5.8.61.93.25.28.55.6,1.01.75.75.25,1.45-.11,1.68-.23.96-.49,1.31-1.43,1.39-1.68"/>
      <path class="cls-2" d="m88.71,151.78c.37.68.6,1.25.75,1.65.23.6.16.57.64,2.03.46,1.42.48,1.33.49,1.54.01.22,0,.56.23.78.15.14.33.18.43.2.16.03.51.07,1.04-.23.5-.28.5-.49.96-.87.74-.62,1.2-.44,2-1.1.29-.24.49-.48.61-.64"/>
      <path class="cls-2" d="m73.91,165.37c.32.77.53,1.42.67,1.88.21.74.24,1.05.52,2.09.23.86.49,1.84.61,1.83.09-.02.02-.6,0-2.06-.01-1.3.04-1.28,0-1.94-.08-1.37-.36-2.36-.29-2.38.08-.02.19,1.05.96,1.91.34.38.46.33,1.01.93.14.15.24.27.41.29.08,0,.29.01.84-.61.19-.21.43-.52.72-.99.15-.24.34-.54.52-.96.38-.84.43-1.43.52-1.42.09,0,0,.58.17,1.36.14.61.37,1.02.67,1.54.44.78.71,1.23,1.22,1.36.08.02.3.07.55,0,.44-.13.66-.57.87-1.01.51-1.06.77-1.65.93-1.97.57-1.18.7-1.02,1.01-1.85.39-1.02.38-1.73.67-1.77.1-.01.2.05.58.58.48.67.84,1.18,1.19,2.09.26.68.41,1.22.41,1.22.15.57.2.95.52,1.3.17.19.36.31.49.38"/>
      <path class="cls-2" d="m92.8,165.86c-.5-.57-.71-1.12-.81-1.45-.24-.81-.13-1.48-.03-2.14.1-.63.17-1.08.49-1.59.18-.29.56-.9,1.3-1.1.17-.05.74-.2,1.27.12.05.03.53.33.67.9.2.84-.51,1.61-.9,2.03-.4.44-.79.65-1.1.81-.46.24-.86.46-1.19.29-.21-.11-.38-.38-.32-.58.09-.27.6-.31.78-.32.99-.07,1.88.53,2.29.81.42.29.53.45.9.55.49.14.91.03,1.16-.03.77-.2,1.27-.67,1.51-.93"/>
      <path class="cls-2" d="m99.2,157.75c.24.41.57.92.99,1.48.61.82,1.14,1.38,1.51,1.77.75.78,1.38,1.45,2.38,2.12.41.27.76.47,1.01.61"/>
      <path class="cls-2" d="m104.01,157.95c-.17.37-.43.92-.75,1.59-.57,1.2-.64,1.37-.72,1.54-.34.7-.91,1.68-1.91,2.87"/>
      <path class="cls-2" d="m89.1,163.52c-.67.46-1.23.8-1.62,1.02-.71.42-.94.51-1.62.94-.35.22-.53.35-.94.6-.43.26-.79.45-1.02.57"/>
      <path class="cls-4" d="m24.55,172.68c.24.74.5,1.85.46,3.19-.04,1.36-.38,2.5-1.14,4.22-.83,1.9-1.81,4.13-3.88,6.84-1.87,2.46-2.58,2.61-3.88,4.9-1.12,1.99-1.39,3.28-1.48,3.88-.06.36-.25,1.72.23,4.22.51,2.65,1.08,2.98,2.28,6.61.94,2.86,1.38,5.06,1.94,5.02.36-.03.28-.99,1.14-1.71.63-.53,1.31-.56,2.51-.68,1.12-.12,2.6-.28,3.88-.57,2.27-.52,2.41-1.14,4.22-1.25,1.17-.08,1.26.17,2.39,0,1.18-.18,1.82-.58,3.08-1.37.22-.14.52-.34.51-.58-.02-.34-.63-.48-1.03-.75-.86-.59-.88-1.96-.87-3.36.03-3.04.05-4.56.24-5.65.61-3.49,1.86-5.97,2.49-7.19.54-1.04.96-1.87,1.74-2.88.84-1.1,1.26-1.32,1.78-2.21.66-1.12.81-2.15.95-3.2.16-1.15.27-3.09-.36-5.49"/>
      <path class="cls-4" d="m76.14,175.09c.29.52.71,1.29,1.16,2.25.89,1.91,1.59,3.4,1.89,5.36.26,1.7.1,3-.06,4.32-.11.94-.3,1.92-1.16,4.87-1.43,4.9-1.72,4.9-2.01,6.82-.3,2.02-.19,3.49-.06,5.36.24,3.42.87,4.49,1.28,5.05.63.86,1.81,1.99,2.62,1.7.46-.17.53-.7.85-1.34.62-1.23,1.65-1.79,3.41-2.74,2.14-1.15,4.02-1.5,5.78-1.83,1.49-.28,2.49-.46,3.89-.49.5,0,1.7-.01,3.29-.24,1.48-.22,1.79-.41,1.83-.61.05-.32-.64-.55-1.34-1.16-.93-.81-1.26-1.8-1.58-2.74-.71-2.08-.39-3.91-.18-4.99.21-1.13.38-1.18,1.64-4.5,1.43-3.74,1.54-4.51,1.58-5.05.12-1.44-.09-2.48-.43-4.08-.19-.9-.71-3.13-2.07-5.66-.65-1.21-.97-1.82-1.64-2.43-.74-.69-1.33-.88-2.8-1.95-.65-.47-1.16-.89-1.47-1.15"/>
      <path class="cls-1" d="m84.1,218.73c-.36-.31-.9-.83-1.4-1.58-.7-1.03-.58-1.37-1.26-2.24-.71-.89-1.05-.8-1.6-1.69-.31-.5-.31-.7-.69-1.55-.37-.83-.75-1.47-1-1.86"/>
      <path class="cls-1" d="m88.34,214.54c-.19-.68-.49-1.5-1-2.38-.35-.6-.42-.58-.83-1.29-.63-1.09-.66-1.48-1.2-2.32-.21-.32-.52-.76-.97-1.23"/>
      <path class="cls-4" d="m92.95,214.64c-.29-1.07-.65-1.89-.92-2.45-.44-.9-.99-1.78-1.07-1.92-.86-1.37-1.15-1.49-1.23-2.15-.05-.45.05-.64,0-1.61-.02-.43-.07-.78-.1-1.02"/>
      <path class="cls-4" d="m99.77,211.99c-.7-.56-1.06-1.11-1.26-1.51-.29-.59-.24-.84-.63-1.95-.27-.75-.53-1.3-.63-1.51-.27-.55-.69-1.31-1.32-2.14"/>
      <path class="cls-4" d="m105.31,212.36c-.51-.41-1.21-1.06-1.83-2.01-.41-.64-.74-1.36-1.38-3.84-.26-.99-.57-2.3-.88-3.84"/>
      <path class="cls-4" d="m23.23,220.27c-.18-.51-.47-1.28-.87-2.2-.49-1.11-.58-1.18-1.03-2.2-.59-1.39-.6-1.69-1.08-2.61-.37-.7-.74-1.24-.99-1.57"/>
      <path class="cls-4" d="m26.64,218.19c-.63-.54-1-1.09-1.23-1.52-.48-.91-.35-1.36-.87-2.57-.1-.22-.18-.39-.96-1.71-.37-.62-.87-1.46-1.47-2.46"/>
      <path class="cls-4" d="m30.86,216.31c-.68-.88-1.2-1.7-1.59-2.36-.25-.43-.61-1.04-.99-1.9-.2-.44-.41-.98-.82-2.05-.19-.48-.34-.89-.45-1.16"/>
      <path class="cls-4" d="m35.43,213.83c-.66-.69-1.08-1.32-1.35-1.78-.11-.19-.35-.67-.82-1.62-.82-1.65-.68-1.46-.77-1.59-.11-.15-.37-.52-.48-1.06-.02-.09-.03-.17-.03-.22"/>
      <path class="cls-4" d="m42.79,213.54c-.41-.28-.96-.71-1.52-1.33-.78-.86-1.21-1.66-1.52-2.25-.37-.71-.57-1.25-.9-2.15-.25-.68-.56-1.62-.87-2.77"/>
      <path class="cls-5" d="m23.16,69.23c.16.09.63.39.88.99.26.63.12,1.18.05,1.42-.12.46-.57,1.57-1.31,1.53-.48-.02-.98-.52-.99-1.04,0-.61.68-1.26,1.59-1.15"/>
      <path class="cls-5" d="m12.43,64.39c.25,0,.97.05,1.58.54.64.51.75,1.19.79,1.49.08.56.09,2.01-.84,2.4-.6.25-1.47.02-1.74-.53-.32-.65.2-1.74,1.38-2.16"/>
      <path class="cls-5" d="m5.1,51.57c.37-.22,1.45-.8,2.68-.65,1.29.16,1.91,1.02,2.18,1.41.51.73,1.52,2.78.43,4.17-.7.9-2.13,1.34-2.91.8-.92-.64-.91-2.65.52-4.3"/>
      <path class="cls-5" d="m13.74,42.75c-.64-.37-1.33-.43-1.79-.11-.44.31-.51.87-.56,1.34-.05.46-.26,2.38,1.12,3.24.77.48,1.74.44,2.45.11,1.19-.54,1.53-1.84,1.79-2.79.28-1.05.65-2.45-.22-3.57-.62-.8-1.71-1.26-2.79-1.12-1.06.14-1.71.8-1.9,1"/>
      <path class="cls-5" d="m27.46,35.28c-.36.17-.99.52-1.45,1.23-.06.09-.96,1.5-.45,2.57.12.24.3.45.26.48-.07.06-.71-.96-1.41-.97-.85,0-1.5,1.46-1.63,1.76-1.19,2.81.54,5.99.84,6.52.39.69,2.16,3.84,5.42,4.32.57.08,2.69.4,3.96-.79.35-.33.76-.89.84-.84.08.05-.43.65-.53,1.37-.15,1.13.78,2.11,1.41,2.77,1.5,1.58,3.29,2.09,3.96,2.25,1.04.24,2.14.5,3.39,0,1.3-.52,2.64-1.81,2.64-3.13,0-.42-.13-.9-.04-.92.1-.03.28.61.62,1.1.71,1.04,2.02,1.29,2.64,1.41,1.49.29,2.67-.11,4.32-.7,2.39-.86,3.7-1.33,4.49-2.69.78-1.35.62-2.84.44-3.7"/>
      <path class="cls-5" d="m52.25,47.52c.19.53.63,1.53,1.63,2.25.56.4,1.14.6,1.89.75,1.62.33,2.99.24,5.64-.09,3.79-.47,4.16-.68,4.49-1.06.74-.85,1.24-2.55.7-3.66-.11-.23-.35-.59-.26-.66.1-.09.56.4,1.06.66,1.4.74,3.26-.21,3.7-.44.74-.38,2.05-1.05,2.42-2.51.24-.95-.06-1.77-.26-2.33-.58-1.57-1.76-2.44-2.16-2.73-1.12-.81-2.21-1.04-2.16-1.23.03-.13.54-.04,1.06-.09,1.92-.17,3.18-2.15,3.35-2.42,1.05-1.65.88-3.4.79-4.14-.34-2.99-2.43-5.08-4.67-7.31-1.28-1.28-1.93-1.92-2.86-2.51-.23-.14-.93-.57-.88-.66.05-.1.93.53,1.63.31,1.06-.34,1.44-2.54,1.28-4.14-.21-2.14-1.43-3.6-2.16-4.45-2.44-2.84-6.17-4.2-7.66-3.57-.12.05-.69.31-.79.18-.09-.13.37-.48.53-.88.42-1.06-1.19-2.77-2.47-3.74-1.66-1.26-3.29-1.67-5.11-2.11-2.24-.55-3.99-.61-4.49-.62-1.89-.04-3.58-.07-5.59.75-.62.25-3.67,1.49-4.49,3.44-.05.11-.32.78-.48.75-.17-.04.05-.78-.22-1.15-.66-.87-4.08.69-5.15,1.19-3.16,1.46-5.06,2.35-6.69,4.54-.45.61-1.34,1.92-1.85,3.79-.4,1.46-.89,3.24-.22,4.54.08.15.35.63.22.75-.13.12-.52-.31-1.01-.4-1.01-.17-2.04,1.23-2.82,2.29-.87,1.18-1.32,1.79-1.54,2.82-.37,1.69.19,3.11.44,3.66.34.74,1.11,1.54,2.64,3.13,1.02,1.06.86.81,1.59,1.59,1.4,1.49,1.85,2.24,3.35,3.79.43.44.78.79,1,1"/>
      <path class="cls-6" d="m34.64,27.93c-.22.04-.43-.81-1.14-1.99-.93-1.55-1.44-1.54-1.76-2.37-.44-1.16.12-2.34,1.04-4.18.4-.79,1.31-2.49,3.18-4.61,1.86-2.1,3.22-3.6,5.27-3.8.36-.03.84-.08,1.42.1,1.8.53,2.6,2.51,3.37,4.51.86,2.23,1.72,4.45,1,7.08-.28,1.02-.64,2.34-1.8,3.28-.86.69-2.03,1.09-1.95,1.42.04.15.3.14.76.38.16.08.48.27,1.04.85,1.28,1.33,2.37,3.09,2.37,3.09.31.49.73,1.23,1.57,2.71.89,1.56.91,1.67,1.19,1.95,0,0,.34.35.28.43-.06.08-.48-.28-.81-.14-.22.09-.2.32-.38.62-.22.36-.42.31-1.38.9-.6.37-.9.56-1.14.76-.28.23-.47.44-.57.38-.11-.06-.02-.37,0-.66.03-.4-.08-.8-.52-1.57-.66-1.16-1.59-2.28-2.09-2.94-.66-.87-1.03-1.53-1.76-2.8-1.14-2.01-1.2-2.54-2.09-3.37-.58-.54-1.27-.98-1.19-1.14.08-.15.72.26,1.42.09.98-.23,1.46-1.44,1.57-1.71.73-1.84-.31-3.64-.57-4.08-.37-.65-.96-1.65-1.99-1.8-.73-.11-1.34.26-1.61.43-1.02.62-1.42,1.65-1.8,2.66-.52,1.39-.65,2.72-.71,3.47-.11,1.28-.03,2.05-.24,2.09Z"/>
      <path class="cls-6" d="m40.53,14.64c-.03-.21-.07-.64.19-.95.43-.52,1.33-.33,1.76-.24.87.18,1.92.75,2.52,1.85.25.46.83,1.55.28,2.47-.48.81-1.5.93-1.66.95"/>
      <path class="cls-6" d="m53.12,22.66c.1-.13.32.02.85,0,.69-.02,1.16-.3,2.33-1.04,1.76-1.14,2.31-1.57,2.56-1.38.14.1.06.29.14.95.06.46.15.73.28,1.23.7,2.54.56,3.25,1.23,4.75.74,1.64,1.57,2.28,1.23,2.94-.15.3-.42.35-1.04.62-2.21.96-2.94,2.11-3.47,1.8-.3-.17-.24-.64-.28-1.42,0,0-.08-1.49-.81-3.75-.92-2.85-3.38-4.28-3.04-4.7Z"/>
      <path class="cls-6" d="m60.8,34.36c-.28.03-1.04.12-1.6.73-.54.58-.57,1.28-.61,2-.03.66-.09,1.81.7,2.6.15.15.57.58,1.18.61.72.03,1.24-.53,1.66-1,.32-.35,1.12-1.22,1.15-2.54,0-.45.03-1.41-.67-2-.63-.53-1.46-.43-1.82-.39Z"/>
      <path class="cls-6" d="m51.51,42.29c-.21-.12-.58-.29-1.06-.33-.33-.03-1.07-.09-1.51.38-.41.44-.3,1.1-.21,1.6.06.36.19,1.11.85,1.67.15.13.91.77,1.72.52.66-.2.95-.87,1.11-1.25.48-1.13.14-2.21.05-2.47-.55-1.65-2.09-2.33-2.38-2.45"/>
    </g>
  </g>
</svg>