<?xml version="1.0" encoding="UTF-8"?>
<svg id="Layer_2" data-name="Layer 2" xmlns="http://www.w3.org/2000/svg" viewBox="0 0 215.41 141.82">
  <defs>
    <style>
      .cls-1 {
        stroke: #f2cbdd;
        stroke-width: 1.5px;
      }

      .cls-1, .cls-2, .cls-3, .cls-4, .cls-5 {
        stroke-miterlimit: 10;
      }

      .cls-1, .cls-2, .cls-4, .cls-5 {
        fill: none;
      }

      .cls-2 {
        stroke-width: .7px;
      }

      .cls-2, .cls-3, .cls-4, .cls-5 {
        stroke: #f2ccde;
      }

      .cls-3 {
        fill: #f2ccde;
      }

      .cls-5 {
        stroke-width: .5px;
      }
    </style>
  </defs>
  <g id="Layer_1-2" data-name="Layer 1">
    <path class="cls-1" d="m158.48,35.74c.03,1.04.06,2.61,0,4.51-.11,3.25-.44,6.25-1.81,13.84-1.05,5.82-1.58,8.74-2.56,12.94-1.34,5.72-2,8.58-3.31,12.18-2.41,6.66-5.34,11.28-7.37,14.44-3.75,5.85-3.4,3.72-13.24,15.8-1.55,1.9-4,4.95-7.97,5.87-.49.11-.64.11-3.76.3-7.52.46-7.03.49-9.48.6-1.97.09-1.92.05-9.33.15-7.2.1-10.8.15-10.83.15-6.08.3-7.44.79-10.08-.15-1.52-.54-2.32-1.16-5.57-3.61-9.23-6.98-8.8-6.58-9.18-6.92-5.47-4.91-8.55-9.94-10.08-12.49-3.21-5.34-4.75-9.82-6.02-13.54-1.68-4.92-2.53-8.88-3.16-11.88-.65-3.08-1.4-6.67-1.81-11.43-.18-2.11.02-.85-.3-12.03-.2-7.21-.32-8.79-.75-10.53-.03-.12-.08-.3-.07-.55.1-2.49,5.72-4.4,13.23-6.07,12.93-2.86,23.63-3.22,26.5-3.3,9.62-.28,16.8.15,24.88.62,8.73.51,14.66,1.17,21.63,1.93,9.53,1.05,13.54,1.75,16.96,2.62,5.26,1.34,11.62,3.7,12.22,3.87.03,0,.19.05.38.14.05.03.23.12.43.28.11.09.36.31.55.67.12.23.28.53.22.81-.1.49-.84.74-1.24.85-7.35,2.1-11.81,2.33-11.81,2.33-.43.02-.06,0-2.23.09-3.42.15-6.03.27-8.09.37-7.1.35-6.78.35-9.39.47-3.81.17-6.64.28-9.39.37-7.55.27-8.1.2-15.63.47-6.56.23-6.71.3-10.32.37-6.37.12-6.15-.1-11.72-.02-8.37.13-15.17.23-19,.38-.69.03-2.34.1-4.43-.28-1.04-.19-1.96-.45-2.55-.61-2.08-.59-2.36-.88-4.01-1.23-.92-.19-1.18-.18-2.03-.42-.81-.24-1.53-.45-2.26-.99-.48-.35-.58-.55-1.37-1.37-.67-.7-1.26-1.24-1.64-1.58"/>
    <path class="cls-4" d="m111.47,69.86c1.63-1.17,2.34-2.46,2.65-3.16.63-1.43.7-2.89.71-3.37.07-1.92-.46-2.66.1-3.57.1-.16.41-.62,1.94-1.22.98-.39,2.49-.98,4.59-.92.92.03,3.34.14,5.61,1.84,2.07,1.55,2.91,3.6,3.27,4.49.58,1.46.21,1.47.92,3.27.55,1.39,1.32,3.3,2.86,4.08.23.12.58.26.56.37-.04.17-1.1.23-1.99-.2-.49-.24-.73-.52-1.26-1.1,0,0-.28-.3-2.13-2.16-1.37-1.37-1.36-1.15-2.26-2.13-.85-.93-1.62-1.96-1.86-2.29-.61-.83-.95-1.38-1.73-1.93-.3-.21-.66-.46-1.2-.6-.94-.24-1.75.05-2.23.23-1.09.41-1.74,1.05-2.72,2.06-.91.92-1.49,1.72-1.93,2.33-.74,1.03-1.37,1.9-1.89,3.06-.5,1.12-.54,1.71-1.1,2.23-.07.07-.26.24-.27.47,0,.4.56.7.83.86.27.16-.26-.12,2.16,2.03,1.39,1.24,2.09,1.86,2.42,2.09.86.61,2.08,1.45,3.82,1.79.23.05.66.09,1.53.17,2.35.22,2.98.11,3.39,0,.22-.06.77-.21,1.4-.56.77-.43,1.25-.93,1.69-1.4.4-.42.72-.82,1.03-1.26.51-.72,1.25-1.89,1.96-3.59"/>
    <path class="cls-4" d="m122.66,62.32c-.27.04-.78.17-1.46.96-.38.44-.86,1.14-1.3,2.56-.3.99-.41,1.74-.53,2.69-.07.54-.13,1.56-.23,3.59-.05.97-.09,1.77.07,2.82.13.88.3,1.31.63,1.66.47.51,1.08.65,1.33.7.22.05.84.17,1.53-.1.53-.21.82-.55,1.3-1.1.23-.27.64-.75.96-1.46.32-.7.42-1.32.5-2.33.13-1.65.02-1.97.07-3.85.06-2.07.22-2.52-.13-3.39-.09-.22-.37-.68-.93-1.59-.36-.59-.56-.89-.96-1.06-.37-.16-.71-.12-.83-.1Z"/>
    <path class="cls-3" d="m122.51,67.93c-.11-.04-.27-.04-.39.02-.16.08-.24.22-.32.39-.28.59-.34.86-.34.86-.15.61-.09.68-.22,1.4-.1.55-.18.76-.15,1.18.02.27.05.54.25.66.22.13.53.02.71-.12.17-.13.24-.29.34-.59.26-.72.34-1.08.34-1.08.22-.92.33-1.39.3-1.67-.02-.16-.1-.92-.52-1.06Z"/>
    <path class="cls-3" d="m126.77,65.03c.16-.04.38-.11.63-.23.6-.29.96-.66,1.64-1.39.81-.87,1.18-1.48,1.3-1.69.1-.17.18-.32.23-.43"/>
    <path class="cls-3" d="m128.46,66.86c.25-.17.6-.43.95-.81.37-.4.58-.76.78-1.11.56-1.01.99-2.04,1.28-2.79"/>
    <path class="cls-3" d="m129.45,67.82c.2.02.52.02.86-.1.73-.25,1.13-.85,1.51-1.42.1-.16.3-.54.69-1.29.16-.31.33-.65.53-1.1.08-.19.15-.34.19-.45"/>
    <path class="cls-3" d="m130.51,68.75c.19-.02.48-.07.79-.21.49-.2.8-.49,1.11-.78.26-.25.36-.38,1.04-1.19.28-.33.51-.6.65-.76"/>
    <path class="cls-3" d="m124.69,78.94c.02.19.03.48,0,.83-.07.82-.33,1.37-.55,1.95-.18.48-.41,1.19-.59,2.11"/>
    <path class="cls-3" d="m127.27,78.42c.11.45.18.83.22,1.1.15.97.16,1.82.16,2.52,0,.11,0,.2,0,.26"/>
    <path class="cls-3" d="m127.96,78.09c.27.26.58.59.87,1.02.39.56.64,1.1.79,1.52"/>
    <path class="cls-3" d="m130.23,75.9c.22.37.44.78.65,1.22.37.76.65,1.49.87,2.15"/>
    <path class="cls-4" d="m66.46,67.82c.18-.35.45-.83.83-1.36.61-.86,1.21-1.44,1.84-2.02,1.98-1.81,2.97-2.71,4.08-3.16,1.48-.6,2.7-.58,3.03-.57.65.02,1.58.05,2.5.61.33.2.74.63,1.58,1.49.44.46.86.89,1.36,1.49.35.42.77.92,1.23,1.62.83,1.26.96,1.89,1.76,2.33.04.02.63.34.79.18.1-.11-.07-.35-.26-.94-.19-.58-.32-.98-.21-1.42.09-.4.28-.43.31-.8.04-.39-.13-.68-.26-.92-.59-1.13-.3-1.11-.85-2.06-.09-.16-.52-.9-1.32-1.69-.35-.35-1-.98-2.01-1.48-.57-.28-1.1-.42-2.17-.69-1.13-.29-1.7-.43-2.43-.48-.75-.05-1.7-.1-2.75.32-.68.27-1.15.68-2.06,1.48-.98.86-1.06,1.09-2.17,2.17-1.29,1.26-1.4,1.16-2.49,2.27-1.16,1.2-1.56,1.86-1.8,2.54-.12.35-.3.86-.26,1.53.06,1.13.66,1.92.9,2.22.26.33.58.64,2.22,1.59,1.07.62,1.76,1.02,2.86,1.53,1.56.73,2.34,1.1,3.38,1.27,1.04.17,1.85.1,2.43.05.88-.08,2.2-.19,3.6-.95.52-.28,1.02-.7,2.01-1.53,1.17-.98,1.03-1.01,2.17-1.96,1.4-1.17,2.1-1.76,2.38-1.9.42-.22.89-.42.9-.74,0-.28-.34-.46-.79-.83-.34-.28-.8-.73-1.26-1.44"/>
    <path class="cls-4" d="m88.39,64.76c.09.17.21.41.36.72.45.94.67,1.41.72,1.72.14.92-.32,1.73-.68,2.36-.25.45-.52.78-.72,1"/>
    <path class="cls-3" d="m67.93,62.67c-.08-.18-.21-.45-.38-.77-.24-.44-.38-.64-.52-.89-.17-.31-.39-.76-.54-1.39"/>
    <path class="cls-3" d="m66.81,63.57c-.18-.14-.36-.29-.54-.45-.66-.58-1.23-1.17-1.71-1.74"/>
    <path class="cls-3" d="m65.7,64.84c-.24-.2-.49-.4-.77-.59-.81-.58-1.61-1.02-2.33-1.36"/>
    <path class="cls-3" d="m64.38,67.49c-.32.38-.67.77-1.08,1.17-1.14,1.11-2.31,1.89-3.31,2.44"/>
    <path class="cls-3" d="m65.79,71.08c-.31.45-.64.91-1.01,1.37-.73.92-1.46,1.73-2.16,2.42"/>
    <path class="cls-3" d="m68.4,72.83c-.28.39-.56.82-.84,1.28-.65,1.07-1.12,2.1-1.47,3.03"/>
    <path class="cls-3" d="m70.37,73.95c.03.71.05,1.44.06,2.18.02,1.04.02,2.04,0,3.03"/>
    <path class="cls-4" d="m75.86,61.5c-.75.14-1.12.2-1.47.41-.35.21-.69.55-1.35,2.11-.45,1.06-.79,1.86-1.05,3.08-.19.9-.38,1.79-.3,2.97.1,1.41.11,2.25.75,2.93.84.91,2.3,1.1,3.39.71.91-.32,1.43-1,1.69-1.35.14-.18.53-.73.83-1.77.15-.52.25-1.1.19-3.69-.04-1.84-.08-.8-.19-3.24-.07-1.43-.06-1.94-.45-2.22-.37-.26-.92-.16-2.03.04Z"/>
    <path class="cls-3" d="m75.3,65.9c-.52-.03-.95.91-1.09,1.2-.14.31-.53,1.15-.19,2.03.08.2.36.94.94,1.02.67.08,1.17-.8,1.2-.87.31-.57.22-1.13.15-1.54-.09-.54-.42-1.81-1.02-1.84Z"/>
    <path class="cls-3" d="m50.44,58.46c.11.19,2.37-.89,2.62-1.01,1.05-.5,1.51-.8,2.44-1.31.58-.32.77-.41,4.05-1.97,2.22-1.06,3.33-1.58,3.75-1.79,2.57-1.23,3-1.45,4.17-1.97,1.72-.75,2.85-1.18,4.29-1.43.4-.07.89-.15,1.55-.18,1.4-.06,2.39.19,3.99.6,4.06,1.02,3.85.96,4.05,1.01,3.13.89,4.69,1.33,5.3,1.79.42.32,1.18.95,1.61.71.27-.15.19-.52.54-1.13.23-.41.4-.48.89-1.01.85-.91,1.27-1.36,1.19-1.73-.04-.18-.22-.47-2.32-1.01-1.02-.26-1.6-.35-2.21-.48-1.63-.34-1.77-.59-3.56-1.08-.49-.13-1.63-.35-3.89-.78-2.92-.55-3.2-.58-3.64-.58-1.7.01-2.98.48-3.76.78-1.71.64-1.89,1.11-4.47,2.63-1.53.9-1.27.62-4.59,2.41-2.16,1.16-3.7,2.05-4.32,2.41-.98.57-2.15,1.25-3.61,2.18-.98.62-4.21,2.68-4.08,2.92Z"/>
    <path class="cls-4" d="m94.78,66.48c.07-.75.14-1.78.16-3.01.04-2.16-.11-2.79-.16-3.01-.23-.9-.63-1.65-1.47-2.77-.87-1.16-2.32-2.86-4.59-4.67"/>
    <path class="cls-3" d="m148.12,55.82c-.1.11-.84-.71-2.83-1.83-1.56-.88-2-.88-4.02-1.83-2.84-1.33-2.71-1.68-4.57-2.37-1.92-.72-3.52-.9-4.47-1-1.82-.19-3.22-.07-6.03.18-1.91.17-2.87.26-4.2.55-1.17.25-1.21.36-4.75,1.55-3.82,1.29-4.71,1.49-5.57,2.56-.66.81-1.04,1.8-1.19,1.73-.12-.05.11-.67.35-1.91.18-.96.27-1.84.38-2.77.16-1.5.12-1.68.35-2.05.28-.45.65-.69,1.82-1.24,1.37-.65,2.06-.98,2.8-1.21,3.29-1.05,6.75-.97,7.81-.94,2.2.06,2.72.33,4.76.17,1.37-.1,1.72-.27,2.7-.17,1.55.15,2.46.73,3.99,1.46,2.42,1.15,2.99,1.06,4.63,1.8,5.1,2.3,8.26,7.1,8.03,7.34Z"/>
    <path class="cls-5" d="m155.11,56.26c-.75.32-1.84.81-3.15,1.45-2.38,1.17-4.14,2.21-6.14,3.39-.88.52-2.83,1.61-6.74,3.78,0,0-.89.5-.93.42-.01-.03.74-.28.83-.76.07-.38-.31-.73-.6-1.03-1.51-1.55-1.08-2.13-2.55-3.4-.61-.53-.61-.36-1.42-1.04-.97-.81-1.27-1.3-1.89-1.89-.87-.82-1.69-1.21-2.74-1.7-.58-.27-2.62-1.18-5.48-1.32-2.23-.11-3.91.29-5.01.57-1.63.41-3.82.95-5.95,2.65-1.38,1.09-2.13,2.17-3.5,4.16-1,1.45-1.64,2.65-2.65,4.54-.35.65-1.07,2.04-1.89,3.87-.72,1.62-1.08,2.45-1.23,3.21-.33,1.77,0,3.22.28,4.35.43,1.75,1.08,2.92,2.36,5.2.86,1.52,1.77,3.12,3.31,5.01,1.32,1.62,2.17,2.67,3.71,3.65,1.6,1.02,3.05,1.39,4.16,1.66,3.31.82,6,.41,6.85.26,2.3-.41,3.92-1.22,5.06-1.79,1.99-1.01,3.34-2.09,4.22-2.82,1.57-1.28,2.55-2.38,3.39-3.33,1.42-1.6,1.77-2.31,1.98-2.88.29-.79.24-1.1.45-2.62.35-2.55.64-2.61.9-4.61.11-.83.26-2.37.13-4.29-.08-1.2-.19-2.65-.83-4.42-.24-.65-.48-1.17-.67-1.53"/>
    <path class="cls-5" d="m44.47,62.4c.46.2,1.09.46,1.86.76,1.21.47,2.15.78,2.87,1.01,1.22.4,1.1.33,2.7.84,1.25.4,1.07.37,2.53.84.57.19,1.1.5,1.69.59.16.02.49.06.51.2.02.11-.18.22-.34.37-.32.3-.39.7-.46,1.14-.6,3.73.57,7.56.57,7.56.79,2.57,1.4,4.56,3.16,6.5.57.63,1.76,1.47,4.15,3.16,2.73,1.93,4.11,2.9,5.05,3.25,2.44.91,4.59.72,6.68.54,2.51-.22,4.27-.81,6.68-1.62,2.71-.91,4.07-1.37,5.23-2.35,1.58-1.32,2.3-2.82,3.43-5.14.66-1.35,1.38-2.88,1.8-5.05.24-1.24.64-3.4.09-6.05-.26-1.23-.74-2.27-1.71-4.33-1.56-3.32-2.37-5.01-3.88-6.32-1.65-1.44-3.4-2.04-3.79-2.17-.91-.3-1.95-.45-4.04-.76-1.35-.2-1.62-.2-2.79-.36-3.93-.53-4.23-.94-5.82-.95-2.3,0-4.03.83-4.92,1.26-2.66,1.29-4.13,3.16-5.8,5.3-1.36,1.73-2.35,3.49-2.78,4.29-.3.56-.54,1.04-.7,1.38"/>
    <path class="cls-5" d="m92.71,68.17c.4-.08,1.02-.22,1.74-.5,1.04-.39,1.25-.66,2.26-1.04.22-.08.85-.23,2.12-.54,1.44-.35,1.89-.43,2.47-.27.49.14.87.4.89.42.18.13.4.37.85.85.62.67.63.68.68.73.45.37.91.55,1.2.66.31.12.57.19.77.23"/>
    <path class="cls-4" d="m93.89,75.26c.09.79.16,1.96,0,3.36-.07.61-.31,2.35-1.72,5.54-.35.79-1.14,2.24-2.73,5.15-2.67,4.89-2.57,4.43-2.81,5.07-.27.72-.5,1.56-1.26,2.25-.22.2-.5.4-.77.82-.1.15-.46.72-.47,1.4-.01,1.16,1.03,2.43,2.09,2.45.6.01,1.1-.38,1.57-.74.65-.51.6-.76,1.13-1.13.83-.58,1.78-.54,2.12-.52.44.02,1.07.28,2.34.8.68.28.94.42.93.58-.01.22-.56.38-.91.44-.69.11-.94-.14-1.84-.25-.46-.05-.87-.03-1.68.03-.66.04-1.22.12-1.65.19"/>
    <path class="cls-4" d="m102.82,98.7c-.15-.2-.39-.26-.47-.27-.31-.07-.55.05-1.48.52-.66.34-.82.42-1.07.6-.33.25-.51.47-.63.71-.09.18-.2.41-.11.63.1.24.38.33.55.38.23.07.44.08.96.03.74-.08,1.11-.12,1.4-.27.06-.03.36-.2.63-.52.14-.17.28-.32.36-.58.1-.32.05-.6,0-.85-.05-.27-.12-.36-.14-.38Z"/>
    <path class="cls-2" d="m67.72,109.38c-.38,0-.91,0-1.54,0-1.51,0-1.65.01-1.86.05-.67.11-.69.26-2.14.82-1.46.57-1.77.54-1.95.91-.31.63.13,1.69.86,2.09,1.36.74,3.28-1.05,3.13-1.45-.13-.36-1.9.1-1.95-.14-.05-.23,1.49-.85,3-1.14.31-.06,1.32-.23,2.59-.05.31.05,1.13.17,1.14.36,0,.22-1.02.49-1.77.59-.79.11-.92,0-1.23.18-.53.33-.33.81-.91,1.36-.4.38-.88.53-1.36.68-.75.23-1.12.15-1.14.27-.04.22,1.18.84,2.5.73.5-.04,1.31-.11,1.73-.68.48-.66.03-1.41.5-1.77.13-.1.24-.1,1.41,0,1.26.11,1.42.13,1.64.18.47.12,1.44.41,1.41.64-.04.31-2,.36-2.23.36-1.19.03-1.78-.12-1.91.14-.18.38.9,1.03.73,1.45-.22.53-2.21.13-2.23.23-.01.09,1.62.55,3.86.68,1.15.07,1.22-.02,2.14.09.9.11,1.49.29,2.63.36.92.06,1.38.09,1.45-.09.14-.33-.86-1.34-2-1.41-.59-.04-.71.22-1.73.45-1.32.31-2.52.21-2.54.05-.02-.1.4-.14.91-.59.34-.3.36-.46.59-.64.48-.37,1.16-.25,1.5-.18,1.75.33,2.45,1.86,4.36,2.73.61.28,1.26.37,2.55.56,1.02.15,5.78.85,10.06.24.35-.05,1.59-.24,2.94.12.59.16,1.15.31,1.72.74.18.14.41.34.83.62.46.31.69.46.92.47.57.04,1.3-.48,1.28-1.04-.02-.49-.61-.78-.83-.89-.52-.26-1.23-.34-1.33-.12-.1.21.32.75.86.98.44.19.79.11,3.03-.5.86-.24,1.14-.31,1.6-.33.65-.02.99.11,1.57.21.84.14,1.03.02,2.51,0,2.27-.03,2.27.24,3.56.07.84-.11.68-.21,2.23-.49,1.55-.28,2.25-.28,2.51-.28.82.01.89.12,1.88.21.71.06,1.83.1,3.14-.07.73-.1,1.8-.25,3.07-.77,1.14-.47,2.07-1.09,2.16-.96.08.12-.73.69-.6.97.11.23.72-.03,1.83.04,1.06.06,1.36.35,1.9.11.55-.24.87-.81.78-.93-.11-.15-.78.44-1.83.37-.12,0-.83-.05-.89-.34-.05-.23.32-.52.6-.67.62-.33,1.01-.05,1.75-.19.94-.17,1.68-.87,1.6-1.04-.09-.22-1.49.25-1.53.11-.04-.12.95-.79,2.2-.86.82-.04,1.24.2,1.42-.04.29-.38-.4-1.51-.78-1.45-.24.04-.2.51-.67.86-.34.25-.78.31-.82.22-.06-.13.88-.66,2.5-1.94.86-.68,1.29-1.08,1.19-1.38-.1-.32-.76-.41-.75-.45.01-.05.98.38,1.34.04.22-.21.01-.51.15-1.08.18-.75.8-1.35,1.01-1.27.14.06.13.43.11.93-.01.46-.08.56,0,.78.08.24.25.39.48.6.32.28.6.42.71.48.54.3,1.08.8,1.38,1.3.11.19.57.96.34,1.79-.22.75-.89,1.13-1.6,1.53-.74.41-1.39.56-2.09.71-.45.1-1.2.26-2.2.26-.76,0-1.52.09-2.27.11-.22,0-.55.01-.63.19-.09.2.15.56.45.75.45.28.99.14,1.83-.07.49-.13.74-.2.93-.37.49-.46.59-1.38.22-1.75-.46-.47-1.68-.1-1.68.04,0,.15,1.53.4,2.87-.11.64-.25,1.13-.63,1.08-.78-.06-.19-.9.16-1.64-.3-.07-.04-.73-.46-.63-.97.05-.28.32-.55.6-.56.33,0,.38.38.97.67.21.1.54.27.89.15.33-.11.49-.42.52-.48.13-.26.05-.4.07-.86.04-.69.25-.77.15-1.04-.15-.38-.74-.67-1.27-.52-.38.1-.78.45-.78.89,0,.41.33.86.6.82.22-.03.41-.39.41-.86"/>
    <path class="cls-4" d="m49.47,86.59c-1.07-.07-2.64-.12-4.52,0-2.19.14-3.74.44-6.87,1.08-5.13,1.06-7.7,1.59-8.86,1.9-4.1,1.09-6.15,1.64-8.32,2.8-1.92,1.03-3.66,2.58-7.14,5.7-4.62,4.13-6.93,6.2-7.69,7.87-.43.96-1.29,3.16-3.25,5.61-.14.18-1.51,1.86-1.72,1.72-.24-.16.95-2.67,2.53-4.79.98-1.31,2.06-2.41,6.96-6.06,4.77-3.54,3.9-2.62,6.69-4.79,3.63-2.83,4.64-4.04,7.14-4.7.95-.25,1.78-.34,3.35-.9.67-.24,2.11-.8,4.07-1.99,3.69-2.23,4.84-4.05,5.61-3.62.79.45.21,2.77.18,2.89-.35,1.34-1.16,2.18-1.54,2.53"/>
    <path class="cls-2" d="m154.99,71.14c-.11-.26-.25-.65-.33-1.14-.07-.49-.17-1.18.16-1.83.16-.32.38-.51.82-.9.72-.63.92-.55,1.35-1.02.22-.24.7-.76.73-1.47.03-.6-.28-.8-.24-1.55.02-.4.13-.7.2-.9.31-.82.79-1.13,2-2.32,1.13-1.12,1.35-1.5,1.39-1.96.03-.4-.08-.96-.41-1.1-.11-.05-.36-.09-1.59.9-.67.54-.93.82-1.47,1.26-.55.45-1.05.8-1.47,1.06"/>
    <path class="cls-4" d="m158.09,48.7c.58.24,1.48.56,2.63.79,1.41.28,2.23.21,3.15.31,2.17.22,3.77,1.18,4.6,1.67,2.37,1.42,3.54,3.36,5.22,6.16.86,1.43.68,1.36,2.4,4.7,2.54,4.93,2.83,4.88,3.66,6.89,1.09,2.67,1.42,4.8,1.88,7.83.41,2.65.78,5.11.52,8.36-.26,3.33-.45,5.66-2.09,7.94-1.74,2.42-4.13,3.4-6.27,4.28-2.8,1.15-5.1,1.36-8.46,1.67-2.02.18-4.1.19-8.25.21-4.52.02-4.26-.15-5.95,0-.66.06-1.67.17-3.03,0-1.38-.17-1.49-.47-2.92-.73-1.56-.28-1.99-.05-3.95-.19-.81-.06-1.97-.19-3.38-.52"/>
    <path class="cls-4" d="m139.35,94.26c2.56-.44,4.63-.57,6.06-.61.57-.01,1.23,0,2.56,0,4.21.03,4.25.14,5.59.07,2.08-.12,1.6-.37,5.25-.81,2.2-.26,2.74-.22,4.65-.54,1.45-.24,2.53-.51,3.5-.74,2.15-.52,3.23-.79,4.51-1.35,1.23-.54,2.21-.97,3.23-1.95.39-.37,1.41-1.43,2.02-3.1.34-.92.59-2.11.34-4.78-.25-2.62-.84-4.66-2.02-8.76-.88-3.04-.58-1.59-1.48-4.58-.39-1.29-.63-2.19-1.35-3.3-.65-1.01-1.35-1.65-1.62-1.89-1-.88-1.47-.88-2.9-1.75-1.32-.81-1.13-.94-3.37-2.56-1.24-.9-1.9-1.38-2.83-1.89-1-.55-2.32-1.13-3.97-1.55"/>
    <path class="cls-4" d="m149.09,85.65c.38.04.95.12,1.65.26,1.72.34,2.7.76,4.27,1.27.97.32,2.21.71,3.67,1.01,2.78.56,2.73.02,5.11.55,1.79.4,2.41.84,4.91,1.33.74.14,1.35.23,1.76.29"/>
    <path class="cls-4" d="m179.71,94.64c.46.2,1.23.52,2.22.81,1.89.56,2.55.42,4.65.99,1.56.42,1.48.58,2.61.81.99.2,1.79.24,2.23.25.87.02,1.5-.06,1.6-.07,1.46-.16,10.93,1.1,15.84,9.14,1.04,1.7,2.63,4.99,2.47,9.14-.06,1.64-.15,3.85-1.48,5.68-1.86,2.56-5.12,2.94-11.85,3.46-13.05,1-12.97.5-18.77,1.23-.95.12-3.45.57-7,1.04-3.22.42-5.49.64-6.09.69-3.19.3-5.22.34-7.16.49-9.11.72-9.25,1.2-13.34,1.23-3.74.03-2.93-.38-11.85-.99-5.14-.35-8.99-.46-10.37-.49-3.27-.08-6.69-.17-11.11,0-6.84.26-6.85.77-11.85.74-4.01-.02-4.22-.35-10.13-.49-1.9-.05-2.26-.02-8.64,0-6.07.02-9.11.03-11.11,0-5.02-.07-4.9-.23-12.35-.49-7.24-.25-12.93-.3-15.89-.32-4.9-.03-4.25.03-9.71,0-12.19-.07-14.91-.39-17.89-1.11-2.31-.56-4.45-1.53-8.74-3.47-2.58-1.17-4.7-2.26-5.27-4.3-.24-.85-.26-2.06-.14-2.08.11-.02.28.82.6,1.55.34.78,1.03,1.89,3.19,3.28,3.21,2.08,6.37,2.71,6.37,2.71,7.7,1.55,19.26,1.53,23.88,1.54,9.96.01,10.37.14,15.4,0,5.42-.16,7.11-.37,13.4-.62,2.09-.08,8.89-.33,16.02-.31,1.89,0,7.65.06,24.03,1.08,13.5.84,11.42.92,16.28,1.11,11.91.47,15.8-.35,34.07-.67,3.85-.07,9.33-.16,16.61-.08,11.48.12,25.42.62,35.24-3.36,1.87-.76,5.5-2.45,7.72-6.13.63-1.04,1.59-2.68,1.51-4.87-.14-3.71-3.18-6.23-4.28-7.13-1.27-1.05-2.46-1.64-3.69-2.18-2.53-1.11-6.52-2.53-12-3.27"/>
    <path class="cls-4" d="m188.62,127c-.73.15-1.84.35-3.18.48-3.21.31-4.42-.08-6.37.27-2.2.39-3.42,1.36-5.04,2.34-3.61,2.17-6.76,2.86-13.06,4.25-4.39.97-7.17,1.06-12.1,1.43-.4.03-7.24.76-20.94,2.22-6.27.67-15.12,1.72-26.01,3.35"/>
    <path class="cls-4" d="m22.31,127.82c2.25.76,4.52,1.53,6.8,2.33,6.41,2.25,12.63,4.56,18.67,6.93"/>
    <path class="cls-4" d="m53.45,136.69c-1.99-.67-4.06-1.31-6.2-1.93-3.84-1.11-7.54-2.04-11.07-2.8"/>
    <path class="cls-4" d="m31.31,128.23c1.5.4,2.74.61,3.58.73,3.07.43,4.47.15,7.08.88,1.11.31,1.86.64,2.41.88,2.22.94,5.89,2.26,12.26,3.94"/>
    <path class="cls-4" d="m43.24,140.02c2.97.08,6.01.13,9.09.13,7.27,0,14.25-.23,20.92-.65"/>
    <path class="cls-4" d="m67.27,137.55c4.99-.02,10.01-.02,15.07,0,11.42.05,22.68.23,33.78.52"/>
    <path class="cls-4" d="m64.93,134.17c2.05.73,5.2,1.61,9.09,1.69,2.62.05,4.54-.29,5.2-.39,3.6-.58,9.94-.76,21.96.91"/>
    <path class="cls-4" d="m166.6,15.65c-.56-2.52-.34-3.25,0-3.42.61-.31,2.01,1,2.1.88.06-.08-.62-.49-.55-.88.09-.52,1.5-.95,2.67-.61,1.16.33,1.77,1.32,2.08,1.83.64,1.04.68,2,.68,2.19.01.55.03,1.27-.47,1.83-.57.64-1.56.81-1.65.65-.05-.09.17-.33.34-.46.62-.45,1.61-.22,2.22.2.66.45.89,1.13,1.02,1.5.49,1.46-.14,2.74-.23,2.93-.2.4-.61,1.19-1.48,1.52-.72.28-1.39.11-1.84,0-.59-.15-1.05-.4-1.72-.86-.67-.47-1.58-1.16-2.58-2.15"/>
    <path class="cls-4" d="m181.6.48c-.21.06-.7.23-1.05.7-.11.14-.56.74-.35,1.33.17.47.69.7.78.74.27.12.38.07.7.23.11.06.58.3.55.51-.03.19-.42.13-.66.39-.34.36-.13,1.06.04,1.64.24.81.4,1.35.86,1.52.49.18,1.02-.17,1.52-.51.27-.18,1.06-.72,1.48-1.8.34-.85.27-1.59.23-1.95-.06-.58-.13-1.22-.63-1.76-.46-.5-1.05-.65-1.33-.7"/>
  </g>
</svg>