<?xml version="1.0" encoding="UTF-8"?>
<svg id="Layer_2" data-name="Layer 2" xmlns="http://www.w3.org/2000/svg" viewBox="0 0 182.59 175.19">
  <defs>
    <style>
      .cls-1, .cls-2 {
        fill: none;
      }

      .cls-1, .cls-2, .cls-3 {
        stroke: #f9c9de;
        stroke-miterlimit: 10;
      }

      .cls-1, .cls-3 {
        stroke-width: 1.5px;
      }

      .cls-2 {
        stroke-width: 2.5px;
      }

      .cls-3 {
        fill: #f9cadf;
      }
    </style>
  </defs>
  <g id="Layer_1-2" data-name="Layer 1">
    <path class="cls-1" d="m50.88,55.87c-.21.77-.49,1.85-.79,3.16-.86,3.8-1.3,7.2-1.58,10.54-.39,4.66-.12,5.25-.26,15.55-.11,7.52-.26,7.8,0,10.01.62,5.29,2.13,9.22,3.16,11.86,1.85,4.73,3.85,7.96,5.8,11.07,1.76,2.81,4.65,7.38,9.49,12.39,2.86,2.96,4.83,4.97,8.17,6.85,2.76,1.56,6.53,3.61,11.07,2.9,2.36-.37,4.19-1.38,5.53-2.11,1.65-.9,2.8-1.81,5.8-4.48,3.43-3.05,6-5.51,6.85-6.32,4.54-4.34,6.82-6.52,7.12-6.85,3.61-4.06,5.58-7.82,6.85-10.28.74-1.42,3.55-7.01,5.27-15.02,1.54-7.15,1.56-13.26,1.58-17.66.02-4.25-.31-5.44,0-9.22.09-1.14.27-2.79,0-5.01-.23-1.91-.69-3.46-1.05-4.48"/>
    <path class="cls-1" d="m49.04,49.81c.17.55.42,1.34.79,2.28.49,1.25.78,1.96,1.38,2.77.92,1.23,1.73,1.58,1.98,1.68.35.14,1.02.4,1.48.1.34-.22.29-.55.59-1.38.07-.19.41-.79,1.09-1.98.71-1.24.83-1.44,1.09-1.48.35-.06.47.25,1.38.79.59.35,1.05.62,1.68.69.26.03.97.08,1.68-.3.45-.24.7-.56,1.19-1.19.94-1.22.96-1.78,1.58-1.98.32-.1.61-.03,1.19.1.78.18.95.44,1.58.59.74.18,1.38.05,1.58,0,1.21-.28,1.26-1.05,2.28-1.29.6-.14.8.08,2.28.4.66.14.51.07,2.77.4,3.48.5,2.85.52,3.86.59.76.06,1.7.09,2.87.49.71.24.94.43,1.09.59.54.59.26,1.11.79,1.98.18.3.62,1.01,1.29,1.09.62.08.84-.46,1.58-.4.17.02.28.05,1.09.49.92.5,1.38.75,1.58.89,1.01.71.83.98,1.48,1.29.23.11.48.18,2.08.2,1.68.02,1.49-.05,1.98,0,1.4.15,1.58.61,2.77.59.52,0,1.13-.01,1.68-.4.62-.43.49-.85,1.19-1.48.23-.21.95-.87,1.78-.79.42.04.59.24,1.58.99,1.05.79,1.57,1.18,1.88,1.29,1.19.41,1.56-.38,2.77,0,.59.18.49.37,2.08,1.38.85.54,1.27.82,1.58.89,1.03.25,1.42-.28,2.87-.2.62.03.43.12,1.58.3,1.29.19,2.2.32,3.17,0,.72-.24.58-.43,1.29-.69,1.61-.61,2.63.27,3.46-.2.51-.29,1-1.1.79-3.56"/>
    <path class="cls-1" d="m112.21,120.25c0,.42,0,1.12,0,1.98,0,1.66.04,2.85.05,3.23.03,1.36,0,2.25-.1,8.97-.02,1.49-.02,2.67.6,3.99.31.66.88,1.57,1.89,2.19.42.26,1.32.81,2.09.5.64-.26.79-.96,1-.9.24.07.07,1.06,0,2.49-.11,2.19.17,2.33-.1,3.19-.52,1.64-1.91,2.33-1.79,2.49.15.2,2.45-.65,4.29-2.69,1.6-1.78,1.93-3.45,2.79-3.39.51.04.59.63,1.49,1.69,1.3,1.53,3.14,2.65,3.59,2.29.24-.19.13-.85-.1-2.09-.13-.71-.24-.95-.1-1.1.3-.32,1.33.29,2.39.8.45.22,4.66,2.25,5.38,1.4.29-.35-.25-.85-.3-2.49-.02-.72-.05-1.79.4-1.99.55-.24,1.55.93,2.19,1.69.88,1.04,1.69,2,1.59,3.19-.08.95-.71,1.59-.7,1.59.02.01,1.67-2.17,3.09-5.28,1.13-2.47,1.61-4.44,1.99-5.98,3.03-12.13,3.74-12.69,3.99-16.74.17-2.78-.08-3.91-.4-8.07-.6-7.88-.44-13.64-.2-22.22.43-15.55,1.83-15.76.8-23.32-.45-3.32-1.11-8.13-3.29-14.05-2.07-5.61-3.98-8.1-5.38-14.45-1.13-5.15-.12-4.63-1.2-7.87-2.27-6.82-7.67-11.86-11.46-14.25-.61-.39-1.2-.71-3.09-1.89-3.95-2.46-4.54-3-6.68-4.19-2.51-1.4-3.77-2.1-5.18-2.39-2.71-.56-3.21.35-6.38-.1-2.86-.41-2.8-1.2-5.68-1.59-2.89-.39-3.2.38-6.08,0-1.21-.16-1.57-.35-5.78-1.79-3.99-1.37-6-2.06-6.88-2.19-1.44-.22-3.45-.3-7.87.9-3.2.87-8.82,2.44-15.35,6.78-2.96,1.97-6.94,4.61-10.66,9.47-3.92,5.12-5.66,10.22-7.08,14.35-1.08,3.16-1.75,5.93-2.29,8.17-1.51,6.24-1.4,8.04-2.99,12.46-.44,1.22-.15.26-2.79,6.48-2.5,5.88-3.17,7.72-3.79,9.97-.47,1.7-.93,3.38-1.2,5.68-.55,4.7.44,5.74.2,9.97-.25,4.32-1.31,3.6-2.09,9.57-.51,3.89.02,3.58-.6,9.57-.28,2.69-.49,3.84-.2,5.78.31,2.07.8,2.37,1.2,5.08.35,2.45.02,2.64.5,4.39.45,1.64.92,2.12,1.2,3.79.15.9.14,1.54.1,2.99-.18,6.13-.38,6.02-.2,7.37.36,2.75,1.13,2.82.9,4.58-.32,2.4-1.94,3.82-1.4,4.48.52.63,2.1-.5,2.79.2.78.79-.17,3.38-1.49,5.08-.54.69-1.14,1.24-1.1,1.3.14.15,4.83-5,7.28-3.89.85.39.96,1.32,2.19,1.69.24.07,1.07.29,2.49-.2,3.29-1.14,4.54-4.3,5.48-3.89.34.15.43.67.5,1.1.24,1.44-.72,2.6-.6,2.69.2.14,1.73-3.23,4.09-3.49.76-.08,1.05.22,3.39,1.3,2.72,1.25,4.99,2.07,5.08,1.89.09-.18-2.37-.88-3.49-3.09-.88-1.74-.82-4.22.4-5.18.48-.38.74-.2,1.59-.5,2.61-.9,3.75-3.82,3.89-4.19.4-1.05.36-1.73.3-4.39-.03-1.47-.08-3.73-.1-6.58"/>
    <path class="cls-1" d="m.65,169.76c.7-1.23,1.78-3.2,3.03-5.66,1.92-3.8,2.57-5.54,4.74-9.88,2.68-5.36,3.56-6.45,4.48-7.37,1.11-1.11,2.82-2.83,5.53-3.56,2.01-.54,4.28-.46,5.93-.4.84.03,1.53.09,2.02.14"/>
    <path class="cls-1" d="m181.83,175.16c.13-3.14-.65-5.4-1.19-6.64-1.02-2.32-2.45-3.83-4.06-5.55-2.25-2.39-2.62-2.05-4.36-4.06-2.04-2.35-1.69-2.98-3.97-5.85-.89-1.12-2.15-2.68-4.16-4.26-2.56-2-4.93-2.93-6.34-3.47-1.28-.49-3.85-1.45-7.24-1.69-.49-.03-.57-.02-6.44-.1-.57,0-1.86-.02-2.42-.03"/>
    <path class="cls-1" d="m67.92,112.19c.31.4.84.95,1.63,1.34.96.48,1.85.49,2.77.48,2.43-.04,3.36-.23,4.78-.29.93-.04.78.04,4.97.38,4.25.35,3.63.21,4.97.38,2.18.28,3.99.67,5.74.67.43,0,.89-.02,1.82,0,1.09.02,1.27.07,1.63,0,.51-.11,1.2-.43,1.91-1.43"/>
    <path class="cls-1" d="m73.08,97.84c-.3.86-.31,1.58-.29,2.01.02.38.05.84.29,1.34.33.69.89,1.04,1.34,1.34.26.17,1.26.98,3.25,2.58,1.53,1.23,1.87,1.64,2.58,1.63.51-.01.87-.23,1.53-.67,1.87-1.22,2.89-1.93,3.44-2.3,1.27-.83,2.26-1.48,3.73-1.91,1.31-.39,1.94-.29,2.97-.96.55-.36,1.36-.89,1.53-1.82.25-1.4-1.17-2.52-1.24-2.58"/>
    <path class="cls-1" d="m79.11,109.89c.38.36,1.02.85,1.91,1.15,2.08.68,3.91-.26,4.3-.48"/>
    <path class="cls-1" d="m78.16,120.13h8.42"/>
    <path class="cls-2" d="m49.36,69.62c.34.26.83.63,1.43,1.05,1.75,1.23,2.18,1.38,2.39,1.43.99.27,1.76-.06,2.58-.29,1.15-.32,2.9-.25,6.41-.1,3.93.17,3.22.49,5.64.48,3.04-.01,5.54-.52,7.56.48.49.24,1.02.5,1.53,1.05.91.98.96,1.99,1.43,2.01.39.02.5-.65,1.15-1.24.3-.27.8-.61,2.58-.86,2.01-.28,3.38-.48,5.07,0,1.47.42,3.16,1.34,3.16,1.34h0c.07.3.21.68.46.73.41.07.74-.88,1.38-1.54.83-.86,1.92-.97,3.43-1.14,5.59-.64,3.57-.59,6.04-.75,3.64-.24,5.45-.36,7.18-.12,2.63.36,3.94.54,4.82,1.14.53.37,1.38,1.09,2.17.83.42-.14.64-.5.79-.71.75-1.08,1.64-1.35,3.32-2.37,1.01-.62,2.45-1.6,4.22-3.16"/>
    <path class="cls-2" d="m52.76,73.53c-.07.34-.14.78-.17,1.29-.06.89.01,1.59.04,1.85.12,1.02.39,1.74.73,2.67.19.51.47,1.27.9,2.07.21.38.8,1.41,2.88,3.49,1.61,1.59,2.41,2.39,3.49,3.01,1.89,1.09,3.54,1.33,3.87,1.38,1.57.21,2.78,0,3.44-.13.8-.15,2.32-.45,3.92-1.51,1.16-.77,1.85-1.59,2.76-2.67.57-.68,1.02-1.23,1.46-2.07.21-.39.47-1.21.99-2.84.43-1.33.68-2.22.9-3.1.07-.27.13-.51.16-.67"/>
    <path class="cls-2" d="m115.64,73.53c.07.34.13.78.17,1.29.06.89-.01,1.59-.04,1.85-.12,1.02-.38,1.74-.71,2.67-.18.51-.46,1.27-.88,2.07-.2.38-.77,1.41-2.8,3.49-1.56,1.59-2.34,2.39-3.39,3.01-1.83,1.09-3.44,1.33-3.77,1.38-1.52.21-2.71,0-3.35-.13-.78-.15-2.25-.45-3.81-1.51-1.13-.77-1.8-1.59-2.68-2.67-.56-.68-1-1.23-1.42-2.07-.2-.39-.45-1.21-.96-2.84-.41-1.33-.66-2.22-.88-3.1-.07-.27-.12-.51-.16-.67"/>
    <path class="cls-1" d="m73.53,94.12c.16-.49.4-1.29.63-2.29.31-1.38.23-1.58.57-3.14.17-.77.2-.8.69-2.8.17-.69.3-1.25.39-1.62"/>
    <path class="cls-3" d="m118.39,70.36c-.35-.4-.87-.97-1.5-1.66-1.47-1.6-2.21-2.41-2.93-3.01-.64-.54-1.71-1.44-3.08-1.98-1.39-.55-2.09-.33-5.54-.24-5.06.14-5.28-.28-7.36.24-1.83.46-1.95.85-3.88,1.19-1.54.26-2.48.19-3.08.95-.44.56-.55,1.38-.4,2.06.04.17.2.88.79,1.34.57.45,1.38.53,3.95-.08,1.57-.38,2.11-.61,3.32-.95,2.22-.62,3.99-.83,4.98-.95,1.82-.21,3.35-.39,5.38-.16,1.3.15,3.02.36,4.98,1.34,1.8.9,3.01,2.06,3.72,2.85"/>
    <path class="cls-3" d="m53.1,70.35c-.05-.35-.08-.92.09-1.57.36-1.37,1.37-2.12,1.75-2.4.86-.62,1.65-.78,2.95-1.01.77-.14,1.37-.2,4.24-.28,3.23-.09,3.6-.05,3.96,0,.69.1.72.17,3.59,1.01,4.19,1.24,3.18.82,3.96,1.11,1.07.39,1.98.82,3.22.64.86-.12,1.11-.42,1.2-.55.5-.75-.28-1.98-.37-2.12-.63-.99-1.6-1.38-2.3-1.66-1.23-.48-1.73-.31-4.15-.74-1.12-.2-.92-.22-2.21-.46-1.79-.34-3.14-.48-4.7-.64-2.32-.24-3.48-.36-4.42-.28-1.65.15-2.87.58-3.5.83-1.05.42-2.28.93-3.22,2.12-.21.26-.59.75-.83,1.47-.2.6-.17.96-.28,1.75-.07.5-.19,1.23-.46,2.12"/>
    <path class="cls-3" d="m58.45,76.81c.78-.08,1.6.04,2.36-.16.05-.01.23-.06.29.01.09.11-.18.36-.23.77-.03.22.02.38.13.7.09.28.21.66.53,1.06.11.14.46.56,1.09.85.28.13.8.37,1.43.28.57-.09.93-.4,1.47-.87.23-.2.74-.66,1.13-1.38.36-.68.54-1.02.53-1.34,0-.04,0-.15.06-.21.16-.14.59.1.72.17.96.51,2.71.38,2.85-.02.11-.3-.67-.84-1.15-1.17-.14-.09-.66-.45-1.51-.77-.78-.29-1.46-.41-1.92-.47-1.2-.15-2.09,0-3.09.17-.87.15-1.69.41-3.32.94,0,0-.91.29-2.23,1.09-.23.14-.5.31-.47.4.03.08.27.07,1.33-.04Z"/>
    <path class="cls-3" d="m96.41,77.75c.03.13.51.13.73.14.32,0,.45-.03,1.23-.14.32-.04.55-.07.86-.05.22.02.55.04.59.18.03.13-.24.22-.41.5-.21.36-.1.78-.05,1,.2.77.85,1.18,1,1.27.8.5,1.64.37,2,.32.25-.04,1.2-.19,1.95-1,.28-.3.9-.96.86-1.77-.01-.24-.08-.51.09-.68.16-.16.44-.14.69-.11.81.1,1.22.15,1.65.32,1.41.54,2.11,1.18,2.24,1.05.08-.09-.18-.47-.37-.69-.39-.44-.84-.63-1.28-.8-1.05-.4-1.58-.61-2.15-.71-.28-.05-.74-.12-3.25.02-2.12.12-1.41.14-2.88.21-.77.04-1.54.06-2.5.39-.1.03-1.04.36-1,.55Z"/>
    <path class="cls-3" d="m82.42,2.48h0c.06.28.09.67-.13.88-.26.26-.71.08-1.74-.08-1.21-.18-1.9-.27-2.27.11-.33.34-.24.88-.23.94.1.6.64.94,1.13,1.25,1.85,1.15,2.77,1.72,3.25,1.89,1.37.47,2.1.38,2.72,1.13.12.14.46.57.34.94-.08.23-.35.5-1.85.72-1.19.17-2.1.15-2.34.15-1.26-.01-2.16.17-3.97.53-.99.2-.37.13-4.12,1.17-.49.14-1.64.45-2.72,1.36-.24.2-.7.59-.6.79.08.17.52.15,1.89-.08,1.37-.23,2.05-.34,3.14-.6,1.76-.43,1.48-.45,2.53-.68,1.27-.27,2.45-.41,3.74-.19.49.08,1.27.22,1.32.57.05.28-.42.6-1.1,1.06-.55.37-.7.39-1.28.79-.52.36-.78.55-.94.83-.05.09-.37.68-.15,1.36.04.11.16.48.53.76.35.26.72.29.91.3.5.03.63-.15,1.28-.3.46-.11,1.1-.25,1.74,0,.19.07.75.3.87.79.1.43-.18.82-.38,1.1-.18.25-.36.41-.83.76-.57.42-.86.64-1.4.98-.61.39-.9.54-1.44.94-.34.26-.64.49-.6.57.09.17,1.89-.6,2.08-.68,1.33-.57,1.5-.78,2.15-.83.34-.02,1.26-.09,1.78.53.43.52.32,1.22.3,1.32-.1.59-.44.68-1.06,1.62-.32.49-.49.87-.83,1.62-.44.97-.53,1.4-.57,1.74-.05.48-.08.8.11,1.1.31.47,1.05.64,1.59.42.44-.19.64-.6.83-1.02.2-.42.25-.77.34-1.4.17-1.25.15-1.47.26-2.23.16-1.03.24-1.55.57-1.96.13-.17.51-.4,1.25-.87,1.04-.65,1.43-.85,1.81-1.02.68-.3,1.17-.5,1.4-.3.16.14.06.38,0,1.06-.09.97.08.93,0,1.93-.06.78-.17.96-.08,1.47.06.33.14.74.45.91.44.24,1.05-.16,1.4-.38.27-.17.62-.4.83-.83.09-.19.11-.33.19-.34.16-.01.27.59.53,1.25.24.62.66,1.68,1.55,2.04.07.03.71.28,1.02,0,.06-.05.18-.2.15-.79-.03-.65-.21-1.13-.3-1.36-.33-.85-.48-.88-.79-1.66-.28-.72-.42-1.08-.26-1.47.14-.35.49-.65.87-.72.41-.08.78.16,1.51.64.56.37.58.46,1.25.91.78.52,1.08.61,1.32.64.27.04.71.1,1.02-.15.17-.14.18-.27.49-1.13.23-.63.29-.74.42-.79.22-.1.44.07.91.3.68.34.54.15,1.7.64.7.3.91.44,1.36.45.08,0,.73.02.79-.19.06-.21-.49-.47-1.25-1.02-.89-.65-.8-.77-1.7-1.47-.41-.32-1-.69-2.19-1.44-1.04-.65-1.62-.98-1.81-1.66-.04-.13-.13-.48.04-.68.14-.17.45-.22,1.59.08,1.11.29,1.17.43,2.08.64.47.11,1.16.24,1.96.08.24-.05.59-.12.6-.26.02-.21-.66-.44-1.62-.76-1.3-.43-1.95-.64-2.49-.68-.56-.04-.99,0-1.55-.26-.23-.11-.51-.25-.72-.57-.48-.73-.03-1.65,0-1.7.28-.54.74-.79.91-.87.45-.23.84-.23,1.44-.23,2.49,0,2.38,0,2.53,0,.92.06.87.1,2.42.23.72.06,1.28.09,2,.04.38-.03,1.42-.11,1.44-.3.01-.18-.85-.42-1.59-.49-.32-.03-.39-.01-1.32,0-.61,0-.42,0-1.74,0-.59,0-1.18-.02-1.78,0-.98.04-1.28.13-1.59-.11-.27-.21-.44-.59-.38-.94.08-.44.49-.67.72-.79.32-.18.47-.14,1.44-.3,1.02-.17.91-.22,1.28-.23.66-.02.94.14,1.25-.08.23-.16.39-.48.3-.64-.12-.2-.57,0-1.4-.04-.63-.02-1.36-.05-1.59-.45-.14-.26.05-.45,0-1.4-.01-.25-.03-.43-.04-.45-.08-.61-1.42-1.81-5.63-2.42-2.43-.35-3.18-.12-6.16-.38-1.82-.16-3.29-.4-4.23-.57"/>
  </g>
</svg>